{"_v":2,"glyphs":{"0":{"ha":535,"x_min":35,"x_max":499,"o":"m 266 -10 l 266 -10 q 188 -10 137 32 q 85 74 60 156 q 35 237 35 357 l 35 357 q 35 476 58 558 q 80 639 131 682 q 182 725 266 725 l 266 725 q 345 725 397 682 q 448 639 474 557 q 499 474 499 356 l 499 356 q 499 273 487 206 q 475 138 448 90 q 421 42 377 16 q 333 -10 266 -10 z m 266 112 l 266 112 q 290 112 307 126 q 324 139 335 169 q 345 199 350 246 q 354 292 354 357 l 354 357 q 354 422 350 469 q 345 516 335 546 q 324 575 307 589 q 290 603 266 603 l 266 603 q 243 603 226 589 q 209 575 199 545 q 189 515 184 469 q 179 422 179 357 l 179 357 q 179 293 184 247 q 189 200 199 171 q 208 141 225 127 q 242 112 266 112 z"},"1":{"ha":535,"x_min":54,"x_max":391,"o":"m 391 714 l 391 0 l 246 0 l 246 415 q 246 439 248 479 q 250 519 250 552 l 250 552 q 247 547 232 531 q 216 515 202 504 l 202 504 l 128 439 l 54 523 l 273 714 l 391 714 z"},"2":{"ha":535,"x_min":36,"x_max":502,"o":"m 502 0 l 36 0 l 36 101 l 203 287 q 255 344 285 383 q 314 421 327 452 q 340 483 340 517 l 340 517 q 340 545 330 563 q 320 581 303 590 q 285 599 260 599 l 260 599 q 223 599 187 583 q 150 566 111 536 l 111 536 l 36 634 q 65 657 98 678 q 131 698 173 711 q 215 724 269 724 l 269 724 q 335 724 383 699 q 431 674 458 631 q 484 587 484 533 l 484 533 q 484 477 464 431 q 443 384 403 336 q 362 287 304 226 l 304 226 l 215 131 l 215 125 l 502 125 l 502 0 z"},"3":{"ha":535,"x_min":36,"x_max":495,"o":"m 229 -10 l 229 -10 q 175 -10 127 -1 q 78 8 36 25 l 36 25 l 36 152 q 80 132 125 121 q 170 110 211 110 l 211 110 q 284 110 314 138 q 343 166 343 217 l 343 217 q 343 247 329 268 q 315 288 280 299 q 245 309 184 309 l 184 309 l 135 309 l 135 425 l 186 425 q 246 425 278 438 q 310 450 322 472 q 334 493 334 521 l 334 521 q 334 560 313 581 q 291 602 240 602 l 240 602 q 195 602 162 586 q 128 570 105 556 l 105 556 l 36 659 q 80 687 131 706 q 181 724 252 724 l 252 724 q 323 724 373 704 q 423 684 450 646 q 476 608 476 555 l 476 555 q 476 508 457 472 q 438 436 406 412 q 373 388 331 376 l 331 376 l 331 373 q 412 362 454 319 q 495 276 495 206 l 495 206 q 495 145 467 96 q 439 47 381 19 q 322 -10 229 -10 z"},"4":{"ha":535,"x_min":17,"x_max":518,"o":"m 438 0 l 296 0 l 296 147 l 17 147 l 17 250 l 304 714 l 438 714 l 438 262 l 518 262 l 518 147 l 438 147 l 438 0 z m 258 462 l 140 262 l 296 262 l 296 401 q 296 422 297 454 q 298 485 300 511 q 301 537 302 540 l 302 540 l 298 540 q 289 519 280 500 q 270 480 258 462 l 258 462 z"},"5":{"ha":535,"x_min":47,"x_max":490,"o":"m 222 -10 l 222 -10 q 173 -10 127 0 q 80 9 47 25 l 47 25 l 47 154 q 79 137 126 125 q 172 112 216 112 l 216 112 q 258 112 286 125 q 314 138 329 164 q 343 189 343 228 l 343 228 q 343 280 312 308 q 280 335 213 335 l 213 335 q 188 335 160 330 q 131 325 113 320 l 113 320 l 58 355 l 82 714 l 443 714 l 443 588 l 209 588 l 198 448 q 212 450 230 454 q 247 457 277 457 l 277 457 q 341 457 389 431 q 437 404 464 356 q 490 308 490 241 l 490 241 q 490 164 461 108 q 431 51 372 21 q 312 -10 222 -10 z"},"6":{"ha":535,"x_min":34,"x_max":503,"o":"m 276 -10 l 276 -10 q 226 -10 182 9 q 138 28 105 66 q 72 104 53 164 q 34 223 34 303 l 34 303 q 34 365 43 425 q 51 485 72 539 q 92 592 129 634 q 166 675 224 699 q 282 722 364 722 l 364 722 q 384 722 412 721 q 439 719 458 715 l 458 715 l 458 594 q 440 599 419 602 q 398 604 378 604 l 378 604 q 296 604 252 577 q 207 550 189 500 q 170 450 168 382 l 168 382 l 173 382 q 186 407 205 425 q 223 443 251 454 q 279 465 315 465 l 315 465 q 373 465 415 438 q 457 411 480 360 q 503 309 503 238 l 503 238 q 503 162 476 106 q 448 50 398 20 q 347 -10 276 -10 z m 273 111 l 273 111 q 311 111 337 141 q 362 170 362 236 l 362 236 q 362 289 341 319 q 319 348 276 348 l 276 348 q 247 348 225 334 q 203 320 191 297 q 178 274 178 250 l 178 250 q 178 225 184 201 q 190 176 202 156 q 214 135 232 123 q 249 111 273 111 z"},"7":{"ha":535,"x_min":25,"x_max":503,"o":"m 255 0 l 104 0 l 352 588 l 25 588 l 25 713 l 503 713 l 503 618 l 255 0 z"},"8":{"ha":535,"x_min":33,"x_max":501,"o":"m 267 -10 l 267 -10 q 193 -10 141 13 q 88 36 61 79 q 33 122 33 180 l 33 180 q 33 228 50 264 q 66 299 95 327 q 124 354 161 373 l 161 373 q 130 394 106 421 q 82 447 68 479 q 54 511 54 552 l 54 552 q 54 608 83 646 q 112 684 161 704 q 210 723 267 723 l 267 723 q 327 723 375 704 q 423 684 452 646 q 480 608 480 551 l 480 551 q 480 510 465 478 q 450 445 424 420 q 397 395 361 377 l 361 377 q 400 354 432 327 q 464 299 483 264 q 501 229 501 184 l 501 184 q 501 125 471 82 q 441 38 388 14 q 335 -10 267 -10 z m 265 100 l 265 100 q 317 100 342 124 q 366 148 366 188 l 366 188 q 366 214 352 235 q 338 255 317 272 q 295 289 273 303 l 273 303 l 261 310 q 233 295 212 277 q 190 259 179 238 q 167 216 167 189 l 167 189 q 167 150 192 125 q 217 100 265 100 z m 266 441 l 266 441 q 287 453 305 467 q 322 480 333 499 q 344 517 344 542 l 344 542 q 344 576 323 595 q 302 614 267 614 l 267 614 q 234 614 212 596 q 190 577 190 542 l 190 542 q 190 519 201 501 q 211 482 229 468 q 246 454 266 441 z"},"9":{"ha":535,"x_min":31,"x_max":499,"o":"m 169 -10 l 169 -10 q 149 -10 122 -8 q 94 -7 76 -3 l 76 -3 l 76 118 q 94 114 115 111 q 135 108 156 108 l 156 108 q 217 108 257 125 q 297 141 320 171 q 343 201 354 242 q 364 282 365 330 l 365 330 l 360 330 q 347 307 329 288 q 311 269 285 258 q 258 247 216 247 l 216 247 q 160 247 119 275 q 77 302 54 353 q 31 403 31 475 l 31 475 q 31 552 58 607 q 85 662 136 692 q 187 722 257 722 l 257 722 q 308 722 352 704 q 396 685 429 647 q 462 609 481 551 q 499 492 499 413 l 499 413 q 499 350 491 289 q 482 227 461 174 q 440 120 403 79 q 365 37 308 14 q 251 -10 169 -10 z m 257 363 l 257 363 q 289 363 311 379 q 332 395 344 418 q 356 440 356 462 l 356 462 q 356 484 351 508 q 345 532 334 554 q 322 575 304 588 q 286 601 261 601 l 261 601 q 222 601 197 572 q 172 543 172 475 l 172 475 q 172 421 194 392 q 215 363 257 363 z"},"\r":{"ha":277,"x_min":0,"x_max":0,"o":""}," ":{"ha":277,"x_min":0,"x_max":0,"o":""},"ഀ":{"ha":0,"x_min":-438,"x_max":-118,"o":"m -438 713 l -438 713 q -438 779 -395 822 q -353 864 -278 864 l -278 864 q -203 864 -160 822 q -118 779 -118 713 l -118 713 q -118 648 -160 605 q -202 562 -278 562 l -278 562 q -354 562 -396 605 q -438 647 -438 713 z m -337 713 l -337 713 q -337 686 -323 667 q -309 647 -278 647 l -278 647 q -247 647 -232 667 q -218 687 -218 714 l -218 714 q -218 741 -233 760 q -249 779 -278 779 l -278 779 q -309 779 -323 760 q -337 741 -337 713 z"},"ഁ":{"ha":0,"x_min":-461,"x_max":-95,"o":"m -278 636 l -278 636 q -367 636 -414 681 q -461 726 -461 805 l -461 805 q -461 824 -459 838 q -457 852 -453 864 l -453 864 l -364 848 q -367 838 -368 828 q -369 818 -369 809 l -369 809 q -369 777 -356 759 q -344 740 -323 733 q -303 725 -278 725 l -278 725 q -256 725 -235 732 q -214 738 -200 757 q -187 776 -187 811 l -187 811 q -187 818 -188 828 q -189 838 -192 848 l -192 848 l -102 863 q -99 851 -97 837 q -95 823 -95 807 l -95 807 q -95 726 -142 681 q -189 636 -278 636 z m -279 752 l -279 752 q -310 752 -322 767 q -335 782 -335 807 l -335 807 q -335 830 -322 846 q -310 862 -279 862 l -279 862 q -248 862 -235 846 q -222 830 -222 807 l -222 807 q -222 782 -235 767 q -248 752 -279 752 z"},"ം":{"ha":468,"x_min":29,"x_max":439,"o":"m 234 -12 l 234 -12 q 171 -12 125 12 q 79 36 54 80 q 29 123 29 180 l 29 180 q 29 238 56 282 q 82 325 128 349 q 173 372 233 372 l 233 372 q 295 372 341 349 q 387 325 413 283 q 439 240 439 180 l 439 180 q 439 122 413 79 q 387 35 341 12 q 295 -12 234 -12 z m 233 272 l 233 272 q 201 272 180 250 q 159 228 159 179 l 159 179 q 159 133 180 111 q 201 88 234 88 l 234 88 q 266 88 288 110 q 309 131 309 180 l 309 180 q 309 228 288 250 q 267 272 233 272 z"},"ഃ":{"ha":344,"x_min":29,"x_max":315,"o":"m 29 438 l 29 438 q 29 497 68 536 q 107 574 171 574 l 171 574 q 237 574 276 536 q 315 498 315 438 l 315 438 q 315 379 277 341 q 238 302 172 302 l 172 302 q 106 302 68 341 q 29 379 29 438 z m 125 439 l 125 439 q 125 415 137 400 q 149 385 172 385 l 172 385 q 196 385 208 400 q 220 415 220 439 l 220 439 q 220 463 208 477 q 195 491 172 491 l 172 491 q 149 491 137 477 q 125 463 125 439 z m 29 124 l 29 124 q 29 183 68 222 q 107 260 171 260 l 171 260 q 237 260 276 222 q 315 184 315 124 l 315 124 q 315 64 277 26 q 238 -12 172 -12 l 172 -12 q 106 -12 68 27 q 29 65 29 124 z m 125 125 l 125 125 q 125 101 137 86 q 149 71 172 71 l 172 71 q 196 71 208 86 q 220 101 220 124 l 220 124 q 220 148 208 163 q 195 177 172 177 l 172 177 q 149 177 137 163 q 125 148 125 125 z"},"ഄ":{"ha":603,"x_min":33,"x_max":570,"o":"m 50 340 l 50 340 l 179 318 q 173 295 170 272 q 167 248 167 226 l 167 226 q 167 162 199 129 q 231 95 301 95 l 301 95 q 372 95 404 129 q 436 162 436 226 l 436 226 q 436 247 433 271 q 430 295 424 318 l 424 318 l 553 340 q 560 318 565 287 q 570 255 570 223 l 570 223 q 570 154 545 102 q 520 50 461 21 q 401 -9 301 -9 l 301 -9 q 201 -9 142 21 q 83 50 58 102 q 33 154 33 223 l 33 223 q 33 255 38 287 q 43 318 50 340 z m 246 186 l 246 418 l 358 418 l 358 186 l 246 186 z"},"അ":{"ha":1520,"x_min":36,"x_max":1485,"o":"m 373 574 l 373 574 q 425 574 487 564 q 548 553 600 529 l 600 529 q 609 525 617 520 q 624 514 632 509 l 632 509 q 658 497 681 478 q 704 459 720 434 q 735 408 735 372 l 735 372 q 735 345 727 324 q 718 303 700 286 q 681 268 650 254 l 650 254 l 647 265 q 692 249 719 217 q 746 185 746 137 l 746 137 q 746 97 727 63 q 707 29 663 9 q 618 -12 541 -12 l 541 -12 q 454 -12 402 21 q 349 53 325 110 q 301 166 301 238 l 301 238 q 301 294 318 346 q 335 398 372 443 q 409 487 468 520 l 468 520 q 474 523 478 527 q 482 530 489 533 l 489 533 q 526 552 575 563 q 624 574 678 574 l 678 574 q 741 574 786 562 q 831 549 864 527 q 896 504 923 474 l 923 474 l 977 229 l 977 0 l 837 0 l 837 267 q 837 340 827 379 q 816 418 785 443 l 785 443 q 764 460 738 468 q 711 475 676 475 l 676 475 q 647 475 621 471 q 595 467 577 461 l 577 461 q 538 449 510 425 q 482 401 465 370 q 448 339 441 305 q 433 271 433 238 l 433 238 q 433 156 459 123 q 485 89 535 89 l 535 89 q 573 89 592 104 q 610 118 610 146 l 610 146 q 610 173 589 189 q 568 205 524 205 l 524 205 l 505 205 l 505 307 l 519 307 q 563 307 582 325 q 601 342 601 370 l 601 370 q 601 400 577 425 q 552 450 488 463 l 488 463 q 469 469 442 473 q 415 476 385 476 l 385 476 q 314 476 269 452 q 223 427 201 384 q 179 340 179 284 l 179 284 q 179 237 190 199 q 200 160 221 127 q 241 93 271 60 l 271 60 l 174 -12 q 134 26 103 68 q 72 110 54 164 q 36 217 36 286 l 36 286 q 36 338 53 389 q 70 440 108 482 q 146 524 212 549 q 277 574 373 574 z m 1263 -12 l 1263 -12 q 1191 -12 1147 18 q 1103 47 1083 97 q 1062 146 1062 206 l 1062 206 q 1062 299 1109 354 q 1155 409 1243 409 l 1243 409 q 1296 409 1336 382 q 1376 354 1401 311 q 1426 267 1433 216 l 1433 216 l 1380 216 q 1375 239 1361 261 q 1347 282 1327 297 q 1306 311 1278 311 l 1278 311 q 1235 311 1217 283 q 1198 254 1198 201 l 1198 201 q 1198 167 1206 142 q 1213 117 1229 104 q 1245 90 1270 90 l 1270 90 q 1295 90 1312 105 q 1329 120 1339 152 q 1348 184 1348 237 l 1348 237 q 1348 251 1347 271 q 1345 291 1342 309 l 1342 309 q 1342 313 1344 319 q 1345 324 1343 328 l 1343 328 q 1338 365 1314 397 q 1290 429 1248 449 q 1205 469 1143 469 l 1143 469 q 1105 469 1080 464 q 1055 458 1031 440 l 1031 440 q 1015 427 1003 408 q 990 389 984 355 q 977 320 977 259 l 977 259 l 977 213 l 891 469 q 919 501 953 525 q 987 548 1034 561 q 1080 574 1148 574 l 1148 574 q 1231 574 1294 549 q 1357 523 1400 477 q 1442 430 1464 369 q 1485 308 1485 237 l 1485 237 q 1485 149 1458 94 q 1431 39 1382 14 q 1332 -12 1263 -12 z"},"ആ":{"ha":1676,"x_min":36,"x_max":1651,"o":"m 373 574 l 373 574 q 425 574 487 564 q 548 553 600 529 l 600 529 q 609 525 617 520 q 624 514 632 509 l 632 509 q 658 497 681 478 q 704 459 720 434 q 735 408 735 372 l 735 372 q 735 345 727 324 q 718 303 700 286 q 681 268 650 254 l 650 254 l 647 265 q 692 249 719 217 q 746 185 746 137 l 746 137 q 746 97 727 63 q 707 29 663 9 q 618 -12 541 -12 l 541 -12 q 454 -12 402 21 q 349 53 325 110 q 301 166 301 238 l 301 238 q 301 294 318 346 q 335 398 372 443 q 409 487 468 520 l 468 520 q 474 523 478 527 q 482 530 489 533 l 489 533 q 526 552 575 563 q 624 574 678 574 l 678 574 q 741 574 786 562 q 831 549 864 527 q 896 504 923 474 l 923 474 l 977 222 l 977 0 l 837 0 l 837 267 q 837 340 827 379 q 816 418 785 443 l 785 443 q 764 460 738 468 q 711 475 676 475 l 676 475 q 647 475 621 471 q 595 467 577 461 l 577 461 q 538 449 510 425 q 482 401 465 370 q 448 339 441 305 q 433 271 433 238 l 433 238 q 433 156 459 123 q 485 89 535 89 l 535 89 q 573 89 592 104 q 610 118 610 146 l 610 146 q 610 173 589 189 q 568 205 524 205 l 524 205 l 505 205 l 505 307 l 519 307 q 563 307 582 325 q 601 342 601 370 l 601 370 q 601 400 577 425 q 552 450 488 463 l 488 463 q 469 469 442 473 q 415 476 385 476 l 385 476 q 314 476 269 452 q 223 427 201 384 q 179 340 179 284 l 179 284 q 179 237 190 199 q 200 160 221 127 q 241 93 271 60 l 271 60 l 174 -12 q 134 26 103 68 q 72 110 54 164 q 36 217 36 286 l 36 286 q 36 338 53 389 q 70 440 108 482 q 146 524 212 549 q 277 574 373 574 z m 1136 574 l 1136 574 q 1227 574 1292 543 q 1357 511 1396 459 q 1435 406 1447 343 l 1447 343 q 1453 317 1456 289 q 1458 260 1458 230 l 1458 230 q 1458 147 1434 93 q 1409 39 1361 14 q 1313 -12 1243 -12 l 1243 -12 q 1176 -12 1132 14 q 1088 39 1067 83 q 1045 126 1045 182 l 1045 182 q 1045 287 1116 344 q 1187 400 1312 400 l 1312 400 q 1336 400 1352 400 q 1367 399 1379 398 l 1379 398 l 1410 394 q 1485 382 1539 341 q 1593 300 1622 239 q 1651 177 1651 99 l 1651 99 q 1651 39 1634 -15 q 1617 -70 1580 -111 q 1542 -153 1482 -177 q 1422 -201 1336 -201 l 1336 -201 q 1291 -201 1252 -195 q 1213 -189 1178 -177 l 1178 -177 l 1216 -77 q 1245 -87 1271 -91 q 1297 -95 1332 -95 l 1332 -95 q 1389 -95 1425 -77 q 1460 -60 1481 -32 q 1502 -4 1510 31 q 1518 66 1518 100 l 1518 100 q 1518 149 1507 184 q 1495 219 1474 245 q 1453 270 1423 285 l 1423 285 l 1384 293 q 1371 297 1354 299 q 1336 301 1318 301 l 1318 301 q 1271 301 1241 286 q 1210 271 1196 244 q 1181 217 1181 180 l 1181 180 q 1181 153 1188 133 q 1195 113 1210 102 q 1225 90 1248 90 l 1248 90 q 1288 90 1307 122 q 1326 153 1326 231 l 1326 231 q 1326 267 1320 300 q 1314 333 1304 360 l 1304 360 l 1297 380 q 1282 409 1257 429 q 1232 449 1201 459 q 1169 469 1131 469 l 1131 469 q 1103 469 1079 464 q 1054 458 1030 440 l 1030 440 q 1014 427 1002 408 q 990 389 984 354 q 977 319 977 258 l 977 258 l 977 211 l 891 469 q 917 500 951 524 q 984 548 1030 561 q 1075 574 1136 574 z"},"ഇ":{"ha":967,"x_min":35,"x_max":931,"o":"m 333 574 l 333 574 q 392 574 434 562 q 475 549 505 529 q 534 508 558 483 l 558 483 l 519 491 q 553 537 601 556 q 648 574 699 574 l 699 574 q 758 574 803 553 q 847 531 875 494 q 903 457 917 411 q 931 364 931 313 l 931 313 q 931 220 909 161 q 886 101 833 61 l 833 61 q 807 41 773 28 q 739 14 692 7 q 645 0 579 0 l 579 0 l 294 0 q 252 0 234 -2 q 215 -5 205 -10 l 205 -10 q 192 -16 187 -25 q 182 -35 182 -46 l 182 -46 q 182 -57 187 -66 q 191 -76 201 -83 l 201 -83 q 212 -89 231 -92 q 250 -96 292 -96 l 292 -96 l 915 -96 l 915 -201 l 278 -201 q 218 -201 174 -192 q 130 -183 104 -167 l 104 -167 q 73 -147 57 -118 q 41 -89 41 -52 l 41 -52 q 41 -14 57 18 q 73 49 107 70 l 107 70 q 125 81 147 88 q 169 95 201 99 q 233 103 280 103 l 280 103 l 528 103 q 596 103 637 110 q 678 116 703 128 q 727 140 744 156 l 744 156 q 773 182 782 221 q 790 259 790 306 l 790 306 q 790 345 780 383 q 769 420 745 445 q 720 470 679 470 l 679 470 q 664 470 650 465 q 635 459 625 446 l 625 446 q 612 431 607 406 q 601 380 601 327 l 601 327 l 601 146 l 464 146 l 464 311 q 464 364 454 395 q 443 425 425 441 l 425 441 q 408 457 384 464 q 360 471 321 471 l 321 471 q 293 471 269 466 q 245 461 225 451 q 204 441 189 426 q 173 410 163 389 l 163 389 q 159 382 157 372 q 155 362 154 353 l 154 353 q 153 345 152 334 q 150 322 150 306 l 150 306 q 150 264 166 241 q 182 217 212 217 l 212 217 q 239 217 252 235 q 264 253 264 281 l 264 281 q 264 300 258 314 q 252 327 241 335 q 229 343 211 343 l 211 343 q 183 343 164 336 q 144 328 122 317 l 122 317 l 43 326 q 63 350 95 374 q 126 398 165 413 q 203 428 242 428 l 242 428 q 295 428 328 408 q 360 388 376 355 q 392 322 392 282 l 392 282 q 392 240 374 204 q 356 168 317 147 q 277 125 215 125 l 215 125 q 162 125 122 149 q 81 172 58 216 q 35 259 35 321 l 35 321 q 35 396 73 453 q 111 509 178 542 q 244 574 333 574 z"},"ഈ":{"ha":1727,"x_min":35,"x_max":1692,"o":"m 333 574 l 333 574 q 392 574 434 562 q 475 549 505 529 q 534 508 558 483 l 558 483 l 519 491 q 553 537 601 556 q 648 574 699 574 l 699 574 q 758 574 803 553 q 847 531 875 494 q 903 457 917 411 q 931 364 931 313 l 931 313 q 931 220 909 161 q 886 101 833 61 l 833 61 q 807 41 773 28 q 739 14 692 7 q 645 0 579 0 l 579 0 l 294 0 q 252 0 234 -2 q 215 -5 205 -10 l 205 -10 q 192 -16 187 -25 q 182 -35 182 -46 l 182 -46 q 182 -57 187 -66 q 191 -76 201 -83 l 201 -83 q 212 -89 231 -92 q 250 -96 292 -96 l 292 -96 l 915 -96 l 915 -201 l 278 -201 q 218 -201 174 -192 q 130 -183 104 -167 l 104 -167 q 73 -147 57 -118 q 41 -89 41 -52 l 41 -52 q 41 -14 57 18 q 73 49 107 70 l 107 70 q 125 81 147 88 q 169 95 201 99 q 233 103 280 103 l 280 103 l 528 103 q 596 103 637 110 q 678 116 703 128 q 727 140 744 156 l 744 156 q 773 182 782 221 q 790 259 790 306 l 790 306 q 790 345 780 383 q 769 420 745 445 q 720 470 679 470 l 679 470 q 664 470 650 465 q 635 459 625 446 l 625 446 q 612 431 607 406 q 601 380 601 327 l 601 327 l 601 146 l 464 146 l 464 311 q 464 364 454 395 q 443 425 425 441 l 425 441 q 408 457 384 464 q 360 471 321 471 l 321 471 q 293 471 269 466 q 245 461 225 451 q 204 441 189 426 q 173 410 163 389 l 163 389 q 159 382 157 372 q 155 362 154 353 l 154 353 q 153 345 152 334 q 150 322 150 306 l 150 306 q 150 264 166 241 q 182 217 212 217 l 212 217 q 239 217 252 235 q 264 253 264 281 l 264 281 q 264 300 258 314 q 252 327 241 335 q 229 343 211 343 l 211 343 q 183 343 164 336 q 144 328 122 317 l 122 317 l 43 326 q 63 350 95 374 q 126 398 165 413 q 203 428 242 428 l 242 428 q 295 428 328 408 q 360 388 376 355 q 392 322 392 282 l 392 282 q 392 240 374 204 q 356 168 317 147 q 277 125 215 125 l 215 125 q 162 125 122 149 q 81 172 58 216 q 35 259 35 321 l 35 321 q 35 396 73 453 q 111 509 178 542 q 244 574 333 574 z m 1479 574 l 1479 574 q 1547 574 1594 541 q 1641 508 1666 449 q 1691 390 1691 310 l 1691 310 q 1691 207 1658 135 q 1624 62 1559 25 q 1494 -12 1397 -12 l 1397 -12 q 1328 -12 1274 1 q 1220 13 1171 38 l 1171 38 l 1223 136 q 1263 117 1301 106 q 1338 94 1385 94 l 1385 94 q 1446 94 1483 120 q 1519 145 1535 193 q 1550 240 1550 306 l 1550 306 q 1550 392 1527 432 q 1504 471 1468 471 l 1468 471 q 1450 471 1439 464 q 1427 457 1421 444 l 1421 444 q 1414 432 1412 416 q 1409 399 1409 364 l 1409 364 l 1409 263 l 1270 263 l 1270 341 q 1270 385 1268 408 q 1265 430 1259 443 l 1259 443 q 1250 458 1237 465 q 1223 471 1209 471 l 1209 471 q 1172 471 1154 444 q 1136 417 1136 384 l 1136 384 q 1136 353 1141 330 q 1145 306 1151 288 l 1151 288 l 1016 259 q 1007 287 1002 322 q 996 356 996 384 l 996 384 q 996 434 1017 477 q 1038 520 1081 547 q 1124 574 1193 574 l 1193 574 q 1246 574 1283 558 q 1319 541 1344 511 l 1344 511 l 1331 513 q 1359 545 1395 560 q 1430 574 1479 574 z"},"ഉ":{"ha":700,"x_min":35,"x_max":665,"o":"m 349 574 l 349 574 q 438 574 498 550 q 558 526 596 486 q 633 445 649 396 q 665 347 665 296 l 665 296 q 665 221 645 166 q 625 111 581 74 l 581 74 q 547 46 506 30 q 464 14 414 7 q 363 0 300 0 l 300 0 l 286 0 q 250 0 233 -2 q 215 -5 205 -10 l 205 -10 q 192 -16 187 -25 q 182 -35 182 -46 l 182 -46 q 182 -57 187 -66 q 191 -76 201 -83 l 201 -83 q 212 -89 231 -92 q 250 -96 292 -96 l 292 -96 l 646 -96 l 646 -201 l 278 -201 q 218 -201 174 -192 q 130 -183 104 -167 l 104 -167 q 73 -147 57 -118 q 41 -89 41 -52 l 41 -52 q 41 -14 57 18 q 73 49 107 70 l 107 70 q 133 86 171 95 q 208 103 271 103 l 271 103 l 269 103 q 330 103 372 110 q 414 116 441 128 q 468 140 486 160 l 486 160 q 507 184 515 218 q 523 252 523 294 l 523 294 q 523 323 515 354 q 506 385 486 412 q 465 438 429 454 q 392 470 337 470 l 337 470 q 303 470 273 464 q 243 457 219 445 q 195 432 179 414 q 163 395 156 368 l 156 368 q 155 365 155 362 q 155 359 155 355 l 155 355 q 153 347 152 336 q 150 325 150 306 l 150 306 q 150 264 166 241 q 182 217 212 217 l 212 217 q 239 217 252 235 q 264 253 264 281 l 264 281 q 264 300 258 314 q 252 327 241 335 q 229 343 211 343 l 211 343 q 183 343 163 336 q 142 328 122 317 l 122 317 l 43 326 q 63 350 95 374 q 126 398 165 413 q 203 428 242 428 l 242 428 q 295 428 328 408 q 360 388 376 355 q 392 322 392 282 l 392 282 q 392 240 374 204 q 356 168 317 147 q 277 125 215 125 l 215 125 q 162 125 122 148 q 81 170 58 214 q 35 258 35 319 l 35 319 q 35 372 57 419 q 78 466 119 501 q 159 536 218 555 q 276 574 349 574 z"},"ഊ":{"ha":1460,"x_min":35,"x_max":1425,"o":"m 349 574 l 349 574 q 438 574 498 550 q 558 526 596 486 q 633 445 649 396 q 665 347 665 296 l 665 296 q 665 221 645 166 q 625 111 581 74 l 581 74 q 547 46 506 30 q 464 14 414 7 q 363 0 300 0 l 300 0 l 286 0 q 250 0 233 -2 q 215 -5 205 -10 l 205 -10 q 192 -16 187 -25 q 182 -35 182 -46 l 182 -46 q 182 -57 187 -66 q 191 -76 201 -83 l 201 -83 q 212 -89 231 -92 q 250 -96 292 -96 l 292 -96 l 646 -96 l 646 -201 l 278 -201 q 218 -201 174 -192 q 130 -183 104 -167 l 104 -167 q 73 -147 57 -118 q 41 -89 41 -52 l 41 -52 q 41 -14 57 18 q 73 49 107 70 l 107 70 q 133 86 171 95 q 208 103 271 103 l 271 103 l 269 103 q 330 103 372 110 q 414 116 441 128 q 468 140 486 160 l 486 160 q 507 184 515 218 q 523 252 523 294 l 523 294 q 523 323 515 354 q 506 385 486 412 q 465 438 429 454 q 392 470 337 470 l 337 470 q 303 470 273 464 q 243 457 219 445 q 195 432 179 414 q 163 395 156 368 l 156 368 q 155 365 155 362 q 155 359 155 355 l 155 355 q 153 347 152 336 q 150 325 150 306 l 150 306 q 150 264 166 241 q 182 217 212 217 l 212 217 q 239 217 252 235 q 264 253 264 281 l 264 281 q 264 300 258 314 q 252 327 241 335 q 229 343 211 343 l 211 343 q 183 343 163 336 q 142 328 122 317 l 122 317 l 43 326 q 63 350 95 374 q 126 398 165 413 q 203 428 242 428 l 242 428 q 295 428 328 408 q 360 388 376 355 q 392 322 392 282 l 392 282 q 392 240 374 204 q 356 168 317 147 q 277 125 215 125 l 215 125 q 162 125 122 148 q 81 170 58 214 q 35 258 35 319 l 35 319 q 35 372 57 419 q 78 466 119 501 q 159 536 218 555 q 276 574 349 574 z m 1212 574 l 1212 574 q 1280 574 1327 541 q 1374 508 1399 449 q 1424 390 1424 310 l 1424 310 q 1424 207 1391 135 q 1357 62 1292 25 q 1227 -12 1130 -12 l 1130 -12 q 1061 -12 1007 1 q 953 13 904 38 l 904 38 l 956 136 q 996 117 1034 106 q 1071 94 1118 94 l 1118 94 q 1179 94 1216 120 q 1252 145 1268 193 q 1283 240 1283 306 l 1283 306 q 1283 392 1260 432 q 1237 471 1201 471 l 1201 471 q 1183 471 1172 464 q 1160 457 1154 444 l 1154 444 q 1147 432 1145 416 q 1142 399 1142 364 l 1142 364 l 1142 263 l 1003 263 l 1003 341 q 1003 385 1001 408 q 998 430 992 443 l 992 443 q 983 458 970 465 q 956 471 942 471 l 942 471 q 905 471 887 444 q 869 417 869 384 l 869 384 q 869 353 874 330 q 878 306 884 288 l 884 288 l 749 259 q 740 287 735 322 q 729 356 729 384 l 729 384 q 729 434 750 477 q 771 520 814 547 q 857 574 926 574 l 926 574 q 979 574 1016 558 q 1052 541 1077 511 l 1077 511 l 1064 513 q 1092 545 1128 560 q 1163 574 1212 574 z"},"ഋ":{"ha":932,"x_min":33,"x_max":899,"o":"m 686 574 l 686 574 q 784 574 842 517 q 899 459 899 345 l 899 345 q 899 275 871 222 q 843 168 794 133 l 794 133 q 751 100 695 82 q 639 63 571 63 l 571 63 l 367 63 q 323 63 284 70 q 244 77 211 93 q 177 108 149 128 l 149 128 q 94 164 64 219 q 33 273 33 346 l 33 346 q 33 417 60 468 q 87 519 137 547 q 186 574 252 574 l 252 574 q 315 574 357 551 q 399 528 420 488 q 441 448 441 400 l 441 400 q 441 342 420 304 q 398 265 358 246 q 317 227 261 227 l 261 227 q 220 227 184 243 q 147 258 119 279 q 91 300 75 318 l 75 318 l 108 420 q 125 394 142 372 q 158 350 180 336 q 202 321 232 321 l 232 321 q 265 321 286 341 q 306 360 306 403 l 306 403 q 306 438 289 457 q 271 476 244 476 l 244 476 q 218 476 200 463 q 182 449 173 424 q 163 398 163 361 l 163 361 q 163 341 166 323 q 169 304 173 288 l 173 288 l 166 269 q 179 237 208 217 q 237 197 275 186 q 313 175 353 171 q 392 166 426 166 l 426 166 l 508 166 q 537 166 576 170 q 614 173 654 184 q 693 194 724 215 q 755 235 768 269 l 768 269 l 761 288 q 765 303 768 321 q 770 339 770 361 l 770 361 q 770 398 761 424 q 751 449 734 463 q 717 476 691 476 l 691 476 q 663 476 646 457 q 628 437 628 400 l 628 400 q 628 359 648 340 q 667 321 700 321 l 700 321 q 731 321 753 336 q 775 350 792 372 q 809 394 825 421 l 825 421 l 858 318 q 843 301 815 280 q 787 258 751 243 q 714 227 672 227 l 672 227 q 617 227 577 246 q 537 265 515 303 q 493 341 493 397 l 493 397 q 493 448 516 488 q 538 528 581 551 q 624 574 686 574 z m 468 -249 l 468 -249 q 350 -249 269 -228 q 187 -208 145 -162 q 103 -117 103 -44 l 103 -44 q 103 4 127 38 q 150 71 193 91 q 235 111 290 121 q 345 130 408 130 l 408 130 l 521 130 q 588 130 644 121 q 700 111 742 91 q 784 71 807 37 q 830 3 830 -47 l 830 -47 q 830 -110 793 -155 q 756 -201 676 -225 q 596 -249 468 -249 z m 468 -142 l 468 -142 q 547 -142 595 -130 q 642 -119 665 -96 q 687 -74 687 -41 l 687 -41 q 687 -9 669 11 q 651 31 621 42 q 590 53 553 57 q 516 61 479 61 l 479 61 l 457 61 q 401 61 353 53 q 304 44 275 22 q 246 0 246 -40 l 246 -40 q 246 -75 269 -97 q 291 -120 340 -131 q 389 -142 468 -142 z"},"ഌ":{"ha":1190,"x_min":36,"x_max":1155,"o":"m 368 574 l 368 574 q 449 574 504 549 q 559 524 602 475 l 602 475 l 624 395 l 647 208 l 647 0 l 507 0 l 507 278 q 507 353 497 387 q 486 420 467 437 l 467 437 q 450 453 428 462 q 405 470 366 470 l 366 470 q 309 470 264 445 q 218 420 191 369 q 164 318 164 241 l 164 241 l 164 235 q 164 177 175 145 q 185 113 203 100 q 220 87 241 87 l 241 87 q 260 87 273 96 q 285 105 292 123 q 298 140 298 167 l 298 167 q 298 208 283 228 q 268 248 235 248 l 235 248 q 203 248 173 229 q 142 210 112 172 l 112 172 l 98 269 q 123 296 168 321 q 213 346 270 346 l 270 346 q 323 346 359 325 q 395 304 414 266 q 432 227 432 174 l 432 174 q 432 115 410 74 q 388 32 347 10 q 305 -12 247 -12 l 247 -12 q 192 -12 144 14 q 96 39 66 95 q 36 151 36 242 l 36 242 q 36 352 80 426 q 123 499 199 537 q 275 574 368 574 z m 933 -12 l 933 -12 q 860 -12 817 18 q 773 47 753 97 q 732 146 732 206 l 732 206 q 732 299 778 354 q 824 409 913 409 l 913 409 q 966 409 1006 382 q 1046 354 1071 311 q 1096 267 1102 216 l 1102 216 l 1050 216 q 1044 239 1030 261 q 1016 282 996 297 q 975 311 947 311 l 947 311 q 905 311 887 283 q 868 254 868 201 l 868 201 q 868 167 876 142 q 883 117 899 104 q 915 90 940 90 l 940 90 q 964 90 982 105 q 999 120 1009 152 q 1018 184 1018 237 l 1018 237 q 1018 251 1017 271 q 1015 291 1012 309 l 1012 309 q 1011 313 1013 319 q 1015 324 1013 328 l 1013 328 q 1007 365 983 397 q 959 429 917 449 q 875 469 813 469 l 813 469 q 775 469 750 464 q 724 458 701 440 l 701 440 q 685 427 673 408 q 660 389 654 355 q 647 320 647 259 l 647 259 l 647 213 l 561 469 q 589 501 623 525 q 657 548 704 561 q 750 574 818 574 l 818 574 q 901 574 964 549 q 1027 523 1070 477 q 1112 430 1134 369 q 1155 308 1155 237 l 1155 237 q 1155 149 1128 94 q 1101 39 1052 14 q 1002 -12 933 -12 z"},"എ":{"ha":1278,"x_min":29,"x_max":1238,"o":"m 245 362 l 245 362 q 320 362 368 335 q 415 307 437 264 q 459 221 459 175 l 459 175 q 459 142 449 115 q 438 88 430 69 l 430 69 l 417 103 l 868 103 l 858 0 l 341 0 l 292 59 q 303 76 313 103 q 323 129 323 165 l 323 165 q 323 206 305 233 q 286 260 247 260 l 247 260 q 219 260 202 248 q 185 236 177 215 q 168 193 168 167 l 168 167 q 168 122 182 94 q 196 66 211 41 l 211 41 l 99 -12 q 66 30 48 74 q 29 117 29 174 l 29 174 q 29 230 56 273 q 83 315 132 339 q 181 362 245 362 z m 905 574 l 905 574 q 989 574 1052 548 q 1114 521 1155 469 q 1196 417 1217 342 q 1238 267 1238 173 l 1238 173 q 1238 90 1221 20 q 1204 -50 1174 -111 q 1144 -172 1103 -228 l 1103 -228 l 997 -166 q 1030 -116 1051 -64 q 1072 -12 1083 47 q 1093 105 1093 172 l 1093 172 q 1093 234 1083 288 q 1073 342 1051 383 q 1028 424 993 448 q 957 471 903 471 l 903 471 q 833 471 788 431 q 742 391 720 319 q 697 246 697 147 l 697 147 q 697 117 698 92 q 699 67 701 46 l 701 46 q 701 39 701 34 q 700 29 700 21 l 700 21 q 704 -37 716 -70 q 728 -103 746 -116 q 764 -129 786 -129 l 786 -129 q 805 -129 814 -117 l 814 -117 q 819 -111 821 -101 q 822 -91 822 -75 l 822 -75 l 822 388 l 961 388 l 961 -47 q 961 -98 951 -130 q 941 -163 918 -186 l 918 -186 q 898 -205 867 -216 q 835 -228 792 -228 l 792 -228 q 718 -228 666 -189 q 613 -151 585 -69 q 557 13 557 144 l 557 144 q 557 237 578 315 q 599 393 642 452 q 685 510 751 542 q 817 574 905 574 z"},"ഏ":{"ha":1292,"x_min":28,"x_max":1264,"o":"m 245 362 l 245 362 q 320 362 367 335 q 414 307 437 264 q 459 221 459 175 l 459 175 q 459 142 449 115 q 438 88 429 69 l 429 69 l 407 103 l 860 103 l 858 0 l 340 0 l 292 59 q 302 76 313 103 q 323 129 323 165 l 323 165 q 323 206 304 233 q 285 260 246 260 l 246 260 q 219 260 202 248 q 184 236 176 215 q 167 193 167 167 l 167 167 q 167 122 182 94 q 196 66 210 41 l 210 41 l 99 -12 q 65 30 47 74 q 28 117 28 174 l 28 174 q 28 230 56 273 q 83 315 132 339 q 180 362 245 362 z m 949 574 l 949 574 q 1033 574 1091 555 q 1149 535 1186 501 q 1222 467 1239 425 q 1255 382 1255 337 l 1255 337 q 1255 286 1240 248 q 1224 210 1200 184 q 1175 158 1148 142 l 1148 142 l 1147 154 q 1203 126 1234 84 q 1264 41 1264 -28 l 1264 -28 q 1264 -98 1239 -142 q 1213 -186 1169 -207 q 1124 -228 1066 -228 l 1066 -228 q 1043 -228 1019 -226 q 994 -224 978 -220 l 978 -220 l 995 -118 q 1004 -122 1017 -123 q 1029 -124 1036 -124 l 1036 -124 q 1069 -124 1088 -112 q 1106 -101 1115 -78 q 1123 -55 1123 -23 l 1123 -23 q 1123 25 1096 57 q 1069 88 1014 89 l 1014 89 l 1014 190 q 1046 199 1068 216 q 1090 233 1102 261 q 1114 288 1114 329 l 1114 329 q 1114 367 1097 399 q 1079 430 1042 449 q 1005 468 943 468 l 943 468 q 856 468 802 428 q 748 388 723 316 q 697 243 697 147 l 697 147 q 697 116 698 92 q 699 67 700 46 l 700 46 q 700 40 700 34 q 700 28 699 21 l 699 21 q 704 -37 716 -70 q 728 -103 746 -116 q 763 -129 785 -129 l 785 -129 q 804 -129 814 -117 l 814 -117 q 819 -111 821 -101 q 822 -91 822 -75 l 822 -75 l 822 388 l 961 388 l 961 -47 q 961 -98 951 -130 q 941 -163 918 -186 l 918 -186 q 898 -205 866 -216 q 834 -228 791 -228 l 791 -228 q 718 -228 665 -189 q 612 -151 585 -68 q 557 14 557 147 l 557 147 q 557 242 582 321 q 606 399 655 456 q 704 513 778 544 q 851 574 949 574 z"},"ഐ":{"ha":2002,"x_min":36,"x_max":1962,"o":"m 248 -12 l 248 -12 q 192 -12 144 14 q 96 40 66 95 q 36 150 36 241 l 36 241 q 36 316 60 377 q 84 437 130 482 q 175 526 240 550 q 304 574 385 574 l 385 574 q 461 574 519 552 q 576 529 614 490 q 652 450 671 398 q 690 345 690 283 l 690 283 q 690 216 672 163 q 653 110 621 68 q 589 25 548 -13 l 548 -13 l 453 59 q 480 89 502 121 q 523 153 535 192 q 547 230 547 282 l 547 282 q 547 338 528 381 q 508 423 469 446 q 430 469 371 469 l 371 469 q 309 469 262 439 q 215 408 190 356 q 164 303 164 237 l 164 237 q 164 178 175 146 q 185 113 203 100 q 220 87 241 87 l 241 87 q 260 87 273 96 q 285 105 292 122 q 298 139 298 166 l 298 166 q 298 207 283 228 q 268 248 235 248 l 235 248 q 203 248 173 229 q 142 210 112 172 l 112 172 l 98 269 q 123 296 167 321 q 211 346 268 346 l 268 346 q 322 346 358 325 q 394 304 413 266 q 432 227 432 174 l 432 174 q 432 115 410 74 q 388 33 348 11 q 307 -12 248 -12 z m 969 362 l 969 362 q 1044 362 1092 335 q 1139 307 1161 264 q 1183 221 1183 175 l 1183 175 q 1183 142 1173 115 q 1162 88 1154 69 l 1154 69 l 1141 103 l 1592 103 l 1582 0 l 1065 0 l 1016 59 q 1027 76 1037 103 q 1047 129 1047 165 l 1047 165 q 1047 206 1029 233 q 1010 260 971 260 l 971 260 q 943 260 926 248 q 909 236 901 215 q 892 193 892 167 l 892 167 q 892 122 906 94 q 920 66 935 41 l 935 41 l 823 -12 q 790 30 772 74 q 753 117 753 174 l 753 174 q 753 230 780 273 q 807 315 856 339 q 905 362 969 362 z m 1629 574 l 1629 574 q 1713 574 1776 548 q 1838 521 1879 469 q 1920 417 1941 342 q 1962 267 1962 173 l 1962 173 q 1962 90 1945 20 q 1928 -50 1898 -111 q 1868 -172 1827 -228 l 1827 -228 l 1721 -166 q 1754 -116 1775 -64 q 1796 -12 1807 47 q 1817 105 1817 172 l 1817 172 q 1817 234 1807 288 q 1797 342 1775 383 q 1752 424 1717 448 q 1681 471 1627 471 l 1627 471 q 1557 471 1512 431 q 1466 391 1444 319 q 1421 246 1421 147 l 1421 147 q 1421 117 1422 92 q 1423 67 1425 46 l 1425 46 q 1425 39 1425 34 q 1424 29 1424 21 l 1424 21 q 1428 -37 1440 -70 q 1452 -103 1470 -116 q 1488 -129 1510 -129 l 1510 -129 q 1529 -129 1538 -117 l 1538 -117 q 1543 -111 1545 -101 q 1546 -91 1546 -75 l 1546 -75 l 1546 388 l 1685 388 l 1685 -47 q 1685 -98 1675 -130 q 1665 -163 1642 -186 l 1642 -186 q 1622 -205 1591 -216 q 1559 -228 1516 -228 l 1516 -228 q 1442 -228 1390 -189 q 1337 -151 1309 -69 q 1281 13 1281 144 l 1281 144 q 1281 237 1302 315 q 1323 393 1366 452 q 1409 510 1475 542 q 1541 574 1629 574 z"},"ഒ":{"ha":772,"x_min":36,"x_max":740,"o":"m 456 574 l 456 574 q 557 574 618 552 q 678 530 705 493 q 731 456 731 408 l 731 408 q 731 380 722 356 q 712 331 692 312 q 672 292 638 277 l 638 277 l 637 283 q 688 265 714 230 q 740 194 740 144 l 740 144 q 740 71 694 30 q 647 -12 553 -12 l 553 -12 q 517 -12 491 -8 q 465 -4 444 0 l 444 0 l 462 100 q 475 96 491 94 q 507 91 528 91 l 528 91 q 568 91 584 107 q 600 122 600 155 l 600 155 q 600 170 595 183 q 589 196 576 206 l 576 206 q 564 217 544 223 q 524 228 486 228 l 486 228 l 471 228 l 471 330 l 483 330 q 524 330 542 335 q 559 340 573 352 l 573 352 q 581 360 586 371 q 590 381 590 395 l 590 395 q 590 431 557 450 q 523 469 447 469 l 447 469 q 388 469 337 456 q 285 442 246 414 q 207 386 186 345 q 164 304 164 248 l 164 248 l 164 233 q 164 176 174 144 q 184 112 202 100 q 220 87 241 87 l 241 87 q 259 87 272 96 q 284 104 291 122 q 297 139 297 167 l 297 167 q 297 208 283 228 q 268 248 234 248 l 234 248 q 202 248 171 229 q 140 209 109 170 l 109 170 l 92 264 q 118 294 163 320 q 208 346 268 346 l 268 346 q 321 346 358 325 q 394 304 413 266 q 432 227 432 174 l 432 174 q 432 115 410 74 q 388 32 347 10 q 305 -12 247 -12 l 247 -12 q 189 -12 141 14 q 93 40 65 95 q 36 149 36 234 l 36 234 q 36 317 66 380 q 96 443 152 487 q 207 530 285 552 q 363 574 456 574 z"},"ഓ":{"ha":1296,"x_min":36,"x_max":1257,"o":"m 456 574 l 456 574 q 557 574 618 552 q 678 530 705 493 q 731 456 731 408 l 731 408 q 731 380 722 356 q 712 331 692 312 q 672 292 638 277 l 638 277 l 637 283 q 688 265 714 230 q 740 194 740 144 l 740 144 q 740 71 694 30 q 647 -12 553 -12 l 553 -12 q 517 -12 491 -8 q 465 -4 444 0 l 444 0 l 462 100 q 475 96 491 94 q 507 91 528 91 l 528 91 q 568 91 584 107 q 600 122 600 155 l 600 155 q 600 170 595 183 q 589 196 576 206 l 576 206 q 564 217 544 223 q 524 228 486 228 l 486 228 l 471 228 l 471 330 l 483 330 q 524 330 542 335 q 559 340 573 352 l 573 352 q 581 360 586 371 q 590 381 590 395 l 590 395 q 590 431 557 450 q 523 469 447 469 l 447 469 q 388 469 337 456 q 285 442 246 414 q 207 386 186 345 q 164 304 164 248 l 164 248 l 164 233 q 164 176 174 144 q 184 112 202 100 q 220 87 241 87 l 241 87 q 259 87 272 96 q 284 104 291 122 q 297 139 297 167 l 297 167 q 297 208 283 228 q 268 248 234 248 l 234 248 q 202 248 171 229 q 140 209 109 170 l 109 170 l 92 264 q 118 294 163 320 q 208 346 268 346 l 268 346 q 321 346 358 325 q 394 304 413 266 q 432 227 432 174 l 432 174 q 432 115 410 74 q 388 32 347 10 q 305 -12 247 -12 l 247 -12 q 189 -12 141 14 q 93 40 65 95 q 36 149 36 234 l 36 234 q 36 317 66 380 q 96 443 152 487 q 207 530 285 552 q 363 574 456 574 z m 1257 283 l 1257 283 q 1257 220 1245 167 q 1233 113 1206 73 q 1178 32 1132 10 q 1086 -12 1015 -12 l 1015 -12 q 954 -12 913 6 q 871 23 845 52 q 819 80 805 115 q 790 149 783 183 l 783 183 l 925 207 q 931 181 941 154 q 950 127 968 109 q 986 90 1017 90 l 1017 90 q 1051 90 1072 113 q 1093 136 1103 180 q 1112 223 1112 282 l 1112 282 q 1112 341 1103 384 q 1093 426 1073 449 q 1052 472 1019 472 l 1019 472 q 991 472 973 455 q 954 438 944 412 q 933 386 927 356 l 927 356 l 786 381 q 796 416 813 450 q 829 484 856 513 q 883 541 925 558 q 966 574 1025 574 l 1025 574 q 1092 574 1137 552 q 1181 529 1208 490 q 1234 450 1246 397 q 1257 344 1257 283 z"},"ഔ":{"ha":1529,"x_min":36,"x_max":1493,"o":"m 456 574 l 456 574 q 557 574 618 552 q 678 530 705 493 q 731 456 731 408 l 731 408 q 731 380 722 356 q 712 331 692 312 q 672 292 638 277 l 638 277 l 637 283 q 688 265 714 230 q 740 194 740 144 l 740 144 q 740 71 694 30 q 647 -12 553 -12 l 553 -12 q 517 -12 491 -8 q 465 -4 444 0 l 444 0 l 462 100 q 475 96 491 94 q 507 91 528 91 l 528 91 q 568 91 584 107 q 600 122 600 155 l 600 155 q 600 170 595 183 q 589 196 576 206 l 576 206 q 564 217 544 223 q 524 228 486 228 l 486 228 l 471 228 l 471 330 l 483 330 q 524 330 542 335 q 559 340 573 352 l 573 352 q 581 360 586 371 q 590 381 590 395 l 590 395 q 590 431 557 450 q 523 469 447 469 l 447 469 q 388 469 337 456 q 285 442 246 414 q 207 386 186 345 q 164 304 164 248 l 164 248 l 164 233 q 164 176 174 144 q 184 112 202 100 q 220 87 241 87 l 241 87 q 259 87 272 96 q 284 104 291 122 q 297 139 297 167 l 297 167 q 297 208 283 228 q 268 248 234 248 l 234 248 q 202 248 171 229 q 140 209 109 170 l 109 170 l 92 264 q 118 294 163 320 q 208 346 268 346 l 268 346 q 321 346 358 325 q 394 304 413 266 q 432 227 432 174 l 432 174 q 432 115 410 74 q 388 32 347 10 q 305 -12 247 -12 l 247 -12 q 189 -12 141 14 q 93 40 65 95 q 36 149 36 234 l 36 234 q 36 317 66 380 q 96 443 152 487 q 207 530 285 552 q 363 574 456 574 z m 1281 574 l 1281 574 q 1349 574 1396 541 q 1443 508 1468 449 q 1493 390 1493 310 l 1493 310 q 1493 207 1460 135 q 1426 62 1361 25 q 1296 -12 1199 -12 l 1199 -12 q 1130 -12 1076 1 q 1022 13 973 38 l 973 38 l 1025 136 q 1065 117 1103 106 q 1140 94 1187 94 l 1187 94 q 1248 94 1285 120 q 1321 145 1337 193 q 1352 240 1352 306 l 1352 306 q 1352 392 1329 432 q 1306 471 1270 471 l 1270 471 q 1252 471 1241 464 q 1229 457 1223 444 l 1223 444 q 1216 432 1214 416 q 1211 399 1211 364 l 1211 364 l 1211 263 l 1072 263 l 1072 341 q 1072 385 1070 408 q 1067 430 1061 443 l 1061 443 q 1052 458 1039 465 q 1025 471 1011 471 l 1011 471 q 974 471 956 444 q 938 417 938 384 l 938 384 q 938 353 943 330 q 947 306 953 288 l 953 288 l 818 259 q 809 287 804 322 q 798 356 798 384 l 798 384 q 798 434 819 477 q 840 520 883 547 q 926 574 995 574 l 995 574 q 1048 574 1085 558 q 1121 541 1146 511 l 1146 511 l 1133 513 q 1161 545 1197 560 q 1232 574 1281 574 z"},"ക":{"ha":1057,"x_min":28,"x_max":1029,"o":"m 216 -12 l 216 -12 q 125 -12 77 34 q 28 80 28 160 l 28 160 q 28 212 52 249 q 76 285 115 307 l 115 307 q 139 320 168 329 q 196 338 237 342 q 278 346 341 346 l 341 346 l 728 346 q 816 346 869 336 q 921 325 958 299 l 958 299 q 990 278 1010 244 q 1029 210 1029 159 l 1029 159 q 1029 75 975 32 q 921 -12 841 -12 l 841 -12 q 818 -12 799 -9 q 779 -6 757 0 l 757 0 l 781 98 q 790 96 802 94 q 813 92 827 92 l 827 92 q 858 92 876 109 q 893 126 893 159 l 893 159 q 893 182 885 198 q 876 213 861 222 l 861 222 q 842 236 817 240 q 792 243 743 243 l 743 243 l 305 243 q 263 243 238 240 q 213 236 194 224 l 194 224 q 181 214 172 199 q 162 184 162 163 l 162 163 q 162 140 170 124 q 178 107 196 99 q 214 90 241 90 l 241 90 q 265 90 290 100 q 315 109 345 133 l 345 133 l 404 42 q 373 20 344 9 q 315 -3 284 -7 q 253 -12 216 -12 z m 531 574 l 531 574 q 620 574 675 538 q 729 501 755 435 q 781 369 781 283 l 781 283 q 781 186 752 120 q 722 54 667 21 q 611 -12 532 -12 l 532 -12 q 471 -12 424 9 q 376 29 346 64 l 346 64 q 312 105 296 162 q 280 218 280 285 l 280 285 q 280 422 347 498 q 413 574 531 574 z m 531 471 l 531 471 q 473 471 446 425 q 418 378 418 282 l 418 282 q 418 218 431 176 q 443 133 468 112 q 493 91 531 91 l 531 91 q 568 91 593 112 q 617 132 631 175 q 644 217 644 282 l 644 282 q 644 347 631 389 q 618 431 593 451 q 568 471 531 471 z"},"ഖ":{"ha":1016,"x_min":36,"x_max":957,"o":"m 384 574 l 384 574 q 463 574 520 552 q 577 530 614 492 q 651 453 670 402 q 688 351 688 292 l 688 292 q 688 231 673 185 q 658 138 633 99 q 607 59 575 20 l 575 20 l 569 0 l 515 0 l 459 60 q 483 91 503 123 q 522 154 534 194 q 546 233 546 284 l 546 284 q 546 343 526 385 q 505 426 466 448 q 427 469 372 469 l 372 469 q 308 469 261 440 q 214 410 189 359 q 164 307 164 242 l 164 242 l 164 236 q 164 177 175 145 q 185 112 203 100 q 220 87 242 87 l 242 87 q 260 87 273 96 q 285 105 292 122 q 298 139 298 166 l 298 166 q 298 207 283 228 q 268 248 235 248 l 235 248 q 202 248 172 229 q 141 209 110 170 l 110 170 l 93 264 q 118 294 164 320 q 209 346 268 346 l 268 346 q 322 346 359 325 q 395 304 414 266 q 432 227 432 174 l 432 174 q 432 115 410 74 q 388 32 348 10 q 307 -12 248 -12 l 248 -12 q 192 -12 144 14 q 96 40 66 96 q 36 152 36 245 l 36 245 q 36 346 80 420 q 124 493 203 534 q 281 574 384 574 z m 817 562 l 957 562 l 957 0 l 548 0 l 600 103 l 817 103 l 817 562 z"},"ഗ":{"ha":893,"x_min":36,"x_max":858,"o":"m 605 574 l 605 574 q 683 574 740 542 q 797 509 828 448 q 858 387 858 303 l 858 303 q 858 238 843 182 q 828 126 800 79 q 772 31 733 -13 l 733 -13 l 629 58 q 660 97 679 136 q 698 174 707 214 q 716 253 716 296 l 716 296 q 716 356 702 394 q 687 432 662 451 q 637 469 606 469 l 606 469 q 581 469 565 461 q 548 452 537 435 l 537 435 q 526 417 522 389 q 517 360 517 308 l 517 308 l 517 244 q 517 202 512 166 q 506 130 495 102 q 484 73 463 50 l 463 50 q 435 20 392 4 q 349 -12 290 -12 l 290 -12 q 211 -12 155 22 q 98 55 67 116 q 36 177 36 260 l 36 260 q 36 328 51 384 q 66 439 95 486 q 123 533 162 575 l 162 575 l 264 504 q 234 466 215 428 q 196 390 187 351 q 177 311 177 267 l 177 267 q 177 204 192 167 q 206 129 231 111 q 255 93 284 93 l 284 93 q 311 93 329 102 q 346 110 356 128 l 356 128 q 367 145 371 172 q 375 199 375 249 l 375 249 l 375 315 q 375 384 391 433 q 406 481 439 514 l 439 514 q 465 541 504 558 q 542 574 605 574 z"},"ഘ":{"ha":1341,"x_min":29,"x_max":1281,"o":"m 245 574 l 245 574 q 321 574 368 547 q 415 520 437 477 q 459 434 459 388 l 459 388 q 459 355 449 329 q 439 302 430 283 l 430 283 l 420 317 l 625 317 l 630 214 l 341 214 l 292 272 q 303 288 313 315 q 323 342 323 379 l 323 379 q 323 419 305 446 q 286 472 247 472 l 247 472 q 219 472 202 460 q 185 448 177 428 q 168 407 168 380 l 168 380 q 168 336 182 308 q 196 280 210 255 l 210 255 l 99 201 q 65 244 47 287 q 29 330 29 387 l 29 387 q 29 443 56 486 q 83 528 132 551 q 181 574 245 574 z m 1142 562 l 1281 562 l 1281 0 l 536 0 l 536 307 q 536 386 553 431 q 569 476 597 506 l 597 506 q 626 538 673 556 q 720 574 783 574 l 783 574 q 846 574 892 556 q 938 538 968 506 l 968 506 q 1002 468 1016 422 q 1030 376 1030 306 l 1030 306 l 1030 214 l 675 214 l 675 103 l 1142 103 l 1142 562 z m 783 471 l 783 471 q 724 471 700 432 q 675 392 675 327 l 675 327 l 675 317 l 890 317 l 890 326 q 890 394 865 433 q 839 471 783 471 z"},"ങ":{"ha":1075,"x_min":36,"x_max":1042,"o":"m 368 574 l 368 574 q 449 574 504 549 q 559 524 602 474 l 602 474 l 627 395 l 647 230 l 647 0 l 507 0 l 507 278 q 507 353 497 387 q 486 420 467 437 l 467 437 q 450 453 428 462 q 405 470 366 470 l 366 470 q 309 470 264 445 q 218 420 191 369 q 164 318 164 241 l 164 241 l 164 235 q 164 177 175 145 q 185 113 203 100 q 220 87 241 87 l 241 87 q 260 87 273 96 q 285 105 292 123 q 298 140 298 167 l 298 167 q 298 208 283 228 q 268 248 235 248 l 235 248 q 203 248 173 229 q 142 210 112 172 l 112 172 l 98 269 q 123 296 168 321 q 213 346 270 346 l 270 346 q 323 346 359 325 q 395 304 414 266 q 432 227 432 174 l 432 174 q 432 115 410 74 q 388 32 347 10 q 305 -12 247 -12 l 247 -12 q 192 -12 144 14 q 96 39 66 95 q 36 151 36 242 l 36 242 q 36 352 80 426 q 123 499 199 537 q 275 574 368 574 z m 815 574 l 815 574 q 887 574 936 553 q 984 532 1009 496 q 1033 460 1033 415 l 1033 415 q 1033 383 1024 358 q 1015 333 995 314 q 975 294 942 277 l 942 277 l 941 283 q 990 265 1016 230 q 1042 194 1042 144 l 1042 144 q 1042 70 996 29 q 949 -12 855 -12 l 855 -12 q 820 -12 794 -8 q 768 -5 749 -1 l 749 -1 l 766 100 q 782 96 797 94 q 811 91 830 91 l 830 91 q 869 91 886 106 q 902 121 902 155 l 902 155 q 902 170 897 183 q 891 196 879 206 l 879 206 q 866 217 847 223 q 828 228 794 228 l 794 228 l 765 228 l 765 330 l 791 330 q 820 330 841 335 q 862 340 874 353 l 874 353 q 883 361 888 374 q 893 386 893 401 l 893 401 q 893 436 871 454 q 849 471 809 471 l 809 471 q 768 471 740 460 q 711 448 692 424 l 692 424 q 676 406 666 382 q 656 357 652 323 q 647 289 647 239 l 647 239 l 647 124 l 523 129 l 520 267 l 535 387 q 554 444 591 486 q 628 527 684 551 q 740 574 815 574 z"},"ച":{"ha":927,"x_min":20,"x_max":868,"o":"m 728 562 l 868 562 l 868 0 l 20 0 l 20 103 l 430 103 l 360 87 q 381 101 399 130 q 416 159 416 200 l 416 200 q 416 239 401 262 q 385 284 351 284 l 351 284 q 315 284 298 261 q 280 238 280 200 l 280 200 q 280 189 281 181 q 281 172 282 165 l 282 165 l 148 154 q 147 165 145 181 q 142 196 142 212 l 142 212 q 142 292 196 339 q 249 386 350 386 l 350 386 q 411 386 450 370 q 489 353 512 328 q 534 302 543 271 q 552 240 552 210 l 552 210 q 552 184 547 162 q 541 140 530 121 q 519 102 505 84 l 505 84 l 480 103 l 728 103 l 728 562 z"},"ഛ":{"ha":1350,"x_min":20,"x_max":1314,"o":"m 350 386 l 350 386 q 411 386 450 370 q 489 353 512 328 q 534 302 543 271 q 552 240 552 210 l 552 210 q 552 184 547 162 q 541 140 530 121 q 519 102 505 84 l 505 84 l 480 103 l 730 103 l 794 0 l 20 0 l 20 103 l 430 103 l 360 87 q 381 101 399 130 q 416 159 416 200 l 416 200 q 416 239 401 262 q 385 284 351 284 l 351 284 q 315 284 298 261 q 280 238 280 200 l 280 200 q 280 189 281 181 q 281 172 282 165 l 282 165 l 148 154 q 147 165 145 181 q 142 196 142 212 l 142 212 q 142 292 196 339 q 249 386 350 386 z m 960 574 l 960 574 q 1049 574 1116 549 q 1182 523 1226 477 q 1270 430 1292 369 q 1314 307 1314 236 l 1314 236 q 1314 149 1288 94 q 1261 39 1212 14 q 1162 -12 1093 -12 l 1093 -12 q 1021 -12 977 18 q 932 47 912 97 q 891 146 891 206 l 891 206 q 891 299 938 354 q 984 409 1073 409 l 1073 409 q 1126 409 1166 382 q 1206 354 1231 311 q 1255 267 1262 216 l 1262 216 l 1209 216 q 1203 239 1190 261 q 1176 282 1156 297 q 1135 311 1108 311 l 1108 311 q 1065 311 1046 283 q 1027 254 1027 201 l 1027 201 q 1027 167 1035 142 q 1042 117 1059 104 q 1075 90 1100 90 l 1100 90 q 1124 90 1141 105 q 1158 120 1168 152 q 1177 184 1177 237 l 1177 237 q 1177 252 1176 271 q 1174 290 1171 307 l 1171 307 q 1171 312 1171 319 q 1170 326 1168 330 l 1168 330 q 1162 366 1137 398 q 1112 430 1072 450 q 1031 469 974 469 l 974 469 q 905 469 861 446 q 817 423 796 381 q 775 339 775 284 l 775 284 q 775 239 786 201 q 796 162 816 128 q 836 93 861 62 l 861 62 l 813 0 l 768 0 l 750 24 q 719 59 692 98 q 665 137 649 185 q 632 233 632 293 l 632 293 q 632 350 652 401 q 671 451 712 490 q 752 529 814 552 q 875 574 960 574 z"},"ജ":{"ha":924,"x_min":31,"x_max":887,"o":"m 296 574 l 296 574 q 352 574 393 565 q 433 555 464 537 q 494 519 519 494 l 519 494 l 480 499 q 516 540 562 557 q 607 574 662 574 l 662 574 q 744 574 793 544 q 842 514 865 468 q 887 421 887 368 l 887 368 q 887 326 876 294 q 865 261 844 236 q 822 211 788 192 l 788 192 l 600 161 l 493 153 q 468 149 432 148 q 395 147 363 147 l 363 147 l 239 147 q 207 147 192 144 q 176 141 167 134 l 167 134 q 163 130 161 125 q 158 120 158 113 l 158 113 q 158 103 163 96 q 168 88 180 84 q 191 80 209 80 l 209 80 q 239 80 264 84 q 289 87 318 96 q 347 105 386 119 l 386 119 q 418 130 451 140 q 483 150 513 159 q 542 167 567 174 q 592 180 609 183 l 609 183 q 632 190 646 199 q 659 207 668 215 q 677 223 688 228 q 699 233 715 233 l 715 233 q 751 233 785 222 q 818 211 841 185 q 863 159 863 113 l 863 113 q 863 53 822 21 q 781 -12 703 -12 l 703 -12 q 644 -12 609 8 q 573 27 557 57 q 541 87 541 119 l 541 119 q 541 158 560 185 q 578 212 596 222 l 596 222 l 711 218 q 702 212 688 199 q 674 186 663 169 q 651 151 651 126 l 651 126 q 651 96 663 84 q 675 71 699 71 l 699 71 q 726 71 738 83 q 749 95 749 114 l 749 114 q 749 129 744 139 q 738 149 727 154 q 716 159 700 159 l 700 159 q 679 159 662 150 q 644 141 622 122 l 622 122 l 619 144 q 608 132 587 116 q 566 99 537 82 q 507 65 468 49 l 468 49 q 414 28 372 15 q 330 1 290 -5 q 250 -12 199 -12 l 199 -12 q 152 -12 114 0 q 75 11 53 38 q 31 65 31 111 l 31 111 q 31 145 46 170 q 60 195 87 210 l 87 210 q 112 223 147 230 q 181 236 243 236 l 243 236 l 512 236 q 560 236 593 238 q 626 239 651 244 q 676 249 694 257 l 694 257 q 724 271 740 297 q 755 322 755 362 l 755 362 q 755 394 744 419 q 732 443 709 458 q 685 473 647 473 l 647 473 q 625 473 611 467 q 596 461 587 451 l 587 451 q 570 435 565 409 q 560 383 560 341 l 560 341 l 560 264 l 434 264 l 434 311 q 434 363 428 395 q 421 427 396 451 l 396 451 q 382 465 356 475 q 330 485 290 485 l 290 485 q 262 485 224 479 q 186 473 166 453 l 166 453 q 163 450 162 444 q 160 437 158 434 l 158 434 q 151 425 148 413 q 145 400 145 385 l 145 385 q 145 351 160 338 q 174 325 194 325 l 194 325 q 211 325 221 332 q 231 339 236 350 q 240 361 240 375 l 240 375 q 240 399 227 412 q 213 425 188 425 l 188 425 q 171 425 155 421 q 138 416 124 412 l 124 412 l 74 430 q 96 456 140 468 q 184 479 226 479 l 226 479 q 264 479 292 467 q 320 454 336 429 q 351 404 351 368 l 351 368 q 351 335 336 307 q 320 278 287 261 q 253 244 196 244 l 196 244 q 125 244 82 282 q 38 320 38 387 l 38 387 q 38 443 68 485 q 97 527 155 551 q 213 574 296 574 z"},"ഝ":{"ha":1669,"x_min":36,"x_max":1633,"o":"m 683 574 l 683 574 q 749 574 801 558 q 853 542 890 510 l 890 510 q 931 474 952 421 q 972 368 972 274 l 972 274 l 972 228 q 972 202 976 175 q 979 147 991 129 l 991 129 q 1001 112 1019 103 q 1037 93 1059 93 l 1059 93 q 1081 93 1097 100 q 1112 107 1122 118 l 1122 118 q 1136 136 1143 164 q 1149 191 1149 238 l 1149 238 l 1149 562 l 1289 562 l 1289 249 q 1289 193 1293 165 q 1297 137 1312 118 l 1312 118 q 1323 105 1341 99 q 1359 92 1374 92 l 1374 92 q 1407 92 1434 112 q 1461 131 1476 171 q 1491 210 1491 269 l 1491 269 q 1491 310 1482 349 q 1473 388 1454 427 q 1435 465 1404 503 l 1404 503 l 1507 574 q 1548 531 1576 484 q 1603 437 1618 382 q 1633 327 1633 260 l 1633 260 q 1633 182 1604 121 q 1574 59 1520 24 q 1466 -12 1389 -12 l 1389 -12 q 1331 -12 1288 6 q 1245 24 1208 64 l 1208 64 l 1222 65 q 1204 47 1182 29 q 1160 11 1129 0 q 1098 -12 1053 -12 l 1053 -12 q 994 -12 953 5 q 912 22 885 51 l 885 51 q 866 73 854 101 q 842 128 836 162 q 830 196 830 237 l 830 237 l 830 269 q 830 311 825 343 q 820 375 809 399 q 797 422 780 437 l 780 437 q 763 454 737 464 q 711 474 673 474 l 673 474 q 648 474 629 471 q 610 468 593 463 l 593 463 l 579 461 q 534 443 503 407 q 472 371 456 325 q 439 279 439 229 l 439 229 q 439 174 451 144 q 462 114 480 103 q 498 91 518 91 l 518 91 q 539 91 558 103 q 576 114 587 143 q 597 172 597 224 l 597 224 q 597 277 582 323 q 567 368 538 403 q 509 437 468 457 l 468 457 l 447 463 q 430 470 412 472 q 393 474 375 474 l 375 474 q 307 474 264 450 q 221 425 200 383 q 179 340 179 284 l 179 284 q 179 237 190 199 q 200 160 221 127 q 241 93 271 60 l 271 60 l 174 -12 q 134 26 103 68 q 72 110 54 164 q 36 217 36 286 l 36 286 q 36 338 53 389 q 69 440 107 482 q 144 524 206 549 q 268 574 361 574 l 361 574 q 415 574 458 564 q 500 553 537 533 l 537 533 l 560 522 q 643 476 690 401 q 737 326 737 226 l 737 226 q 737 147 712 94 q 687 40 638 14 q 589 -12 518 -12 l 518 -12 q 448 -12 399 16 q 350 44 325 97 q 299 150 299 227 l 299 227 q 299 289 320 343 q 341 396 381 440 q 420 484 478 517 l 478 517 l 510 535 q 552 556 594 565 q 635 574 683 574 z"},"ഞ":{"ha":1482,"x_min":36,"x_max":1446,"o":"m 368 574 l 368 574 q 449 574 504 549 q 559 524 603 474 l 603 474 l 584 456 l 647 206 l 647 0 l 507 0 l 507 278 q 507 353 497 387 q 486 420 467 437 l 467 437 q 450 453 428 462 q 405 470 366 470 l 366 470 q 309 470 264 445 q 218 420 191 369 q 164 318 164 241 l 164 241 l 164 235 q 164 177 175 145 q 185 112 203 100 q 220 87 241 87 l 241 87 q 260 87 273 96 q 285 105 292 123 q 298 140 298 167 l 298 167 q 298 208 283 228 q 268 248 235 248 l 235 248 q 203 248 173 229 q 142 210 112 172 l 112 172 l 98 269 q 123 296 168 321 q 213 346 270 346 l 270 346 q 323 346 359 325 q 395 304 414 266 q 432 227 432 174 l 432 174 q 432 115 410 74 q 388 32 347 10 q 305 -12 247 -12 l 247 -12 q 192 -12 144 14 q 96 39 66 95 q 36 151 36 242 l 36 242 q 36 352 80 426 q 123 499 199 537 q 275 574 368 574 z m 814 574 l 814 574 q 856 574 898 564 q 940 554 978 534 l 978 534 l 1001 522 q 1084 476 1132 401 q 1179 326 1179 226 l 1179 226 q 1179 147 1154 94 q 1129 40 1080 14 q 1030 -12 960 -12 l 960 -12 q 889 -12 841 16 q 792 44 767 97 q 741 150 741 227 l 741 227 q 741 289 763 343 q 785 396 826 440 q 866 484 923 517 l 923 517 l 955 532 q 990 551 1035 563 q 1079 574 1138 574 l 1138 574 q 1223 574 1283 550 q 1342 525 1378 484 q 1414 442 1430 390 q 1446 338 1446 283 l 1446 283 q 1446 215 1429 162 q 1411 109 1380 68 q 1348 26 1306 -12 l 1306 -12 l 1211 59 q 1238 90 1259 122 q 1279 153 1292 192 q 1304 231 1304 280 l 1304 280 q 1304 339 1284 382 q 1263 425 1224 450 q 1184 474 1127 474 l 1127 474 q 1098 474 1077 472 q 1055 469 1037 463 l 1037 463 l 1024 462 q 976 442 944 405 q 912 367 897 322 q 882 276 882 229 l 882 229 q 882 174 893 144 q 903 114 921 103 q 939 91 960 91 l 960 91 q 981 91 1000 103 q 1018 114 1029 143 q 1039 172 1039 224 l 1039 224 q 1039 277 1024 323 q 1008 369 979 403 q 950 437 910 457 l 910 457 l 889 463 q 878 467 867 470 q 856 472 843 473 q 829 474 810 474 l 810 474 q 769 474 744 463 q 718 452 703 440 l 703 440 q 670 414 659 373 q 647 332 647 257 l 647 257 l 647 25 l 518 25 l 518 288 l 563 473 q 589 500 624 524 q 658 547 704 561 q 750 574 814 574 z"},"ട":{"ha":559,"x_min":12,"x_max":540,"o":"m 275 574 l 275 574 q 357 574 424 558 q 490 541 540 515 l 540 515 l 483 422 q 436 445 390 457 q 344 468 283 468 l 283 468 q 241 468 216 459 q 190 450 179 435 q 167 420 167 402 l 167 402 q 167 387 171 377 q 174 367 183 359 l 183 359 q 198 346 221 342 q 244 338 280 338 l 280 338 l 304 338 q 379 338 425 322 q 471 305 498 274 l 498 274 q 516 254 525 228 q 533 201 533 167 l 533 167 q 533 115 505 75 q 477 34 421 11 q 364 -12 278 -12 l 278 -12 q 199 -12 134 4 q 68 20 12 49 l 12 49 l 68 144 q 100 128 130 117 q 160 106 195 100 q 229 94 270 94 l 270 94 q 314 94 341 104 q 367 113 380 129 q 392 145 392 166 l 392 166 q 392 181 387 194 q 381 207 368 215 l 368 215 q 355 223 338 228 q 320 232 279 232 l 279 232 l 266 232 q 194 232 141 248 q 87 263 60 295 l 60 295 q 44 314 35 340 q 26 366 26 398 l 26 398 q 26 447 54 488 q 81 528 137 551 q 192 574 275 574 z"},"ഠ":{"ha":658,"x_min":36,"x_max":622,"o":"m 328 574 l 328 574 q 419 574 485 539 q 551 503 587 438 q 622 372 622 280 l 622 280 q 622 190 587 125 q 552 59 487 24 q 421 -12 329 -12 l 329 -12 q 230 -12 165 27 q 100 65 68 132 q 36 199 36 282 l 36 282 q 36 373 71 438 q 106 503 172 539 q 237 574 328 574 z m 329 93 l 329 93 q 379 93 412 117 q 445 140 462 183 q 479 225 479 282 l 479 282 q 479 339 462 381 q 445 422 412 446 q 379 469 330 469 l 330 469 q 258 469 219 421 q 179 372 179 282 l 179 282 q 179 194 218 144 q 256 93 329 93 z"},"ഡ":{"ha":1219,"x_min":36,"x_max":1183,"o":"m 599 -12 l 599 -12 q 543 -12 503 4 q 463 20 434 50 l 434 50 q 414 72 401 99 q 388 125 382 160 q 375 195 375 240 l 375 240 l 375 309 q 375 362 371 390 q 367 417 356 434 l 356 434 q 346 453 329 461 q 311 469 284 469 l 284 469 q 255 469 231 452 q 206 434 192 396 q 177 358 177 295 l 177 295 q 177 252 187 212 q 196 172 215 134 q 234 96 264 57 l 264 57 l 162 -13 q 123 30 95 77 q 66 124 51 179 q 36 234 36 301 l 36 301 q 36 384 67 446 q 98 507 155 541 q 212 574 291 574 l 291 574 q 349 574 392 558 q 435 542 462 512 l 462 512 q 483 490 495 461 q 506 431 512 396 q 517 361 517 319 l 517 319 l 517 253 q 517 199 521 173 q 525 146 536 128 l 536 128 q 546 110 564 102 q 582 93 608 93 l 608 93 q 627 93 645 101 q 663 108 672 119 l 672 119 q 687 137 693 164 q 699 190 699 237 l 699 237 l 699 562 l 839 562 l 839 249 q 839 191 843 164 q 847 137 862 118 l 862 118 q 874 105 892 99 q 909 92 924 92 l 924 92 q 957 92 984 112 q 1011 131 1026 171 q 1041 210 1041 269 l 1041 269 q 1041 310 1032 349 q 1023 388 1004 427 q 985 465 954 503 l 954 503 l 1057 574 q 1098 531 1126 484 q 1153 436 1168 381 q 1183 326 1183 259 l 1183 259 q 1183 181 1154 120 q 1125 58 1071 23 q 1016 -12 939 -12 l 939 -12 q 882 -12 839 6 q 796 23 759 64 l 759 64 l 773 65 q 741 31 703 10 q 665 -12 599 -12 z"},"ഢ":{"ha":1346,"x_min":36,"x_max":1310,"o":"m 599 -12 l 599 -12 q 543 -12 503 4 q 463 20 434 50 l 434 50 q 414 72 401 99 q 388 125 382 161 q 375 196 375 241 l 375 241 l 375 309 q 375 362 371 390 q 367 417 356 435 l 356 435 q 346 453 329 461 q 311 469 284 469 l 284 469 q 255 469 231 452 q 206 435 192 397 q 177 359 177 296 l 177 296 q 177 253 186 213 q 195 173 214 135 q 233 97 264 58 l 264 58 l 162 -13 q 124 30 95 78 q 66 125 51 180 q 36 235 36 303 l 36 303 q 36 386 67 447 q 98 507 155 541 q 212 574 291 574 l 291 574 q 349 574 392 558 q 435 542 462 512 l 462 512 q 483 490 495 461 q 506 432 512 397 q 517 361 517 320 l 517 320 l 517 255 q 517 199 521 173 q 525 146 536 128 l 536 128 q 546 110 564 102 q 582 93 608 93 l 608 93 q 627 93 645 101 q 662 108 672 119 l 672 119 q 687 137 693 164 q 699 190 699 238 l 699 238 l 699 562 l 839 562 l 839 317 l 773 65 q 743 32 704 10 q 665 -12 599 -12 z m 1099 574 l 1099 574 q 1155 574 1203 549 q 1250 524 1280 469 q 1310 413 1310 321 l 1310 321 q 1310 212 1266 138 q 1222 63 1147 26 q 1072 -12 978 -12 l 978 -12 q 897 -12 842 13 q 786 38 743 88 l 743 88 l 715 284 l 714 506 l 839 506 l 839 285 q 839 211 850 177 q 860 142 879 125 l 879 125 q 896 110 919 101 q 942 92 980 92 l 980 92 q 1038 92 1084 118 q 1129 143 1156 194 q 1182 245 1182 321 l 1182 321 l 1182 329 q 1182 385 1172 417 q 1162 448 1144 462 q 1126 475 1104 475 l 1104 475 q 1086 475 1074 466 q 1061 457 1055 440 q 1048 422 1048 395 l 1048 395 q 1048 356 1063 335 q 1078 314 1110 314 l 1110 314 q 1143 314 1173 333 q 1203 352 1234 390 l 1234 390 l 1248 293 q 1223 266 1178 241 q 1132 216 1076 216 l 1076 216 q 1024 216 988 238 q 951 259 933 298 q 914 336 914 387 l 914 387 q 914 447 936 489 q 958 530 999 552 q 1040 574 1099 574 z"},"ണ":{"ha":1356,"x_min":36,"x_max":1320,"o":"m 368 574 l 368 574 q 449 574 504 549 q 559 524 603 474 l 603 474 l 566 493 q 598 535 644 555 q 689 574 741 574 l 741 574 q 800 574 839 555 q 878 535 910 498 l 910 498 l 896 499 q 933 538 975 556 q 1017 574 1075 574 l 1075 574 q 1152 574 1207 539 q 1262 504 1291 443 q 1320 382 1320 303 l 1320 303 q 1320 236 1304 180 q 1288 124 1261 77 q 1233 29 1196 -12 l 1196 -12 l 1091 59 q 1122 98 1141 137 q 1160 175 1169 214 q 1178 252 1178 293 l 1178 293 q 1178 353 1163 392 q 1147 431 1120 451 q 1093 470 1060 470 l 1060 470 q 1046 470 1029 463 q 1011 456 999 443 l 999 443 q 984 426 980 398 q 975 370 975 313 l 975 313 l 975 0 l 835 0 l 835 321 q 835 371 830 399 q 825 426 810 444 l 810 444 q 799 456 783 463 q 766 470 741 470 l 741 470 q 719 470 703 463 q 686 455 673 441 l 673 441 q 658 423 653 397 q 647 371 647 314 l 647 314 l 647 0 l 507 0 l 507 278 q 507 352 497 386 q 486 420 467 437 l 467 437 q 450 453 428 462 q 405 470 366 470 l 366 470 q 309 470 264 445 q 218 420 191 369 q 164 318 164 241 l 164 241 l 164 235 q 164 177 175 145 q 185 113 203 100 q 220 87 241 87 l 241 87 q 260 87 273 96 q 285 105 292 123 q 298 140 298 167 l 298 167 q 298 208 283 228 q 268 248 235 248 l 235 248 q 203 248 173 229 q 142 210 112 172 l 112 172 l 98 269 q 123 296 168 321 q 213 346 270 346 l 270 346 q 323 346 359 325 q 395 304 414 266 q 432 227 432 174 l 432 174 q 432 115 410 74 q 388 32 347 10 q 305 -12 247 -12 l 247 -12 q 192 -12 144 14 q 96 39 66 95 q 36 151 36 242 l 36 242 q 36 352 80 426 q 123 499 199 537 q 275 574 368 574 z"},"ത":{"ha":1040,"x_min":36,"x_max":1004,"o":"m 518 -12 l 518 -12 q 448 -12 399 16 q 350 44 325 97 q 299 150 299 227 l 299 227 q 299 289 321 343 q 343 396 384 440 q 424 484 481 517 l 481 517 l 513 532 q 548 551 592 563 q 635 574 696 574 l 696 574 q 781 574 841 550 q 900 525 936 484 q 972 442 988 390 q 1004 338 1004 283 l 1004 283 q 1004 215 987 162 q 969 109 938 68 q 906 26 864 -12 l 864 -12 l 769 59 q 796 90 817 122 q 837 153 850 192 q 862 231 862 280 l 862 280 q 862 339 842 382 q 821 425 782 450 q 743 474 685 474 l 685 474 q 656 474 635 471 q 613 468 595 463 l 595 463 l 582 462 q 535 442 503 405 q 471 368 455 322 q 439 276 439 229 l 439 229 q 439 174 451 144 q 462 114 480 103 q 498 91 518 91 l 518 91 q 539 91 558 103 q 576 114 587 143 q 597 172 597 224 l 597 224 q 597 277 582 323 q 567 368 538 403 q 509 437 470 457 l 470 457 l 448 463 q 431 469 413 472 q 394 474 375 474 l 375 474 q 307 474 264 450 q 221 425 200 383 q 179 340 179 284 l 179 284 q 179 237 190 199 q 200 160 221 127 q 241 93 271 60 l 271 60 l 174 -12 q 134 26 103 68 q 72 110 54 164 q 36 217 36 286 l 36 286 q 36 338 53 389 q 69 440 106 482 q 143 524 206 549 q 268 574 360 574 l 360 574 q 414 574 457 564 q 500 553 537 533 l 537 533 l 560 522 q 643 476 690 401 q 737 326 737 226 l 737 226 q 737 147 712 94 q 687 40 638 14 q 588 -12 518 -12 z"},"ഥ":{"ha":904,"x_min":60,"x_max":849,"o":"m 60 562 l 199 562 l 199 103 l 393 103 l 393 0 l 60 0 l 60 562 z m 591 574 l 591 574 q 655 574 702 558 q 748 541 779 512 l 779 512 q 818 477 834 427 q 849 376 849 295 l 849 295 l 849 0 l 332 0 l 332 286 q 332 346 339 388 q 346 429 362 458 q 377 487 401 511 l 401 511 q 432 540 480 557 q 527 574 591 574 z m 592 471 l 592 471 q 562 471 541 463 q 520 454 506 439 l 506 439 q 490 420 481 389 q 472 358 472 292 l 472 292 l 472 103 l 710 103 l 710 283 q 710 355 701 388 q 692 420 676 439 l 676 439 q 662 454 641 463 q 619 471 592 471 z"},"ദ":{"ha":654,"x_min":43,"x_max":621,"o":"m 390 574 l 390 574 q 463 574 513 553 q 562 532 587 496 q 612 460 612 415 l 612 415 q 612 368 592 335 q 571 302 520 277 l 520 277 l 520 283 q 569 265 595 230 q 621 194 621 144 l 621 144 q 621 71 573 30 q 524 -12 429 -12 l 429 -12 q 393 -12 363 -8 q 333 -5 309 0 l 309 0 l 327 100 q 347 97 365 94 q 383 91 402 91 l 402 91 q 445 91 463 107 q 481 122 481 155 l 481 155 q 481 170 476 183 q 470 196 457 206 l 457 206 q 445 217 426 223 q 407 228 371 228 l 371 228 l 331 228 l 331 330 l 367 330 q 398 330 419 335 q 439 340 453 353 l 453 353 q 462 361 467 374 q 472 386 472 402 l 472 402 q 472 436 450 454 q 428 471 384 471 l 384 471 q 318 471 274 440 q 229 408 207 352 q 184 295 184 219 l 184 219 q 184 168 190 117 q 196 66 208 22 l 208 22 l 77 -4 q 61 46 52 108 q 43 169 43 224 l 43 224 q 43 333 82 411 q 121 489 199 532 q 276 574 390 574 z"},"ധ":{"ha":908,"x_min":36,"x_max":872,"o":"m 618 -12 l 618 -12 q 577 -12 548 -4 q 519 4 496 21 q 473 38 448 61 l 448 61 l 461 61 q 426 23 384 6 q 341 -12 282 -12 l 282 -12 q 205 -12 150 23 q 94 58 65 120 q 36 181 36 259 l 36 259 q 36 325 51 381 q 65 436 93 484 q 121 532 161 574 l 161 574 l 265 503 q 234 465 215 427 q 196 389 187 350 q 177 311 177 269 l 177 269 q 177 208 194 169 q 210 130 238 111 q 266 92 298 92 l 298 92 q 321 92 336 100 q 351 107 360 117 l 360 117 q 374 133 379 160 q 384 186 384 230 l 384 230 l 384 562 l 524 562 l 524 228 q 524 180 529 156 q 534 132 547 116 l 547 116 q 556 106 571 99 q 586 92 610 92 l 610 92 q 639 92 667 110 q 695 127 713 166 q 731 204 731 266 l 731 266 q 731 308 722 348 q 713 388 694 427 q 675 466 644 504 l 644 504 l 747 574 q 787 530 815 483 q 842 435 857 381 q 872 327 872 263 l 872 263 q 872 184 843 122 q 814 60 757 24 q 700 -12 618 -12 z"},"ന":{"ha":908,"x_min":36,"x_max":872,"o":"m 290 574 l 290 574 q 332 574 361 566 q 389 558 413 542 q 436 526 460 501 l 460 501 l 447 501 q 483 539 525 557 q 567 574 626 574 l 626 574 q 704 574 759 539 q 814 504 843 443 q 872 382 872 303 l 872 303 q 872 237 858 182 q 843 126 815 79 q 787 31 747 -12 l 747 -12 l 643 59 q 674 98 694 136 q 713 174 722 213 q 731 251 731 293 l 731 293 q 731 354 715 393 q 698 432 671 451 q 644 470 610 470 l 610 470 q 587 470 573 463 q 558 455 549 445 l 549 445 q 535 429 530 403 q 524 376 524 332 l 524 332 l 524 0 l 385 0 l 385 334 q 385 382 380 406 q 374 430 361 446 l 361 446 q 353 456 338 463 q 323 470 299 470 l 299 470 q 269 470 241 453 q 213 435 195 397 q 177 358 177 296 l 177 296 q 177 254 186 214 q 195 174 214 136 q 233 97 264 58 l 264 58 l 162 -12 q 122 32 94 80 q 66 127 51 182 q 36 236 36 299 l 36 299 q 36 378 66 440 q 95 502 152 538 q 208 574 290 574 z"},"ഩ":{"ha":1031,"x_min":36,"x_max":995,"o":"m 368 574 l 368 574 q 449 574 504 549 q 559 524 603 474 l 603 474 l 565 493 q 598 535 644 555 q 689 574 748 574 l 748 574 q 826 574 882 539 q 937 504 966 443 q 995 382 995 303 l 995 303 q 995 235 980 180 q 965 124 937 77 q 909 30 870 -12 l 870 -12 l 766 59 q 797 98 817 136 q 836 174 845 213 q 854 251 854 293 l 854 293 q 854 354 838 393 q 821 432 794 451 q 766 470 733 470 l 733 470 q 710 470 696 463 q 681 455 671 445 l 671 445 q 657 429 652 403 q 647 376 647 333 l 647 333 l 647 0 l 507 0 l 507 277 q 507 352 497 386 q 486 420 467 437 l 467 437 q 450 453 428 462 q 405 470 366 470 l 366 470 q 309 470 264 445 q 218 420 191 369 q 164 318 164 241 l 164 241 l 164 235 q 164 177 175 145 q 185 113 203 100 q 220 87 241 87 l 241 87 q 260 87 273 96 q 285 105 292 123 q 298 140 298 167 l 298 167 q 298 208 283 228 q 268 248 235 248 l 235 248 q 203 248 173 229 q 142 210 112 172 l 112 172 l 98 269 q 123 296 168 321 q 213 346 270 346 l 270 346 q 323 346 359 325 q 395 304 414 266 q 432 227 432 174 l 432 174 q 432 115 410 74 q 388 32 347 10 q 305 -12 247 -12 l 247 -12 q 192 -12 144 14 q 96 39 66 95 q 36 151 36 242 l 36 242 q 36 352 80 426 q 123 499 199 537 q 275 574 368 574 z"},"പ":{"ha":892,"x_min":29,"x_max":832,"o":"m 245 362 l 245 362 q 321 362 368 335 q 415 307 437 264 q 459 221 459 175 l 459 175 q 459 142 449 115 q 438 88 430 69 l 430 69 l 419 103 l 693 103 l 693 562 l 832 562 l 832 0 l 341 0 l 292 59 q 303 76 313 103 q 323 129 323 165 l 323 165 q 323 206 305 233 q 286 260 247 260 l 247 260 q 219 260 202 248 q 185 236 177 215 q 168 193 168 167 l 168 167 q 168 122 182 94 q 196 66 211 41 l 211 41 l 99 -12 q 66 30 48 74 q 29 117 29 173 l 29 173 q 29 230 56 273 q 83 315 132 339 q 181 362 245 362 z"},"ഫ":{"ha":1145,"x_min":29,"x_max":1090,"o":"m 245 362 l 245 362 q 321 362 368 335 q 415 307 437 264 q 459 221 459 175 l 459 175 q 459 142 449 115 q 438 88 430 69 l 430 69 l 414 103 l 675 103 l 675 0 l 341 0 l 292 59 q 303 76 313 103 q 323 129 323 165 l 323 165 q 323 206 305 233 q 286 260 247 260 l 247 260 q 219 260 202 248 q 185 236 177 215 q 168 193 168 167 l 168 167 q 168 122 182 94 q 196 66 211 41 l 211 41 l 99 -12 q 66 30 48 74 q 29 117 29 173 l 29 173 q 29 230 56 273 q 83 315 132 339 q 181 362 245 362 z m 832 574 l 832 574 q 896 574 943 558 q 989 541 1020 512 l 1020 512 q 1059 477 1075 427 q 1090 376 1090 295 l 1090 295 l 1090 0 l 573 0 l 573 286 q 573 346 580 388 q 587 429 603 458 q 618 487 642 511 l 642 511 q 673 540 721 557 q 768 574 832 574 z m 833 471 l 833 471 q 803 471 782 463 q 761 454 747 439 l 747 439 q 731 420 722 389 q 713 358 713 292 l 713 292 l 713 103 l 950 103 l 950 283 q 950 355 942 388 q 933 420 917 439 l 917 439 q 903 454 882 463 q 860 471 833 471 z"},"ബ":{"ha":1317,"x_min":36,"x_max":1257,"o":"m 368 574 l 368 574 q 449 574 504 549 q 559 524 603 474 l 603 474 l 625 399 l 647 248 l 647 0 l 507 0 l 507 278 q 507 352 497 386 q 486 420 467 437 l 467 437 q 450 453 428 462 q 405 470 366 470 l 366 470 q 309 470 264 445 q 218 420 191 369 q 164 318 164 241 l 164 241 l 164 235 q 164 177 175 145 q 185 113 203 100 q 220 87 241 87 l 241 87 q 260 87 273 96 q 285 105 292 123 q 298 140 298 167 l 298 167 q 298 208 283 228 q 268 248 235 248 l 235 248 q 203 248 173 229 q 142 210 112 172 l 112 172 l 98 269 q 123 296 168 321 q 213 346 270 346 l 270 346 q 323 346 359 325 q 395 304 414 266 q 432 227 432 174 l 432 174 q 432 115 410 74 q 388 32 347 10 q 305 -12 247 -12 l 247 -12 q 192 -12 144 14 q 96 39 66 95 q 36 151 36 242 l 36 242 q 36 352 80 426 q 123 499 199 537 q 275 574 368 574 z m 1118 562 l 1257 562 l 1257 0 l 820 0 l 770 62 q 801 106 819 143 q 837 180 845 217 q 852 253 852 293 l 852 293 q 852 354 836 393 q 820 432 793 451 q 766 470 733 470 l 733 470 q 710 470 696 463 q 681 455 671 445 l 671 445 q 657 429 652 403 q 647 376 647 333 l 647 333 l 647 1 l 509 1 l 509 241 l 558 423 l 565 493 q 598 535 643 555 q 687 574 748 574 l 748 574 q 825 574 880 539 q 935 504 964 443 q 993 382 993 303 l 993 303 q 993 259 986 221 q 979 183 966 149 q 953 115 932 86 l 932 86 l 902 103 l 1118 103 l 1118 562 z"},"ഭ":{"ha":683,"x_min":43,"x_max":654,"o":"m 418 574 l 418 574 q 489 574 542 557 q 595 539 625 506 q 654 472 654 424 l 654 424 q 654 398 647 378 q 640 357 625 341 l 625 341 q 607 323 578 314 q 549 304 495 303 l 495 303 l 474 303 q 452 303 440 302 q 427 300 419 296 l 419 296 q 413 292 410 287 q 407 281 407 274 l 407 274 q 407 256 427 251 q 447 246 480 246 l 480 246 l 488 246 q 543 246 573 237 q 603 228 621 210 l 621 210 q 638 194 646 173 q 654 152 654 123 l 654 123 q 654 85 634 54 q 614 23 571 6 q 528 -12 457 -12 l 457 -12 q 420 -12 387 -8 q 354 -5 325 2 q 296 9 268 19 l 268 19 l 310 113 q 344 103 377 97 q 410 90 446 90 l 446 90 q 491 90 508 98 q 524 106 524 121 l 524 121 q 524 137 512 143 q 499 148 476 148 l 476 148 l 468 148 q 399 148 361 160 q 322 172 304 194 l 304 194 q 293 209 285 229 q 276 248 276 272 l 276 272 q 276 299 286 323 q 295 346 315 362 l 315 362 q 335 379 366 390 q 396 400 454 400 l 454 400 l 475 400 q 497 400 510 405 q 522 410 522 427 l 522 427 q 522 450 493 461 q 463 471 414 471 l 414 471 q 331 471 280 440 q 229 408 207 352 q 184 295 184 219 l 184 219 q 184 168 190 117 q 196 66 208 22 l 208 22 l 77 -4 q 61 46 52 108 q 43 169 43 224 l 43 224 q 43 332 84 410 q 125 488 209 531 q 292 574 418 574 z"},"മ":{"ha":752,"x_min":53,"x_max":699,"o":"m 367 574 l 367 574 q 455 574 516 554 q 577 534 617 499 l 617 499 q 646 474 664 441 q 682 408 691 364 q 699 319 699 259 l 699 259 l 699 0 l 53 0 l 53 261 q 53 320 62 364 q 70 408 88 442 q 105 475 134 499 l 134 499 q 173 534 228 554 q 283 574 367 574 z m 294 469 l 294 469 q 269 469 249 454 q 228 439 214 413 l 214 413 q 203 391 198 360 q 192 329 192 284 l 192 284 l 192 67 l 161 69 q 213 119 256 173 q 298 227 323 283 q 348 338 348 393 l 348 393 q 348 415 344 432 q 339 449 327 459 q 315 469 294 469 z m 486 368 l 486 368 q 486 320 469 275 q 452 229 422 184 q 392 139 351 92 l 351 92 l 326 99 q 348 101 374 102 q 400 103 411 103 l 411 103 l 560 103 l 560 267 q 560 329 548 369 q 536 408 512 435 q 487 461 446 478 l 446 478 l 449 481 q 462 464 474 436 q 486 408 486 368 z"},"യ":{"ha":1053,"x_min":37,"x_max":1015,"o":"m 678 -12 l 678 -12 q 619 -12 579 -2 q 538 8 490 32 l 490 32 q 485 36 477 41 q 468 46 463 50 l 463 50 q 405 87 372 136 q 338 184 325 236 q 311 288 311 337 l 311 337 q 311 373 316 402 q 321 430 331 453 l 331 453 l 345 467 q 365 509 396 533 q 427 556 464 565 q 501 574 537 574 l 537 574 q 643 574 701 516 q 759 457 759 339 l 759 339 q 759 244 718 172 q 676 100 607 53 l 607 53 q 598 47 591 42 q 584 37 573 33 l 573 33 q 532 10 485 -1 q 437 -12 378 -12 l 378 -12 q 293 -12 229 13 q 165 38 123 84 q 80 129 59 192 q 37 254 37 330 l 37 330 q 37 403 63 459 q 88 514 141 544 q 193 574 272 574 l 272 574 q 330 574 380 551 q 429 528 462 478 l 462 478 l 354 417 q 337 445 317 458 q 296 471 272 471 l 272 471 q 241 471 220 454 q 199 437 189 406 q 178 374 178 331 l 178 331 q 178 255 204 201 q 230 146 277 117 q 323 88 386 88 l 386 88 q 412 88 433 92 q 453 95 470 100 l 470 100 q 480 103 488 104 q 496 105 504 109 l 504 109 q 536 127 562 161 q 588 195 603 241 q 618 286 618 338 l 618 338 q 618 389 606 418 q 594 446 576 459 q 557 471 536 471 l 536 471 q 511 471 492 458 q 472 444 462 415 q 451 385 451 338 l 451 338 q 451 288 464 244 q 477 200 501 166 q 524 131 558 110 l 558 110 q 567 105 573 106 q 578 106 586 103 l 586 103 q 601 96 625 92 q 648 88 675 88 l 675 88 q 736 88 781 114 q 825 139 849 189 q 873 238 873 309 l 873 309 q 873 361 859 413 q 844 464 811 514 l 811 514 l 922 575 q 969 514 992 448 q 1015 382 1015 314 l 1015 314 q 1015 250 999 192 q 982 133 944 87 q 905 41 840 15 q 774 -12 678 -12 z"},"ര":{"ha":754,"x_min":36,"x_max":718,"o":"m 365 574 l 365 574 q 454 574 520 549 q 586 523 630 477 q 674 430 696 369 q 718 307 718 236 l 718 236 q 718 149 692 94 q 665 39 616 14 q 566 -12 497 -12 l 497 -12 q 425 -12 381 18 q 336 47 316 97 q 295 146 295 206 l 295 206 q 295 299 342 354 q 388 409 477 409 l 477 409 q 530 409 570 382 q 610 354 635 311 q 659 267 666 216 l 666 216 l 613 216 q 607 239 594 261 q 581 282 560 297 q 539 311 512 311 l 512 311 q 469 311 450 283 q 431 254 431 201 l 431 201 q 431 168 439 143 q 447 117 463 104 q 479 90 504 90 l 504 90 q 529 90 546 105 q 562 120 572 152 q 581 184 581 237 l 581 237 q 581 252 580 271 q 578 290 575 307 l 575 307 q 575 312 575 319 q 574 326 572 330 l 572 330 q 566 366 541 398 q 516 430 476 450 q 435 469 378 469 l 378 469 q 309 469 265 446 q 221 423 200 381 q 178 339 178 284 l 178 284 q 178 236 189 198 q 199 159 221 126 q 242 92 272 59 l 272 59 l 175 -12 q 135 25 104 69 q 72 112 54 166 q 36 219 36 286 l 36 286 q 36 343 55 395 q 74 447 113 488 q 152 528 215 551 q 278 574 365 574 z"},"റ":{"ha":682,"x_min":36,"x_max":646,"o":"m 342 574 l 342 574 q 425 574 483 550 q 541 526 577 485 q 613 444 630 392 q 646 340 646 284 l 646 284 q 646 218 628 165 q 610 112 579 69 q 547 25 505 -12 l 505 -12 l 408 59 q 435 90 456 122 q 477 154 490 193 q 502 232 502 284 l 502 284 q 502 339 482 381 q 461 423 426 446 q 390 469 344 469 l 344 469 q 294 469 258 447 q 221 424 201 383 q 180 341 180 285 l 180 285 q 180 237 191 199 q 201 160 222 127 q 243 93 274 59 l 274 59 l 175 -12 q 135 25 104 69 q 72 112 54 166 q 36 219 36 286 l 36 286 q 36 339 53 391 q 70 442 107 484 q 144 525 202 550 q 260 574 342 574 z"},"ല":{"ha":861,"x_min":56,"x_max":801,"o":"m 661 562 l 801 562 l 801 0 l 56 0 l 56 307 q 56 386 73 431 q 89 476 116 506 l 116 506 q 146 538 193 556 q 240 574 303 574 l 303 574 q 366 574 412 556 q 458 538 488 506 l 488 506 q 522 468 536 422 q 550 376 550 306 l 550 306 l 550 214 l 195 214 l 195 103 l 661 103 l 661 562 z m 303 471 l 303 471 q 244 471 220 432 q 195 392 195 327 l 195 327 l 195 317 l 410 317 l 410 326 q 410 394 385 433 q 359 471 303 471 z"},"ള":{"ha":725,"x_min":35,"x_max":693,"o":"m 380 470 l 380 470 q 337 470 299 465 q 261 459 231 446 q 200 432 181 413 q 161 393 154 366 l 154 366 q 154 363 155 361 q 156 358 156 355 l 156 355 q 153 347 152 336 q 150 324 150 305 l 150 305 q 150 264 166 241 q 182 217 212 217 l 212 217 q 239 217 252 235 q 264 253 264 281 l 264 281 q 264 300 258 314 q 252 327 241 335 q 229 343 211 343 l 211 343 q 185 343 165 336 q 145 329 122 317 l 122 317 l 46 326 q 66 350 98 374 q 129 397 167 413 q 204 428 240 428 l 240 428 q 295 428 328 408 q 361 388 377 355 q 392 322 392 282 l 392 282 q 392 240 374 204 q 356 168 317 147 q 278 125 216 125 l 216 125 q 163 125 123 148 q 82 171 59 215 q 35 258 35 318 l 35 318 q 35 368 56 415 q 76 461 119 497 q 162 533 231 554 q 299 574 396 574 l 396 574 q 491 574 556 555 q 620 535 653 498 q 685 460 685 406 l 685 406 q 685 364 663 334 q 641 304 599 286 q 556 268 496 260 l 496 260 l 449 310 l 449 333 l 456 333 q 479 333 495 336 q 511 339 524 349 l 524 349 q 534 355 539 367 q 544 378 544 393 l 544 393 q 544 419 529 436 q 514 453 478 462 q 442 470 380 470 z m 693 156 l 693 156 q 693 118 679 89 q 665 59 641 40 l 641 40 q 623 25 600 17 q 577 9 542 5 q 506 0 450 0 l 450 0 l 295 0 q 252 0 234 -2 q 215 -5 205 -10 l 205 -10 q 192 -16 187 -25 q 182 -35 182 -46 l 182 -46 q 182 -57 187 -66 q 191 -76 201 -83 l 201 -83 q 212 -89 231 -92 q 250 -96 292 -96 l 292 -96 l 672 -96 l 672 -201 l 278 -201 q 218 -201 174 -192 q 130 -183 104 -167 l 104 -167 q 73 -147 57 -118 q 41 -89 41 -52 l 41 -52 q 41 -14 57 18 q 73 49 107 70 l 107 70 q 125 81 147 88 q 168 95 200 99 q 232 103 279 103 l 279 103 l 435 103 q 475 103 497 107 q 519 110 531 120 l 531 120 q 542 127 548 139 q 553 151 553 166 l 553 166 q 553 183 547 197 q 541 210 527 217 l 527 217 q 517 224 502 227 q 486 230 455 230 l 455 230 l 449 230 l 449 323 l 563 303 q 628 279 661 244 q 693 208 693 156 z"},"ഴ":{"ha":680,"x_min":33,"x_max":648,"o":"m 257 413 l 257 413 q 257 486 307 530 q 357 574 450 574 l 450 574 q 522 574 566 548 q 609 521 629 480 q 648 439 648 393 l 648 393 q 648 325 616 272 q 583 218 521 187 q 458 155 368 155 l 368 155 l 333 155 q 235 155 168 186 q 101 216 67 272 q 33 327 33 402 l 33 402 q 33 444 47 488 q 60 532 89 575 l 89 575 l 202 523 q 189 493 181 466 q 173 438 173 404 l 173 404 q 173 351 194 317 q 215 282 252 266 q 289 249 333 249 l 333 249 l 367 249 q 413 249 445 268 q 477 286 494 320 q 510 354 510 398 l 510 398 q 510 430 496 454 q 482 477 449 477 l 449 477 q 432 477 419 468 q 405 459 399 443 q 392 427 392 405 l 392 405 q 392 371 405 339 q 417 307 433 276 q 449 244 462 209 q 474 174 474 135 l 474 135 q 474 98 459 65 q 443 31 405 10 q 366 -12 297 -12 l 297 -12 q 256 -12 213 -4 q 169 3 127 20 l 127 20 l 168 116 q 199 103 223 98 q 247 92 272 92 l 272 92 q 313 92 327 112 q 341 131 341 148 l 341 148 q 341 176 329 207 q 316 237 299 270 q 282 302 270 338 q 257 374 257 413 z"},"വ":{"ha":972,"x_min":36,"x_max":912,"o":"m 342 574 l 342 574 q 424 574 481 551 q 538 527 574 487 q 610 447 627 398 q 643 348 643 295 l 643 295 q 643 233 629 186 q 614 139 588 101 q 562 62 529 22 l 529 22 l 559 103 l 773 103 l 773 562 l 912 562 l 912 0 l 467 0 l 414 67 q 438 94 458 125 q 478 156 490 195 q 502 233 502 284 l 502 284 q 502 339 482 381 q 461 423 426 446 q 390 469 344 469 l 344 469 q 295 469 258 447 q 221 424 201 383 q 180 341 180 285 l 180 285 q 180 237 191 199 q 201 160 222 127 q 243 93 274 59 l 274 59 l 175 -13 q 135 25 104 69 q 72 112 54 166 q 36 219 36 286 l 36 286 q 36 339 53 391 q 70 442 107 484 q 144 525 202 550 q 260 574 342 574 z"},"ശ":{"ha":1051,"x_min":36,"x_max":1015,"o":"m 673 574 l 673 574 q 752 574 815 551 q 878 527 923 483 q 968 438 992 376 q 1015 314 1015 236 l 1015 236 q 1015 149 989 94 q 962 39 913 14 q 863 -12 794 -12 l 794 -12 q 722 -12 678 18 q 633 47 613 97 q 592 146 592 206 l 592 206 q 592 299 639 354 q 685 409 774 409 l 774 409 q 827 409 867 382 q 907 354 932 311 q 956 267 963 216 l 963 216 l 909 216 q 904 239 891 261 q 877 282 856 297 q 835 311 808 311 l 808 311 q 766 311 747 283 q 728 254 728 201 l 728 201 q 728 168 736 143 q 743 117 760 104 q 776 90 801 90 l 801 90 q 825 90 842 105 q 859 120 869 152 q 878 184 878 237 l 878 237 q 878 252 877 271 q 876 290 874 307 l 874 307 q 873 312 874 319 q 875 326 873 329 l 873 329 q 867 365 844 397 q 820 429 779 449 q 737 469 677 469 l 677 469 q 636 469 610 462 q 584 454 563 436 l 563 436 q 533 410 523 367 q 513 323 513 258 l 513 258 l 513 238 q 513 182 501 134 q 488 85 458 51 l 458 51 q 430 21 388 5 q 346 -12 286 -12 l 286 -12 q 208 -12 152 22 q 96 55 66 116 q 36 177 36 260 l 36 260 q 36 328 51 384 q 66 439 95 486 q 123 533 162 575 l 162 575 l 264 504 q 234 466 215 428 q 196 390 187 351 q 177 311 177 267 l 177 267 q 177 204 191 166 q 205 128 229 111 q 253 93 281 93 l 281 93 q 306 93 324 102 q 342 111 351 128 l 351 128 q 362 147 366 173 q 370 198 370 235 l 370 235 l 370 275 q 370 367 393 422 q 415 477 455 510 l 455 510 q 495 545 545 560 q 594 574 673 574 z"},"ഷ":{"ha":1177,"x_min":29,"x_max":1117,"o":"m 245 362 l 245 362 q 320 362 368 335 q 415 307 437 264 q 459 221 459 175 l 459 175 q 459 142 449 115 q 438 88 430 69 l 430 69 l 419 103 l 673 103 l 731 0 l 341 0 l 292 59 q 303 76 313 103 q 323 129 323 165 l 323 165 q 323 206 305 233 q 286 260 247 260 l 247 260 q 219 260 202 248 q 185 236 177 215 q 168 193 168 167 l 168 167 q 168 122 182 94 q 196 66 211 41 l 211 41 l 99 -12 q 66 30 48 74 q 29 117 29 174 l 29 174 q 29 230 56 273 q 83 315 132 339 q 181 362 245 362 z m 1117 0 l 659 0 l 659 395 q 659 420 656 434 q 653 448 648 457 l 648 457 q 644 464 636 468 q 628 472 617 472 l 617 472 q 595 472 581 457 q 567 441 567 409 l 567 409 q 567 388 574 370 q 581 351 604 340 q 626 328 671 328 l 671 328 l 711 328 q 764 328 805 349 q 846 369 878 404 q 909 438 934 480 q 958 521 979 562 l 979 562 l 1117 562 l 1117 0 z m 618 574 l 618 574 q 657 574 688 565 q 719 555 741 536 l 741 536 q 767 514 781 479 q 795 443 795 380 l 795 380 l 795 103 l 979 103 l 979 304 q 979 324 980 341 q 981 357 983 373 q 984 388 985 401 l 985 401 l 988 389 q 957 334 915 299 q 872 263 824 247 q 776 230 727 230 l 727 230 l 668 230 q 584 230 533 255 q 482 279 459 321 q 436 362 436 412 l 436 412 q 436 455 457 492 q 478 528 518 551 q 558 574 618 574 z"},"സ":{"ha":1219,"x_min":36,"x_max":1183,"o":"m 620 574 l 620 574 q 676 574 716 558 q 756 542 785 512 l 785 512 q 806 491 819 464 q 831 437 837 403 q 843 368 843 322 l 843 322 l 843 253 q 843 200 848 173 q 852 145 862 128 l 862 128 q 873 110 891 102 q 909 93 935 93 l 935 93 q 965 93 989 111 q 1013 129 1027 167 q 1041 204 1041 267 l 1041 267 q 1041 311 1032 351 q 1023 390 1004 428 q 985 466 955 504 l 955 504 l 1057 575 q 1096 533 1124 486 q 1152 439 1168 384 q 1183 328 1183 260 l 1183 260 q 1183 177 1152 116 q 1121 55 1064 22 q 1007 -12 929 -12 l 929 -12 q 870 -12 827 4 q 784 20 756 50 l 756 50 q 736 73 725 102 q 713 131 708 167 q 702 202 702 243 l 702 243 l 702 309 q 702 363 698 390 q 694 416 683 434 l 683 434 q 672 453 654 461 q 636 469 611 469 l 611 469 q 591 469 574 462 q 556 455 547 443 l 547 443 q 532 425 526 399 q 519 372 519 325 l 519 325 l 519 0 l 380 0 l 380 313 q 380 371 376 399 q 372 426 357 444 l 357 444 q 345 457 328 464 q 310 470 295 470 l 295 470 q 262 470 235 451 q 208 431 193 392 q 177 353 177 293 l 177 293 q 177 252 186 214 q 195 175 215 137 q 234 98 265 59 l 265 59 l 162 -12 q 121 32 93 80 q 65 127 51 183 q 36 238 36 303 l 36 303 q 36 382 65 443 q 93 504 148 539 q 203 574 280 574 l 280 574 q 338 574 380 557 q 422 539 460 498 l 460 498 l 445 497 q 478 531 516 553 q 554 574 620 574 z"},"ഹ":{"ha":1202,"x_min":29,"x_max":1166,"o":"m 245 362 l 245 362 q 320 362 368 335 q 415 307 437 264 q 459 221 459 175 l 459 175 q 459 142 449 115 q 438 88 430 69 l 430 69 l 419 103 l 665 103 l 732 0 l 341 0 l 292 59 q 303 76 313 103 q 323 129 323 165 l 323 165 q 323 206 305 233 q 286 260 247 260 l 247 260 q 219 260 202 248 q 185 236 177 215 q 168 193 168 167 l 168 167 q 168 122 182 94 q 196 66 211 41 l 211 41 l 99 -12 q 66 30 48 74 q 29 117 29 174 l 29 174 q 29 230 56 273 q 83 315 132 339 q 181 362 245 362 z m 863 574 l 863 574 q 945 574 1003 550 q 1061 526 1097 485 q 1133 444 1150 392 q 1166 340 1166 284 l 1166 284 q 1166 217 1148 164 q 1130 111 1098 68 q 1066 25 1025 -13 l 1025 -13 l 928 59 q 955 89 977 121 q 998 153 1010 193 q 1022 232 1022 284 l 1022 284 q 1022 339 1003 381 q 983 423 948 446 q 912 469 864 469 l 864 469 q 815 469 778 447 q 741 424 721 383 q 700 341 700 285 l 700 285 q 700 238 711 201 q 721 163 741 131 q 760 99 788 67 l 788 67 l 735 0 l 708 0 l 673 21 q 642 59 616 98 q 590 137 574 184 q 558 230 558 291 l 558 291 q 558 343 576 394 q 593 444 630 485 q 666 525 724 550 q 781 574 863 574 z"},"ഺ":{"ha":713,"x_min":19,"x_max":694,"o":"m 169 103 l 694 103 l 694 0 l 458 0 l 458 -202 l 319 -202 l 319 0 l 84 0 l 19 83 l 201 565 l 330 523 l 169 103 z"},"഻":{"ha":0,"x_min":-327,"x_max":-230,"o":"m -327 596 l -327 864 l -230 864 l -230 596 l -327 596 z"},"഼":{"ha":0,"x_min":-269,"x_max":17,"o":"m -269 728 l -269 728 q -269 787 -230 826 q -192 864 -127 864 l -127 864 q -61 864 -22 826 q 17 788 17 728 l 17 728 q 17 669 -21 631 q -60 592 -126 592 l -126 592 q -192 592 -230 631 q -269 669 -269 728 z m -174 730 l -174 730 q -174 705 -161 691 q -149 676 -126 676 l -126 676 q -102 676 -90 691 q -79 705 -79 729 l -79 729 q -79 752 -91 767 q -103 781 -127 781 l -127 781 q -149 781 -161 767 q -174 753 -174 730 z"},"ഽ":{"ha":488,"x_min":-81,"x_max":569,"o":"m 377 800 l 377 800 q 433 800 472 779 q 510 758 534 723 q 557 687 569 645 l 569 645 l 434 618 q 428 644 421 661 q 413 678 402 688 q 390 697 374 697 l 374 697 q 360 697 349 691 q 337 684 329 671 l 329 671 q 322 657 319 633 q 315 608 315 563 l 315 563 l 315 36 q 315 -54 304 -105 q 292 -157 257 -191 l 257 -191 q 234 -214 198 -229 q 162 -244 111 -244 l 111 -244 q 56 -244 18 -223 q -21 -202 -45 -166 q -69 -131 -81 -89 l -81 -89 l 54 -61 q 60 -87 68 -105 q 76 -123 88 -132 q 99 -141 114 -141 l 114 -141 q 132 -141 143 -133 q 154 -126 159 -114 l 159 -114 q 169 -96 171 -70 q 173 -45 173 -5 l 173 -5 l 173 519 q 173 606 185 660 q 197 713 232 747 l 232 747 q 256 771 291 786 q 326 800 377 800 z"},"ാ":{"ha":532,"x_min":19,"x_max":493,"o":"m 493 283 l 493 283 q 493 220 481 167 q 469 113 442 73 q 414 32 368 10 q 322 -12 251 -12 l 251 -12 q 190 -12 149 6 q 107 23 81 52 q 55 80 41 115 q 26 149 19 183 l 19 183 l 161 207 q 167 181 177 154 q 186 127 204 109 q 222 90 253 90 l 253 90 q 287 90 308 113 q 329 136 339 180 q 348 223 348 282 l 348 282 q 348 341 339 384 q 329 426 309 449 q 288 472 255 472 l 255 472 q 227 472 209 455 q 190 438 180 412 q 169 386 163 356 l 163 356 l 22 381 q 32 416 49 450 q 65 484 92 513 q 119 541 161 558 q 202 574 261 574 l 261 574 q 328 574 373 552 q 417 529 444 490 q 470 450 482 397 q 493 344 493 283 z"},"ി":{"ha":260,"x_min":-222,"x_max":200,"o":"m -17 851 l -17 851 q 25 851 60 842 q 95 832 120 813 l 120 813 q 151 791 168 762 q 185 732 193 687 q 200 641 200 569 l 200 569 l 200 0 l 60 0 l 60 542 q 60 589 58 624 q 56 659 51 684 q 45 708 34 721 l 34 721 q 25 734 13 741 q 1 748 -20 748 l -20 748 q -36 748 -51 740 q -66 732 -74 717 q -83 702 -83 679 l -83 679 q -83 669 -81 658 q -80 647 -78 639 l -78 639 l -215 623 q -218 635 -220 650 q -222 664 -222 681 l -222 681 q -222 737 -195 775 q -168 813 -122 832 q -76 851 -17 851 z"},"ീ":{"ha":260,"x_min":-265,"x_max":200,"o":"m -80 851 l -80 851 q -22 851 22 839 q 66 827 106 799 l 106 799 q 161 760 181 696 q 200 632 200 526 l 200 526 l 200 0 l 60 0 l 60 513 q 60 583 55 630 q 49 677 36 706 q 22 735 -3 752 l -3 752 q -22 761 -43 764 q -65 767 -93 767 l -93 767 q -110 767 -126 762 q -143 757 -153 745 q -163 733 -163 712 l -163 712 q -163 692 -152 680 q -142 667 -122 667 l -122 667 q -95 667 -85 682 q -76 697 -76 720 l -76 720 q -76 743 -88 763 q -101 782 -119 795 l -119 795 l 0 779 q 8 769 14 752 q 20 734 20 712 l 20 712 q 20 675 6 645 q -9 615 -40 598 q -71 580 -122 580 l -122 580 q -166 580 -198 595 q -231 610 -248 639 q -265 667 -265 709 l -265 709 q -265 750 -246 782 q -227 814 -186 833 q -145 851 -80 851 z"},"ു":{"ha":353,"x_min":-29,"x_max":360,"o":"m 166 -235 l 166 -235 q 76 -235 24 -184 q -29 -134 -29 -53 l -29 -53 q -29 2 -4 43 q 20 84 64 106 q 107 128 165 128 l 165 128 q 223 128 267 107 q 311 85 336 44 q 360 3 360 -53 l 360 -53 q 360 -108 336 -149 q 311 -190 268 -212 q 224 -235 166 -235 z m 166 -141 l 166 -141 q 197 -141 218 -119 q 238 -97 238 -53 l 238 -53 q 238 -10 219 12 q 199 33 166 33 l 166 33 q 134 33 114 12 q 94 -10 94 -54 l 94 -54 q 94 -97 115 -119 q 135 -141 166 -141 z m 133 574 l 133 574 q 195 574 231 551 q 267 527 282 489 q 297 451 297 407 l 297 407 q 297 331 280 259 q 262 186 237 99 l 237 99 l 107 113 q 129 190 142 257 q 155 324 155 380 l 155 380 q 155 419 142 444 q 129 469 93 469 l 93 469 q 79 469 67 468 q 54 466 42 462 l 42 462 l 21 561 q 42 566 70 570 q 97 574 133 574 z"},"ൂ":{"ha":353,"x_min":-29,"x_max":360,"o":"m 167 -235 l 167 -235 q 76 -235 24 -184 q -29 -134 -29 -53 l -29 -53 q -29 1 -4 43 q 20 84 64 106 q 107 128 165 128 l 165 128 q 223 128 268 107 q 312 85 336 45 q 360 4 360 -53 l 360 -53 q 360 -109 336 -149 q 311 -190 268 -212 q 224 -235 167 -235 z m 166 38 l 166 38 q 128 38 102 16 q 76 -6 76 -54 l 76 -54 q 76 -101 102 -123 q 127 -145 166 -145 l 166 -145 q 204 -145 230 -123 q 256 -101 256 -54 l 256 -54 q 256 -6 231 16 q 206 38 166 38 z m 167 -99 l 167 -99 q 113 -99 87 -67 q 61 -36 61 16 l 61 16 q 61 35 71 56 q 81 77 99 100 l 99 100 l 146 75 q 129 67 121 54 q 112 41 112 28 l 112 28 q 112 14 119 3 q 125 -8 138 -13 q 150 -19 168 -19 l 168 -19 q 185 -19 198 -13 q 210 -7 216 4 q 222 14 222 28 l 222 28 q 222 39 215 51 q 207 63 190 70 l 190 70 l 236 100 q 256 76 265 57 q 273 37 273 15 l 273 15 q 273 -14 263 -40 q 253 -66 230 -82 q 206 -99 167 -99 z m 134 574 l 134 574 q 195 574 231 551 q 267 527 282 489 q 297 451 297 407 l 297 407 q 297 331 280 259 q 262 186 237 99 l 237 99 l 107 113 q 129 190 142 257 q 155 324 155 380 l 155 380 q 155 419 142 444 q 129 469 93 469 l 93 469 q 80 469 67 468 q 54 466 42 462 l 42 462 l 21 561 q 42 566 70 570 q 97 574 134 574 z"},"ൃ":{"ha":274,"x_min":-143,"x_max":273,"o":"m 49 -334 l 49 -334 q -12 -334 -55 -315 q -98 -297 -120 -261 q -143 -226 -143 -174 l -143 -174 q -143 -107 -97 -65 q -52 -24 36 -24 l 36 -24 q 71 -24 107 -34 q 143 -45 191 -79 l 191 -79 l 159 -167 q 132 -144 106 -133 q 79 -123 46 -123 l 46 -123 q 19 -123 4 -136 q -12 -149 -12 -177 l -12 -177 q -12 -202 5 -216 q 21 -231 48 -231 l 48 -231 q 77 -231 97 -220 q 116 -209 127 -185 q 137 -162 137 -123 l 137 -123 q 137 -99 131 -69 q 125 -40 114 -5 q 102 30 88 69 l 88 69 q 67 124 52 185 q 37 245 37 306 l 37 306 q 37 378 57 442 q 76 506 105 562 l 105 562 l 249 562 q 224 513 208 472 q 191 431 184 393 q 176 355 176 314 l 176 314 q 176 263 188 216 q 200 169 220 110 l 220 110 q 237 63 249 24 q 260 -16 267 -51 q 273 -87 273 -122 l 273 -122 q 273 -197 242 -243 q 211 -290 160 -312 q 109 -334 49 -334 z"},"ൄ":{"ha":274,"x_min":-283,"x_max":272,"o":"m -30 -334 l -30 -334 q -111 -334 -168 -313 q -225 -292 -254 -252 q -283 -212 -283 -154 l -283 -154 q -283 -97 -248 -61 q -214 -26 -159 -26 l -159 -26 q -124 -26 -103 -40 q -83 -54 -68 -75 l -68 -75 l -80 -74 q -65 -52 -44 -39 q -23 -26 5 -26 l 5 -26 q 38 -26 58 -38 q 78 -50 89 -68 q 100 -87 104 -107 q 107 -128 107 -146 l 107 -146 l 107 -177 l 22 -177 l 22 -160 q 22 -140 18 -127 q 13 -115 -5 -115 l -5 -115 q -23 -115 -28 -127 q -33 -140 -33 -159 l -33 -159 l -33 -177 l -117 -177 l -117 -158 q -117 -139 -123 -127 q -129 -115 -143 -115 l -143 -115 q -158 -115 -166 -126 q -174 -137 -174 -154 l -174 -154 q -174 -192 -138 -211 q -103 -231 -30 -231 l -30 -231 q 43 -231 87 -204 q 131 -177 131 -116 l 131 -116 q 131 -90 126 -62 q 120 -35 110 -2 q 100 31 87 69 l 87 69 q 69 122 53 181 q 37 239 37 306 l 37 306 q 37 378 57 442 q 76 506 105 562 l 105 562 l 249 562 q 224 513 208 472 q 191 431 184 393 q 176 355 176 314 l 176 314 q 176 263 188 216 q 199 169 219 111 l 219 111 q 237 62 249 24 q 260 -14 266 -47 q 272 -81 272 -118 l 272 -118 q 272 -184 239 -232 q 206 -280 139 -307 q 71 -334 -30 -334 z"},"െ":{"ha":725,"x_min":36,"x_max":690,"o":"m 248 -12 l 248 -12 q 192 -12 144 14 q 96 40 66 95 q 36 150 36 241 l 36 241 q 36 316 60 377 q 84 437 130 482 q 175 526 240 550 q 304 574 385 574 l 385 574 q 461 574 519 552 q 576 529 614 490 q 652 450 671 398 q 690 345 690 283 l 690 283 q 690 216 672 163 q 653 110 621 68 q 589 25 548 -13 l 548 -13 l 453 59 q 480 89 502 121 q 523 153 535 192 q 547 230 547 282 l 547 282 q 547 338 528 381 q 508 423 469 446 q 430 469 371 469 l 371 469 q 309 469 262 439 q 215 408 190 356 q 164 303 164 237 l 164 237 q 164 178 175 146 q 185 113 203 100 q 220 87 241 87 l 241 87 q 260 87 273 96 q 285 105 292 122 q 298 139 298 166 l 298 166 q 298 207 283 228 q 268 248 235 248 l 235 248 q 203 248 173 229 q 142 210 112 172 l 112 172 l 98 269 q 123 296 167 321 q 211 346 268 346 l 268 346 q 322 346 358 325 q 394 304 413 266 q 432 227 432 174 l 432 174 q 432 115 410 74 q 388 33 348 11 q 307 -12 248 -12 z"},"േ":{"ha":607,"x_min":34,"x_max":572,"o":"m 363 -12 l 363 -12 q 294 -12 235 5 q 175 22 130 59 q 84 95 59 151 q 34 207 34 285 l 34 285 q 34 360 60 415 q 86 469 132 504 q 178 539 239 557 q 299 574 369 574 l 369 574 q 443 574 488 554 q 532 534 552 500 q 572 466 572 425 l 572 425 q 572 381 553 351 q 533 320 498 304 q 462 288 417 288 l 417 288 q 359 288 325 307 q 291 325 276 356 q 261 386 261 421 l 261 421 q 261 444 267 463 q 273 482 279 494 l 279 494 l 402 509 q 385 497 376 476 q 366 455 366 429 l 366 429 q 366 405 376 391 q 386 376 410 376 l 410 376 q 434 376 444 389 q 454 401 454 421 l 454 421 q 454 449 436 463 q 418 476 387 476 l 387 476 q 371 476 356 476 q 341 476 332 474 l 332 474 q 281 474 245 451 q 209 427 190 384 q 170 341 170 284 l 170 284 q 170 227 188 183 q 206 139 241 114 q 276 89 326 87 l 326 87 q 337 86 352 86 q 366 86 379 86 l 379 86 q 402 86 417 92 q 432 98 440 110 q 448 122 448 142 l 448 142 q 448 163 439 176 q 429 188 409 188 l 409 188 q 384 188 373 172 q 361 156 361 132 l 361 132 q 361 107 371 87 q 380 66 397 53 l 397 53 l 273 70 q 266 82 261 101 q 255 120 255 144 l 255 144 q 255 176 270 207 q 284 237 319 257 q 353 276 413 276 l 413 276 q 458 276 493 260 q 527 244 547 213 q 566 182 566 137 l 566 137 q 566 96 545 62 q 524 28 479 8 q 434 -12 363 -12 z"},"ൈ":{"ha":1451,"x_min":36,"x_max":1415,"o":"m 248 -12 l 248 -12 q 192 -12 144 14 q 96 40 66 95 q 36 150 36 241 l 36 241 q 36 316 60 377 q 84 437 130 482 q 175 526 240 550 q 304 574 385 574 l 385 574 q 461 574 519 552 q 576 529 614 490 q 652 450 671 398 q 690 345 690 283 l 690 283 q 690 216 672 163 q 653 110 621 68 q 589 25 548 -13 l 548 -13 l 453 59 q 480 89 502 121 q 523 153 535 192 q 547 230 547 282 l 547 282 q 547 338 528 381 q 508 423 469 446 q 430 469 371 469 l 371 469 q 309 469 262 439 q 215 408 190 356 q 164 303 164 237 l 164 237 q 164 178 175 146 q 185 113 203 100 q 220 87 241 87 l 241 87 q 260 87 273 96 q 285 105 292 122 q 298 139 298 166 l 298 166 q 298 207 283 228 q 268 248 235 248 l 235 248 q 203 248 173 229 q 142 210 112 172 l 112 172 l 98 269 q 123 296 167 321 q 211 346 268 346 l 268 346 q 322 346 358 325 q 394 304 413 266 q 432 227 432 174 l 432 174 q 432 115 410 74 q 388 33 348 11 q 307 -12 248 -12 z m 973 -12 l 973 -12 q 917 -12 869 14 q 821 40 791 95 q 761 150 761 241 l 761 241 q 761 316 785 377 q 809 437 855 482 q 900 526 965 550 q 1029 574 1110 574 l 1110 574 q 1186 574 1244 552 q 1301 529 1339 490 q 1377 450 1396 398 q 1415 345 1415 283 l 1415 283 q 1415 216 1397 163 q 1378 110 1346 68 q 1314 25 1273 -13 l 1273 -13 l 1178 59 q 1205 89 1227 121 q 1248 153 1260 192 q 1272 230 1272 282 l 1272 282 q 1272 338 1253 381 q 1233 423 1194 446 q 1155 469 1096 469 l 1096 469 q 1034 469 987 439 q 940 408 915 356 q 889 303 889 237 l 889 237 q 889 178 900 146 q 910 113 928 100 q 945 87 966 87 l 966 87 q 985 87 998 96 q 1010 105 1017 122 q 1023 139 1023 166 l 1023 166 q 1023 207 1008 228 q 993 248 960 248 l 960 248 q 928 248 898 229 q 867 210 837 172 l 837 172 l 823 269 q 848 296 892 321 q 936 346 993 346 l 993 346 q 1047 346 1083 325 q 1119 304 1138 266 q 1157 227 1157 174 l 1157 174 q 1157 115 1135 74 q 1113 33 1073 11 q 1032 -12 973 -12 z"},"ൊ":{"ha":1448,"x_min":36,"x_max":1409,"o":"m 248 -12 l 248 -12 q 192 -12 144 14 q 96 40 66 95 q 36 150 36 241 l 36 241 q 36 316 60 377 q 84 437 130 482 q 175 526 240 550 q 304 574 385 574 l 385 574 q 461 574 519 552 q 576 529 614 490 q 652 450 671 398 q 690 345 690 283 l 690 283 q 690 216 672 163 q 653 110 621 68 q 589 25 548 -13 l 548 -13 l 453 59 q 480 89 502 121 q 523 153 535 192 q 547 230 547 282 l 547 282 q 547 338 528 381 q 508 423 469 446 q 430 469 371 469 l 371 469 q 309 469 262 439 q 215 408 190 356 q 164 303 164 237 l 164 237 q 164 178 175 146 q 185 113 203 100 q 220 87 241 87 l 241 87 q 260 87 273 96 q 285 105 292 122 q 298 139 298 166 l 298 166 q 298 207 283 228 q 268 248 235 248 l 235 248 q 203 248 173 229 q 142 210 112 172 l 112 172 l 98 269 q 123 296 167 321 q 211 346 268 346 l 268 346 q 322 346 358 325 q 394 304 413 266 q 432 227 432 174 l 432 174 q 432 115 410 74 q 388 33 348 11 q 307 -12 248 -12 z m 830 214 l 830 214 q 794 214 771 234 q 748 254 748 296 l 748 296 q 748 340 771 360 q 794 379 830 379 l 830 379 q 866 379 889 360 q 912 341 912 296 l 912 296 q 912 254 889 234 q 866 214 830 214 z m 1409 283 l 1409 283 q 1409 220 1397 167 q 1385 113 1358 73 q 1330 32 1284 10 q 1238 -12 1167 -12 l 1167 -12 q 1106 -12 1065 6 q 1023 23 997 52 q 971 80 957 115 q 942 149 935 183 l 935 183 l 1077 207 q 1083 181 1093 154 q 1102 127 1120 109 q 1138 90 1169 90 l 1169 90 q 1203 90 1224 113 q 1245 136 1255 180 q 1264 223 1264 282 l 1264 282 q 1264 341 1255 384 q 1245 426 1225 449 q 1204 472 1171 472 l 1171 472 q 1143 472 1125 455 q 1106 438 1096 412 q 1085 386 1079 356 l 1079 356 l 938 381 q 948 416 965 450 q 981 484 1008 513 q 1035 541 1077 558 q 1118 574 1177 574 l 1177 574 q 1244 574 1289 552 q 1333 529 1360 490 q 1386 450 1398 397 q 1409 344 1409 283 z"},"ോ":{"ha":1309,"x_min":34,"x_max":1270,"o":"m 363 -12 l 363 -12 q 294 -12 235 5 q 175 22 130 59 q 84 95 59 151 q 34 207 34 285 l 34 285 q 34 360 60 415 q 86 469 132 504 q 178 539 239 557 q 299 574 369 574 l 369 574 q 443 574 488 554 q 532 534 552 500 q 572 466 572 425 l 572 425 q 572 381 553 351 q 533 320 498 304 q 462 288 417 288 l 417 288 q 359 288 325 307 q 291 325 276 356 q 261 386 261 421 l 261 421 q 261 444 267 463 q 273 482 279 494 l 279 494 l 402 509 q 385 497 376 476 q 366 455 366 429 l 366 429 q 366 405 376 391 q 386 376 410 376 l 410 376 q 434 376 444 389 q 454 401 454 421 l 454 421 q 454 449 436 463 q 418 476 387 476 l 387 476 q 371 476 356 476 q 341 476 332 474 l 332 474 q 281 474 245 451 q 209 427 190 384 q 170 341 170 284 l 170 284 q 170 227 188 183 q 206 139 241 114 q 276 89 326 87 l 326 87 q 337 86 352 86 q 366 86 379 86 l 379 86 q 402 86 417 92 q 432 98 440 110 q 448 122 448 142 l 448 142 q 448 163 439 176 q 429 188 409 188 l 409 188 q 384 188 373 172 q 361 156 361 132 l 361 132 q 361 107 371 87 q 380 66 397 53 l 397 53 l 273 70 q 266 82 261 101 q 255 120 255 144 l 255 144 q 255 176 270 207 q 284 237 319 257 q 353 276 413 276 l 413 276 q 458 276 493 260 q 527 244 547 213 q 566 182 566 137 l 566 137 q 566 96 545 62 q 524 28 479 8 q 434 -12 363 -12 z m 691 214 l 691 214 q 655 214 632 234 q 609 254 609 296 l 609 296 q 609 340 632 360 q 655 379 691 379 l 691 379 q 727 379 750 360 q 773 341 773 296 l 773 296 q 773 254 750 234 q 727 214 691 214 z m 1270 283 l 1270 283 q 1270 220 1258 167 q 1246 113 1219 73 q 1191 32 1145 10 q 1099 -12 1028 -12 l 1028 -12 q 967 -12 926 6 q 884 23 858 52 q 832 80 818 115 q 803 149 796 183 l 796 183 l 938 207 q 944 181 954 154 q 963 127 981 109 q 999 90 1030 90 l 1030 90 q 1064 90 1085 113 q 1106 136 1116 180 q 1125 223 1125 282 l 1125 282 q 1125 341 1116 384 q 1106 426 1086 449 q 1065 472 1032 472 l 1032 472 q 1004 472 986 455 q 967 438 957 412 q 946 386 940 356 l 940 356 l 799 381 q 809 416 826 450 q 842 484 869 513 q 896 541 938 558 q 979 574 1038 574 l 1038 574 q 1105 574 1150 552 q 1194 529 1221 490 q 1247 450 1259 397 q 1270 344 1270 283 z"},"ൌ":{"ha":1696,"x_min":36,"x_max":1661,"o":"m 248 -12 l 248 -12 q 192 -12 144 14 q 96 40 66 95 q 36 150 36 241 l 36 241 q 36 316 60 377 q 84 437 130 482 q 175 526 240 550 q 304 574 385 574 l 385 574 q 461 574 519 552 q 576 529 614 490 q 652 450 671 398 q 690 345 690 283 l 690 283 q 690 216 672 163 q 653 110 621 68 q 589 25 548 -13 l 548 -13 l 453 59 q 480 89 502 121 q 523 153 535 192 q 547 230 547 282 l 547 282 q 547 338 528 381 q 508 423 469 446 q 430 469 371 469 l 371 469 q 309 469 262 439 q 215 408 190 356 q 164 303 164 237 l 164 237 q 164 178 175 146 q 185 113 203 100 q 220 87 241 87 l 241 87 q 260 87 273 96 q 285 105 292 122 q 298 139 298 166 l 298 166 q 298 207 283 228 q 268 248 235 248 l 235 248 q 203 248 173 229 q 142 210 112 172 l 112 172 l 98 269 q 123 296 167 321 q 211 346 268 346 l 268 346 q 322 346 358 325 q 394 304 413 266 q 432 227 432 174 l 432 174 q 432 115 410 74 q 388 33 348 11 q 307 -12 248 -12 z m 830 214 l 830 214 q 794 214 771 234 q 748 254 748 296 l 748 296 q 748 340 771 360 q 794 379 830 379 l 830 379 q 866 379 889 360 q 912 341 912 296 l 912 296 q 912 254 889 234 q 866 214 830 214 z m 1449 574 l 1449 574 q 1517 574 1564 541 q 1611 508 1636 449 q 1661 390 1661 310 l 1661 310 q 1661 207 1628 135 q 1594 62 1529 25 q 1464 -12 1367 -12 l 1367 -12 q 1298 -12 1244 1 q 1190 13 1141 38 l 1141 38 l 1193 136 q 1233 117 1271 106 q 1308 94 1355 94 l 1355 94 q 1416 94 1453 120 q 1489 145 1505 193 q 1520 240 1520 306 l 1520 306 q 1520 392 1497 432 q 1474 471 1438 471 l 1438 471 q 1420 471 1409 464 q 1397 457 1391 444 l 1391 444 q 1384 432 1382 416 q 1379 399 1379 364 l 1379 364 l 1379 263 l 1240 263 l 1240 341 q 1240 385 1238 408 q 1235 430 1229 443 l 1229 443 q 1220 458 1207 465 q 1193 471 1179 471 l 1179 471 q 1142 471 1124 444 q 1106 417 1106 384 l 1106 384 q 1106 353 1111 330 q 1115 306 1121 288 l 1121 288 l 986 259 q 977 287 972 322 q 966 356 966 384 l 966 384 q 966 434 987 477 q 1008 520 1051 547 q 1094 574 1163 574 l 1163 574 q 1216 574 1253 558 q 1289 541 1314 511 l 1314 511 l 1301 513 q 1329 545 1365 560 q 1400 574 1449 574 z"},"്":{"ha":0,"x_min":-303,"x_max":84,"o":"m -110 596 l -110 596 q -177 596 -220 617 q -263 638 -283 675 q -303 712 -303 760 l -303 760 q -303 782 -299 800 q -296 818 -290 831 l -290 831 l -168 811 q -171 801 -173 789 q -175 777 -175 767 l -175 767 q -175 739 -166 723 q -158 706 -142 700 q -127 693 -107 693 l -107 693 q -87 693 -71 700 q -56 707 -47 723 q -39 738 -39 767 l -39 767 q -39 777 -40 789 q -42 801 -44 811 l -44 811 l 73 831 q 78 818 81 800 q 84 782 84 760 l 84 760 q 84 712 65 675 q 45 638 2 617 q -41 596 -110 596 z"},"ൎ":{"ha":0,"x_min":-346,"x_max":-193,"o":"m -346 829 l -193 829 l -202 637 l -337 637 l -346 829 z"},"൏":{"ha":1247,"x_min":41,"x_max":1210,"o":"m 590 574 l 590 574 q 671 574 726 549 q 781 524 825 474 l 825 474 l 787 493 q 820 535 865 555 q 910 574 965 574 l 965 574 q 1044 574 1099 535 q 1153 495 1182 420 q 1210 344 1210 239 l 1210 239 q 1210 83 1149 -25 q 1088 -133 959 -189 q 829 -245 624 -245 l 624 -245 q 485 -245 385 -219 q 285 -194 219 -148 q 152 -102 113 -41 q 74 19 58 90 q 41 160 41 236 l 41 236 q 41 311 61 391 q 80 471 118 551 l 118 551 l 232 506 q 201 439 187 370 q 172 300 172 234 l 172 234 q 172 174 184 119 q 195 64 223 18 q 251 -28 302 -62 q 353 -97 433 -115 q 512 -134 624 -134 l 624 -134 q 758 -134 845 -107 q 931 -80 980 -30 q 1028 19 1048 89 q 1068 159 1068 245 l 1068 245 q 1068 318 1054 368 q 1039 418 1014 444 q 988 470 954 470 l 954 470 q 932 470 918 463 q 903 455 893 445 l 893 445 q 879 429 874 403 q 869 376 869 333 l 869 333 l 869 0 l 729 0 l 729 277 q 729 352 719 386 q 708 420 689 437 l 689 437 q 672 453 650 462 q 627 470 588 470 l 588 470 q 530 470 485 445 q 439 420 413 369 q 386 318 386 241 l 386 241 l 386 235 q 386 177 396 145 q 406 113 424 100 q 442 87 463 87 l 463 87 q 482 87 495 96 q 507 105 514 123 q 520 140 520 167 l 520 167 q 520 208 505 228 q 490 248 457 248 l 457 248 q 425 248 395 229 q 364 210 334 172 l 334 172 l 320 269 q 345 296 390 321 q 435 346 492 346 l 492 346 q 544 346 580 325 q 616 304 635 266 q 654 227 654 174 l 654 174 q 654 115 632 74 q 610 32 569 10 q 527 -12 468 -12 l 468 -12 q 413 -12 365 14 q 317 39 288 95 q 258 151 258 242 l 258 242 q 258 352 302 426 q 345 499 421 537 q 496 574 590 574 z"},"ൔ":{"ha":650,"x_min":53,"x_max":633,"o":"m 195 800 l 195 800 q 233 800 263 789 q 292 778 306 761 l 306 761 q 328 737 337 706 q 345 675 345 629 l 345 629 l 345 524 q 345 482 350 445 q 354 407 373 370 q 392 332 435 288 l 435 288 l 457 264 q 487 230 532 188 q 576 146 633 95 l 633 95 l 585 0 l 53 0 l 53 261 q 53 320 62 364 q 70 408 88 442 q 105 475 133 499 l 133 499 q 171 533 225 553 q 278 573 341 573 l 341 573 q 403 573 452 550 q 501 527 530 483 q 558 438 558 374 l 558 374 q 558 317 531 274 q 503 230 468 194 l 468 194 l 441 174 q 420 154 398 135 q 375 116 352 99 q 329 81 305 65 l 305 65 l 320 99 q 346 101 368 103 q 390 104 397 104 l 397 104 l 415 104 q 421 104 436 103 q 451 102 469 102 q 486 101 499 98 l 499 98 l 508 62 q 472 94 441 123 q 410 151 384 176 l 384 176 l 351 212 q 295 266 267 316 q 238 366 229 417 q 219 467 219 524 l 219 524 l 219 613 q 219 644 214 659 q 209 673 201 681 l 201 681 q 195 688 183 692 q 171 696 154 696 l 154 696 q 138 696 123 694 q 108 691 98 688 l 98 688 l 73 783 q 96 791 127 796 q 158 800 195 800 z m 192 275 l 192 67 l 156 70 q 199 104 238 137 q 277 169 310 202 q 343 234 366 268 l 366 268 l 393 296 q 406 318 415 338 q 424 357 424 385 l 424 385 q 424 416 410 436 q 396 456 373 466 q 350 475 319 475 l 319 475 q 279 475 253 457 q 227 439 214 411 l 214 411 q 207 396 202 378 q 197 359 195 334 q 192 309 192 275 l 192 275 z"},"ൕ":{"ha":1052,"x_min":37,"x_max":1016,"o":"m 694 -12 l 694 -12 q 647 -12 613 -7 q 579 -3 551 7 q 523 16 491 32 l 491 32 q 485 36 477 41 q 468 46 463 50 l 463 50 q 405 87 372 136 q 339 184 325 236 q 310 288 310 337 l 310 337 q 310 373 316 402 q 321 430 331 453 l 331 453 l 345 467 q 365 509 396 533 q 427 556 464 565 q 501 574 537 574 l 537 574 q 643 574 701 516 q 759 457 759 339 l 759 339 q 759 276 741 223 q 722 170 688 128 q 654 85 607 53 l 607 53 q 598 47 591 42 q 584 37 573 33 l 573 33 q 532 10 485 -1 q 437 -12 378 -12 l 378 -12 q 293 -12 229 13 q 165 38 122 84 q 79 129 58 192 q 37 254 37 330 l 37 330 q 37 403 63 459 q 88 514 141 544 q 193 574 272 574 l 272 574 q 330 574 380 551 q 429 528 462 478 l 462 478 l 353 417 q 337 445 317 458 q 296 471 272 471 l 272 471 q 241 471 220 454 q 199 437 188 406 q 177 374 177 331 l 177 331 q 177 255 203 201 q 229 146 276 117 q 323 88 385 88 l 385 88 q 411 88 432 92 q 452 95 470 100 l 470 100 q 480 103 488 104 q 496 105 504 109 l 504 109 q 535 127 561 161 q 587 195 603 241 q 618 286 618 338 l 618 338 q 618 389 606 418 q 593 446 575 459 q 556 471 536 471 l 536 471 q 511 471 491 458 q 471 444 461 415 q 451 385 451 338 l 451 338 q 451 289 464 245 q 477 200 502 166 q 527 131 560 110 l 560 110 q 568 106 574 106 q 579 106 588 103 l 588 103 q 603 96 628 92 q 653 88 692 88 l 692 88 q 753 88 794 109 q 834 130 854 167 q 874 203 874 251 l 874 251 q 874 285 866 316 q 858 346 839 382 q 820 418 790 464 l 790 464 q 766 502 748 534 q 730 566 720 596 q 710 626 710 660 l 710 660 q 710 694 725 726 q 740 758 776 779 q 811 800 873 800 l 873 800 q 916 800 945 795 q 973 789 988 785 l 988 785 l 965 686 q 952 691 938 694 q 924 696 904 696 l 904 696 q 875 696 862 684 q 849 671 849 648 l 849 648 q 849 631 854 615 q 859 599 874 575 q 888 551 914 511 l 914 511 q 946 463 969 421 q 991 378 1004 337 q 1016 296 1016 251 l 1016 251 q 1016 213 1006 176 q 996 138 975 105 q 953 71 916 45 q 879 18 824 3 q 769 -12 694 -12 z"},"ൖ":{"ha":755,"x_min":33,"x_max":723,"o":"m 260 178 l 260 178 q 260 152 269 133 q 278 113 297 103 q 316 93 346 93 l 346 93 q 385 93 401 110 q 417 126 417 155 l 417 155 q 417 184 406 210 q 395 236 381 265 q 367 294 356 329 q 345 363 345 407 l 345 407 q 345 455 367 493 q 389 531 430 553 q 471 574 526 574 l 526 574 q 597 574 641 548 q 684 522 704 481 q 723 440 723 396 l 723 396 q 723 328 692 274 q 660 219 595 187 q 529 155 427 155 l 427 155 l 382 155 q 340 155 302 161 q 264 167 226 180 l 226 180 l 184 187 q 139 206 105 237 q 71 267 52 309 q 33 351 33 402 l 33 402 q 33 444 47 488 q 60 532 89 575 l 89 575 l 202 523 q 189 493 181 465 q 173 436 173 404 l 173 404 q 173 374 182 347 q 190 320 199 303 l 199 303 l 249 279 q 274 266 310 258 q 345 249 376 249 l 376 249 l 429 249 q 482 249 517 268 q 551 287 568 321 q 585 355 585 398 l 585 398 q 585 430 572 454 q 558 477 525 477 l 525 477 q 507 477 494 468 q 481 459 474 443 q 467 427 467 405 l 467 405 q 467 371 480 339 q 493 307 509 275 q 524 242 537 209 q 549 175 549 137 l 549 137 q 549 109 540 83 q 531 56 509 35 q 487 14 448 1 q 409 -12 347 -12 l 347 -12 q 284 -12 237 8 q 189 27 162 68 q 135 109 135 175 l 135 175 q 135 217 150 264 q 165 311 189 361 q 212 410 235 459 l 235 459 q 260 507 275 539 q 289 571 296 596 q 302 620 302 643 l 302 643 q 302 667 287 682 q 272 696 238 696 l 238 696 q 224 696 209 694 q 193 691 182 688 l 182 688 l 158 784 q 181 791 217 796 q 252 800 287 800 l 287 800 q 351 800 384 779 q 416 757 428 726 q 440 695 440 668 l 440 668 q 440 643 435 617 q 429 591 417 561 q 404 531 384 492 q 363 452 335 399 l 335 399 q 308 348 293 314 q 277 280 270 256 q 263 232 262 215 q 260 197 260 178 z"},"ൗ":{"ha":759,"x_min":29,"x_max":724,"o":"m 512 574 l 512 574 q 580 574 627 541 q 674 508 699 449 q 724 390 724 310 l 724 310 q 724 207 691 135 q 657 62 592 25 q 527 -12 430 -12 l 430 -12 q 361 -12 307 1 q 253 13 204 38 l 204 38 l 256 136 q 296 117 334 106 q 371 94 418 94 l 418 94 q 479 94 516 120 q 552 145 568 193 q 583 240 583 306 l 583 306 q 583 392 560 432 q 537 471 501 471 l 501 471 q 483 471 472 464 q 460 457 454 444 l 454 444 q 447 432 445 416 q 442 399 442 364 l 442 364 l 442 263 l 303 263 l 303 341 q 303 385 301 408 q 298 430 292 443 l 292 443 q 283 458 270 465 q 256 471 242 471 l 242 471 q 205 471 187 444 q 169 417 169 384 l 169 384 q 169 353 174 330 q 178 306 184 288 l 184 288 l 49 259 q 40 287 35 322 q 29 356 29 384 l 29 384 q 29 434 50 477 q 71 520 114 547 q 157 574 226 574 l 226 574 q 279 574 316 558 q 352 541 377 511 l 377 511 l 364 513 q 392 545 428 560 q 463 574 512 574 z"},"൘":{"ha":1221,"x_min":36,"x_max":1182,"o":"m 602 -12 l 602 -12 q 551 -12 510 7 q 469 26 433 67 l 433 67 l 448 62 q 414 25 378 7 q 341 -12 282 -12 l 282 -12 q 204 -12 149 24 q 93 60 65 123 q 36 185 36 263 l 36 263 q 36 327 51 381 q 66 435 94 483 q 122 530 161 574 l 161 574 l 264 503 q 233 466 214 427 q 195 388 186 348 q 177 308 177 266 l 177 266 q 177 204 194 166 q 211 127 237 110 q 263 92 291 92 l 291 92 q 313 92 327 100 q 341 107 350 117 l 350 117 q 362 134 367 157 q 371 179 371 224 l 371 224 l 371 562 l 510 562 l 510 247 q 510 193 517 166 q 523 139 537 121 l 537 121 q 549 107 566 100 q 583 92 602 92 l 602 92 q 625 92 641 100 q 656 107 667 119 l 667 119 q 681 137 687 165 q 692 192 692 239 l 692 239 l 692 562 l 832 562 l 832 254 l 765 63 q 734 26 696 7 q 658 -12 602 -12 z m 933 -12 l 933 -12 q 874 -12 832 7 q 790 25 754 65 l 754 65 l 702 247 l 702 552 l 832 552 l 832 249 q 832 193 837 165 q 841 136 857 117 l 857 117 q 868 105 884 99 q 899 92 921 92 l 921 92 q 956 92 983 117 q 1010 142 1025 193 q 1040 244 1040 320 l 1040 320 q 1040 390 1029 453 q 1017 516 990 569 q 963 622 917 661 q 871 699 803 720 q 735 740 639 740 l 639 740 q 572 740 510 732 q 448 723 402 712 l 402 712 l 384 819 q 430 830 469 837 q 508 843 549 846 q 590 849 642 849 l 642 849 q 764 849 855 823 q 946 796 1009 748 q 1071 699 1109 633 q 1147 567 1165 489 q 1182 411 1182 326 l 1182 326 q 1182 215 1153 140 q 1124 65 1068 27 q 1012 -12 933 -12 z"},"൙":{"ha":1141,"x_min":36,"x_max":1122,"o":"m 364 574 l 364 574 q 455 574 521 548 q 587 522 631 475 q 674 428 696 367 q 717 306 717 234 l 717 234 q 717 146 691 92 q 665 37 615 13 q 565 -12 497 -12 l 497 -12 q 425 -12 383 13 q 340 38 322 77 q 303 115 303 158 l 303 158 q 303 208 323 245 q 342 282 376 305 l 376 305 q 398 320 426 329 q 453 338 491 342 q 529 346 580 346 l 580 346 l 849 346 l 849 243 l 589 243 q 538 243 512 239 q 486 234 467 221 l 467 221 q 454 211 447 197 q 439 182 439 159 l 439 159 q 439 132 454 112 q 468 92 503 92 l 503 92 q 527 92 544 107 q 561 122 571 153 q 580 184 580 235 l 580 235 q 580 249 580 266 q 579 283 577 292 l 577 292 l 570 322 q 565 361 542 395 q 518 428 477 449 q 436 469 378 469 l 378 469 q 309 469 265 446 q 220 423 199 381 q 178 339 178 284 l 178 284 q 178 236 189 198 q 199 159 221 126 q 242 92 272 59 l 272 59 l 175 -12 q 135 25 104 69 q 72 112 54 166 q 36 219 36 286 l 36 286 q 36 343 55 395 q 74 447 113 488 q 152 528 215 551 q 278 574 364 574 z m 941 562 l 941 562 q 1006 562 1045 540 q 1084 518 1103 483 q 1122 448 1122 408 l 1122 408 q 1122 365 1106 335 q 1090 304 1063 283 l 1063 283 q 1044 269 1020 260 q 995 250 962 247 q 928 243 880 243 l 880 243 l 671 243 l 672 346 l 886 346 q 920 346 938 349 q 956 352 965 357 l 965 357 q 980 365 987 376 q 994 386 994 409 l 994 409 q 994 432 981 447 q 967 461 942 461 l 942 461 q 914 461 900 444 q 885 426 885 395 l 885 395 q 885 364 896 342 q 906 319 924 299 l 924 299 l 799 294 q 784 314 773 346 q 762 378 762 408 l 762 408 q 762 459 785 493 q 808 527 849 545 q 890 562 941 562 z"},"൚":{"ha":1080,"x_min":36,"x_max":1028,"o":"m 696 574 l 696 574 q 784 574 845 554 q 906 534 946 499 l 946 499 q 975 474 993 441 q 1011 408 1020 364 q 1028 319 1028 259 l 1028 259 l 1028 0 l 520 0 l 520 97 q 564 142 600 192 q 635 241 656 292 q 677 343 677 393 l 677 393 q 677 415 673 432 q 668 449 656 459 q 644 469 623 469 l 623 469 q 598 469 578 454 q 557 438 544 413 l 544 413 q 532 388 528 356 q 523 323 523 281 l 523 281 l 523 230 l 385 230 l 385 334 q 385 382 380 406 q 374 430 361 446 l 361 446 q 353 456 338 463 q 323 470 299 470 l 299 470 q 269 470 241 453 q 213 435 195 397 q 177 358 177 296 l 177 296 q 177 254 186 214 q 195 174 214 136 q 233 97 264 58 l 264 58 l 162 -12 q 122 32 94 80 q 66 127 51 182 q 36 236 36 299 l 36 299 q 36 378 66 440 q 95 502 152 538 q 209 574 293 574 l 293 574 q 336 574 368 565 q 400 555 427 536 q 453 516 477 487 l 477 487 l 446 479 q 474 509 511 530 q 547 551 593 563 q 639 574 696 574 z m 814 368 l 814 368 q 814 320 798 275 q 781 229 751 184 q 720 139 680 92 l 680 92 l 655 99 q 677 101 703 102 q 729 103 740 103 l 740 103 l 888 103 l 888 267 q 888 329 877 369 q 865 408 841 435 q 816 461 775 478 l 775 478 l 778 481 q 790 464 802 436 q 814 408 814 368 z"},"൛":{"ha":972,"x_min":60,"x_max":936,"o":"m 629 -12 l 629 -12 q 547 -12 490 12 q 433 35 398 75 q 362 115 346 165 q 329 214 329 267 l 329 267 q 329 329 344 376 q 358 423 384 462 q 410 500 443 540 l 443 540 l 412 459 l 199 459 l 199 0 l 60 0 l 60 562 l 505 562 l 558 495 q 534 468 515 437 q 495 406 483 368 q 470 330 470 278 l 470 278 q 470 223 491 181 q 511 139 546 116 q 581 93 627 93 l 627 93 q 677 93 714 116 q 751 138 772 180 q 792 221 792 277 l 792 277 q 792 326 781 364 q 770 402 750 436 q 729 470 698 503 l 698 503 l 797 575 q 838 538 869 495 q 900 451 918 398 q 936 344 936 276 l 936 276 q 936 223 919 172 q 902 121 865 79 q 828 37 770 13 q 711 -12 629 -12 z"},"൜":{"ha":1524,"x_min":36,"x_max":1488,"o":"m 919 574 l 919 574 q 979 574 1022 558 q 1064 541 1090 513 l 1090 513 q 1110 492 1123 463 q 1136 433 1142 398 q 1148 363 1148 322 l 1148 322 l 1148 253 q 1148 200 1153 173 q 1157 145 1167 128 l 1167 128 q 1178 110 1196 102 q 1214 93 1240 93 l 1240 93 q 1270 93 1294 111 q 1318 129 1332 167 q 1346 204 1346 267 l 1346 267 q 1346 311 1337 351 q 1328 390 1310 428 q 1291 466 1260 504 l 1260 504 l 1362 575 q 1401 533 1429 486 q 1457 438 1473 383 q 1488 328 1488 260 l 1488 260 q 1488 177 1457 116 q 1426 55 1369 22 q 1311 -12 1233 -12 l 1233 -12 q 1175 -12 1132 4 q 1089 20 1061 50 l 1061 50 q 1042 73 1030 102 q 1018 131 1013 167 q 1007 203 1007 243 l 1007 243 l 1007 309 q 1007 358 1003 386 q 998 414 989 433 l 989 433 q 980 451 963 460 q 946 469 920 469 l 920 469 q 895 469 878 461 q 861 452 852 434 l 852 434 q 842 416 838 390 q 833 363 833 314 l 833 314 l 833 240 q 833 199 827 164 q 821 129 808 100 q 795 71 775 49 l 775 49 q 749 21 707 5 q 665 -12 604 -12 l 604 -12 q 544 -12 502 5 q 460 21 433 49 l 433 49 q 413 72 401 101 q 388 129 382 165 q 375 200 375 240 l 375 240 l 375 309 q 375 364 371 391 q 367 417 356 434 l 356 434 q 346 453 329 461 q 311 469 284 469 l 284 469 q 255 469 231 452 q 206 434 192 396 q 177 358 177 295 l 177 295 q 177 252 187 212 q 196 172 215 134 q 234 96 264 57 l 264 57 l 162 -13 q 123 30 95 77 q 66 124 51 179 q 36 234 36 301 l 36 301 q 36 384 67 446 q 98 507 155 541 q 212 574 291 574 l 291 574 q 349 574 392 558 q 435 542 463 512 l 463 512 q 484 490 495 461 q 506 431 512 395 q 517 359 517 317 l 517 317 l 517 253 q 517 204 521 176 q 525 148 535 129 l 535 129 q 544 112 561 103 q 578 93 604 93 l 604 93 q 630 93 647 102 q 663 111 672 128 l 672 128 q 682 146 687 173 q 691 200 691 250 l 691 250 l 691 322 q 691 363 698 398 q 704 433 717 463 q 729 492 749 513 l 749 513 q 775 541 817 558 q 858 574 919 574 z"},"൝":{"ha":2004,"x_min":8,"x_max":1968,"o":"m 767 574 l 767 574 q 827 574 870 558 q 913 541 939 513 l 939 513 q 959 492 972 463 q 985 433 991 398 q 997 363 997 322 l 997 322 l 997 253 q 997 204 1001 176 q 1005 148 1015 129 l 1015 129 q 1024 112 1041 103 q 1058 93 1084 93 l 1084 93 q 1110 93 1127 102 q 1143 111 1152 128 l 1152 128 q 1162 146 1167 173 q 1171 200 1171 250 l 1171 250 l 1171 322 q 1171 363 1178 398 q 1184 433 1197 463 q 1209 492 1229 513 l 1229 513 q 1255 541 1297 558 q 1338 574 1399 574 l 1399 574 q 1459 574 1502 558 q 1545 541 1570 513 l 1570 513 q 1591 492 1604 463 q 1616 433 1623 398 q 1629 363 1629 322 l 1629 322 l 1629 253 q 1629 200 1633 173 q 1637 145 1648 128 l 1648 128 q 1658 110 1676 102 q 1694 93 1720 93 l 1720 93 q 1750 93 1774 111 q 1798 129 1813 167 q 1827 204 1827 267 l 1827 267 q 1827 311 1818 351 q 1808 390 1790 428 q 1771 466 1740 504 l 1740 504 l 1842 575 q 1881 533 1909 486 q 1937 438 1953 383 q 1968 328 1968 260 l 1968 260 q 1968 177 1937 116 q 1906 55 1849 22 q 1791 -12 1713 -12 l 1713 -12 q 1655 -12 1612 4 q 1569 20 1541 50 l 1541 50 q 1522 73 1510 102 q 1498 131 1493 167 q 1487 203 1487 243 l 1487 243 l 1487 309 q 1487 358 1483 386 q 1479 414 1469 433 l 1469 433 q 1460 451 1443 460 q 1426 469 1400 469 l 1400 469 q 1376 469 1359 461 q 1341 452 1332 434 l 1332 434 q 1322 416 1318 390 q 1313 363 1313 314 l 1313 314 l 1313 240 q 1313 199 1307 164 q 1301 129 1288 100 q 1275 71 1255 49 l 1255 49 q 1229 21 1188 5 q 1146 -12 1084 -12 l 1084 -12 q 1024 -12 982 5 q 940 21 914 49 l 914 49 q 893 72 881 101 q 868 129 862 165 q 856 200 856 240 l 856 240 l 856 313 q 856 362 852 388 q 847 414 838 433 l 838 433 q 828 451 811 460 q 794 469 769 469 l 769 469 q 744 469 727 461 q 710 452 701 434 l 701 434 q 690 416 686 390 q 682 363 682 314 l 682 314 l 682 242 q 682 170 667 125 q 652 80 623 49 l 623 49 q 594 19 555 4 q 516 -12 461 -12 l 461 -12 q 396 -12 358 9 q 319 29 288 62 l 288 62 l 300 64 q 275 37 248 20 q 220 3 191 -4 q 161 -12 128 -12 l 128 -12 q 91 -12 64 -5 q 36 2 8 17 l 8 17 l 47 115 q 65 106 86 99 q 106 92 132 92 l 132 92 q 147 92 166 98 q 184 104 196 118 l 196 118 q 212 137 216 164 q 220 191 220 249 l 220 249 l 220 556 l 360 562 l 360 239 q 360 191 367 164 q 373 137 387 119 l 387 119 q 396 108 414 101 q 431 93 451 93 l 451 93 q 475 93 493 101 q 510 109 521 126 l 521 126 q 532 144 536 170 q 540 196 540 249 l 540 249 l 540 322 q 540 363 546 398 q 552 433 565 463 q 577 492 598 513 l 598 513 q 623 541 665 558 q 706 574 767 574 z"},"൞":{"ha":1397,"x_min":36,"x_max":1370,"o":"m 364 574 l 364 574 q 455 574 521 548 q 587 522 631 475 q 674 428 696 367 q 717 306 717 234 l 717 234 q 717 146 691 92 q 665 37 615 13 q 565 -12 497 -12 l 497 -12 q 425 -12 383 13 q 340 38 322 77 q 303 115 303 158 l 303 158 q 303 208 323 245 q 342 282 376 305 l 376 305 q 398 320 426 329 q 453 338 491 342 q 529 346 580 346 l 580 346 l 644 346 l 644 243 l 589 243 q 538 243 512 239 q 486 234 467 221 l 467 221 q 454 211 447 197 q 439 182 439 159 l 439 159 q 439 132 454 112 q 468 92 503 92 l 503 92 q 527 92 544 107 q 561 122 571 153 q 580 184 580 235 l 580 235 q 580 249 580 266 q 579 283 577 292 l 577 292 l 570 322 q 565 361 542 395 q 518 428 477 449 q 436 469 378 469 l 378 469 q 309 469 265 446 q 220 423 199 381 q 178 339 178 284 l 178 284 q 178 236 189 198 q 199 159 221 126 q 242 92 272 59 l 272 59 l 175 -12 q 135 25 104 69 q 72 112 54 166 q 36 219 36 286 l 36 286 q 36 343 55 395 q 74 447 113 488 q 152 528 215 551 q 278 574 364 574 z m 1153 200 l 1153 200 q 1079 200 1032 228 q 984 256 962 299 q 940 342 940 387 l 940 387 q 940 421 950 448 q 959 474 969 493 l 969 493 l 980 459 l 796 459 l 848 496 q 861 480 871 455 q 880 429 880 399 l 880 399 q 880 345 855 311 q 830 276 785 260 q 739 243 678 243 l 678 243 l 639 243 l 639 346 l 677 346 q 708 346 727 352 q 745 358 754 372 q 762 385 762 406 l 762 406 q 762 421 756 438 q 750 455 742 466 l 742 466 l 776 562 l 1058 562 l 1107 503 q 1096 487 1086 460 q 1076 433 1076 397 l 1076 397 q 1076 357 1095 330 q 1113 302 1152 302 l 1152 302 q 1179 302 1197 314 q 1214 326 1223 348 q 1231 369 1231 395 l 1231 395 q 1231 440 1218 468 q 1204 495 1188 521 l 1188 521 l 1300 574 q 1333 533 1352 489 q 1370 445 1370 388 l 1370 388 q 1370 332 1343 290 q 1316 247 1268 224 q 1219 200 1153 200 z"},"ൟ":{"ha":1372,"x_min":26,"x_max":1346,"o":"m 26 270 l 26 270 q 26 329 65 368 q 104 406 169 406 l 169 406 q 234 406 274 368 q 313 330 313 270 l 313 270 q 313 211 275 173 q 236 134 169 134 l 169 134 q 103 134 65 172 q 26 210 26 270 z m 122 271 l 122 271 q 122 247 134 232 q 146 217 169 217 l 169 217 q 193 217 205 232 q 217 247 217 271 l 217 271 q 217 295 205 309 q 193 323 169 323 l 169 323 q 147 323 135 309 q 122 295 122 271 z m 1059 270 l 1059 270 q 1059 329 1098 368 q 1137 406 1202 406 l 1202 406 q 1267 406 1307 368 q 1346 330 1346 270 l 1346 270 q 1346 211 1308 173 q 1269 134 1202 134 l 1202 134 q 1137 134 1098 172 q 1059 210 1059 270 z m 1155 271 l 1155 271 q 1155 247 1167 232 q 1179 217 1202 217 l 1202 217 q 1226 217 1238 232 q 1250 247 1250 271 l 1250 271 q 1250 295 1238 309 q 1226 323 1202 323 l 1202 323 q 1180 323 1168 309 q 1155 295 1155 271 z m 674 574 l 674 574 q 764 574 830 549 q 896 523 940 477 q 983 430 1005 369 q 1027 307 1027 236 l 1027 236 q 1027 149 1001 94 q 975 39 926 14 q 876 -12 806 -12 l 806 -12 q 734 -12 690 18 q 646 47 626 97 q 605 146 605 206 l 605 206 q 605 299 652 354 q 698 409 787 409 l 787 409 q 840 409 880 382 q 919 354 944 311 q 969 267 975 216 l 975 216 l 923 216 q 917 239 904 261 q 890 282 870 297 q 849 311 821 311 l 821 311 q 779 311 760 283 q 741 254 741 201 l 741 201 q 741 168 749 143 q 756 117 772 104 q 788 90 814 90 l 814 90 q 838 90 855 105 q 872 120 882 152 q 891 184 891 237 l 891 237 q 891 252 890 271 q 888 290 885 307 l 885 307 q 884 312 884 319 q 883 326 882 330 l 882 330 q 875 366 851 398 q 826 430 785 450 q 744 469 688 469 l 688 469 q 619 469 575 446 q 530 423 509 381 q 488 339 488 284 l 488 284 q 488 236 499 198 q 509 159 530 126 q 551 92 581 59 l 581 59 l 485 -12 q 445 25 414 69 q 382 112 364 166 q 346 219 346 286 l 346 286 q 346 343 365 395 q 383 447 423 488 q 462 528 525 551 q 588 574 674 574 z"},"ൠ":{"ha":932,"x_min":33,"x_max":899,"o":"m 686 574 l 686 574 q 784 574 842 517 q 899 459 899 345 l 899 345 q 899 275 871 222 q 843 168 794 133 l 794 133 q 755 102 705 85 q 654 68 596 64 l 596 64 l 534 82 l 386 79 l 327 65 q 270 70 228 86 q 185 101 149 128 l 149 128 q 94 164 64 219 q 33 273 33 346 l 33 346 q 33 417 60 468 q 87 519 137 547 q 186 574 252 574 l 252 574 q 315 574 357 551 q 399 528 420 488 q 441 448 441 400 l 441 400 q 441 342 420 304 q 398 265 358 246 q 317 227 261 227 l 261 227 q 220 227 184 243 q 147 258 119 279 q 91 300 75 318 l 75 318 l 108 420 q 125 394 142 372 q 158 350 180 336 q 202 321 232 321 l 232 321 q 265 321 286 341 q 306 360 306 403 l 306 403 q 306 438 289 457 q 271 476 244 476 l 244 476 q 218 476 200 463 q 182 449 173 424 q 163 398 163 361 l 163 361 q 163 341 166 323 q 169 304 173 288 l 173 288 l 166 269 q 179 237 208 217 q 237 197 275 186 q 313 175 353 171 q 392 166 426 166 l 426 166 l 508 166 q 537 166 576 170 q 614 173 654 184 q 693 194 724 215 q 755 235 768 269 l 768 269 l 761 288 q 765 303 768 321 q 770 339 770 361 l 770 361 q 770 398 761 424 q 751 449 734 463 q 717 476 691 476 l 691 476 q 663 476 646 457 q 628 437 628 400 l 628 400 q 628 359 648 340 q 667 321 700 321 l 700 321 q 731 321 753 336 q 775 350 792 372 q 809 394 825 421 l 825 421 l 858 318 q 843 301 815 280 q 787 258 751 243 q 714 227 672 227 l 672 227 q 617 227 577 246 q 537 265 515 303 q 493 341 493 397 l 493 397 q 493 448 516 488 q 538 528 581 551 q 624 574 686 574 z m 468 -249 l 468 -249 q 350 -249 269 -228 q 187 -208 145 -162 q 103 -117 103 -44 l 103 -44 q 103 4 127 38 q 150 71 193 91 q 235 111 290 121 q 345 130 408 130 l 408 130 l 521 130 q 588 130 644 121 q 700 111 742 91 q 784 71 807 37 q 830 3 830 -46 l 830 -46 q 830 -109 793 -155 q 756 -201 676 -225 q 596 -249 468 -249 z m 468 -147 l 468 -147 q 554 -147 603 -135 q 652 -123 674 -99 q 695 -75 695 -41 l 695 -41 q 695 -7 677 14 q 658 35 627 47 q 595 58 557 63 q 519 67 479 67 l 479 67 l 457 67 q 398 67 348 58 q 298 48 268 25 q 238 2 238 -40 l 238 -40 q 238 -77 260 -100 q 282 -124 333 -135 q 383 -147 468 -147 z m 544 40 l 544 40 q 576 40 597 28 q 617 15 627 -3 q 637 -21 641 -42 q 644 -63 644 -80 l 644 -80 l 644 -111 l 559 -111 l 559 -93 q 559 -74 556 -62 q 552 -50 535 -50 l 535 -50 q 517 -50 513 -62 q 509 -75 509 -92 l 509 -92 l 509 -111 l 424 -111 l 424 -92 q 424 -73 420 -61 q 415 -50 399 -50 l 399 -50 q 381 -50 378 -63 q 374 -76 374 -93 l 374 -93 l 374 -111 l 289 -111 l 289 -80 q 289 -63 293 -42 q 296 -22 306 -3 q 316 15 337 28 q 357 40 389 40 l 389 40 q 418 40 435 30 q 452 19 466 4 l 466 4 q 482 22 501 31 q 519 40 544 40 z"},"ൡ":{"ha":1346,"x_min":36,"x_max":1322,"o":"m 368 574 l 368 574 q 449 574 504 549 q 559 524 602 475 l 602 475 l 615 392 l 647 228 l 647 0 l 507 0 l 507 278 q 507 353 497 387 q 486 420 467 437 l 467 437 q 450 453 428 462 q 405 470 366 470 l 366 470 q 309 470 264 445 q 218 420 191 369 q 164 318 164 241 l 164 241 l 164 235 q 164 177 175 145 q 185 113 203 101 q 220 88 241 88 l 241 88 q 260 88 273 97 q 285 105 292 123 q 298 140 298 167 l 298 167 q 298 208 283 228 q 268 248 235 248 l 235 248 q 203 248 173 229 q 142 210 112 172 l 112 172 l 98 269 q 123 296 168 321 q 213 346 270 346 l 270 346 q 323 346 359 325 q 395 304 414 266 q 432 227 432 174 l 432 174 q 432 115 410 74 q 388 32 347 10 q 305 -12 247 -12 l 247 -12 q 192 -12 144 14 q 96 39 66 95 q 36 151 36 242 l 36 242 q 36 352 80 426 q 123 499 199 537 q 275 574 368 574 z m 807 574 l 807 574 q 897 574 963 543 q 1028 511 1067 459 q 1105 406 1118 343 l 1118 343 q 1124 317 1127 289 q 1129 260 1129 230 l 1129 230 q 1129 147 1104 93 q 1079 39 1031 14 q 983 -12 913 -12 l 913 -12 q 846 -12 802 14 q 758 39 737 83 q 715 126 715 182 l 715 182 q 715 287 787 344 q 858 400 982 400 l 982 400 q 1006 400 1022 400 q 1038 399 1049 398 l 1049 398 l 1080 394 q 1156 382 1210 341 q 1264 300 1293 239 q 1322 177 1322 99 l 1322 99 q 1322 39 1305 -15 q 1288 -70 1251 -111 q 1213 -153 1153 -177 q 1092 -201 1007 -201 l 1007 -201 q 962 -201 923 -195 q 883 -189 848 -177 l 848 -177 l 887 -77 q 915 -87 941 -91 q 967 -95 1003 -95 l 1003 -95 q 1059 -95 1095 -77 q 1131 -60 1152 -32 q 1172 -4 1181 31 q 1189 66 1189 100 l 1189 100 q 1189 149 1178 184 q 1166 219 1145 245 q 1123 270 1094 285 l 1094 285 l 1055 293 q 1041 297 1024 299 q 1006 301 989 301 l 989 301 q 942 301 911 286 q 880 271 866 244 q 851 217 851 180 l 851 180 q 851 153 859 133 q 866 113 881 102 q 896 90 919 90 l 919 90 q 958 90 978 122 q 997 153 997 231 l 997 231 q 997 267 991 300 q 985 333 974 360 l 974 360 l 968 380 q 953 409 928 429 q 903 449 872 459 q 840 469 802 469 l 802 469 q 773 469 749 464 q 724 458 701 440 l 701 440 q 685 427 673 408 q 660 389 654 354 q 647 319 647 258 l 647 258 l 647 211 l 561 469 q 588 500 622 524 q 655 548 700 561 q 745 574 807 574 z"},"ൢ":{"ha":0,"x_min":-856,"x_max":-30,"o":"m -616 28 l -616 28 q -564 28 -512 12 q -461 -4 -431 -53 l -431 -53 l -386 -157 l -386 -333 l -500 -333 l -500 -192 q -500 -150 -507 -123 q -514 -97 -532 -81 l -532 -81 q -546 -69 -568 -62 q -590 -56 -623 -56 l -623 -56 q -647 -56 -672 -62 q -698 -69 -718 -83 q -739 -98 -749 -127 l -749 -127 q -753 -140 -754 -152 q -755 -164 -755 -186 l -755 -186 q -755 -228 -738 -243 q -722 -258 -705 -258 l -705 -258 q -685 -258 -672 -247 q -660 -236 -660 -210 l -660 -210 q -660 -186 -672 -174 q -684 -163 -709 -163 l -709 -163 q -736 -163 -758 -178 q -780 -194 -804 -217 l -804 -217 l -827 -153 q -794 -124 -757 -104 q -721 -85 -684 -85 l -684 -85 q -619 -85 -589 -118 q -559 -151 -559 -206 l -559 -206 q -559 -266 -593 -301 q -628 -337 -701 -337 l -701 -337 q -773 -337 -814 -293 q -856 -250 -856 -174 l -856 -174 q -856 -109 -822 -64 q -789 -19 -734 5 q -680 28 -616 28 z m -269 28 l -269 28 q -206 28 -152 5 q -98 -18 -64 -63 q -30 -108 -30 -173 l -30 -173 q -30 -261 -71 -299 q -112 -337 -184 -337 l -184 -337 q -232 -337 -263 -318 q -295 -299 -309 -268 q -324 -237 -324 -200 l -324 -200 q -324 -160 -309 -130 q -295 -101 -266 -84 q -237 -68 -195 -68 l -195 -68 q -166 -68 -140 -83 q -115 -99 -93 -128 q -72 -157 -59 -199 l -59 -199 l -106 -199 q -114 -174 -130 -156 q -147 -139 -171 -139 l -171 -139 q -197 -139 -210 -154 q -223 -169 -223 -199 l -223 -199 q -223 -227 -211 -242 q -200 -258 -178 -258 l -178 -258 q -156 -258 -144 -236 q -132 -215 -132 -171 l -132 -171 q -132 -163 -132 -154 q -132 -146 -134 -138 l -134 -138 l -144 -109 q -157 -87 -179 -75 q -201 -64 -223 -60 q -246 -56 -265 -56 l -265 -56 q -295 -56 -316 -61 q -337 -67 -350 -77 l -350 -77 q -370 -93 -378 -119 q -387 -146 -386 -194 l -386 -194 l -482 -141 q -480 -75 -447 -38 q -415 -2 -366 13 q -318 28 -269 28 z"},"ൣ":{"ha":0,"x_min":-856,"x_max":99,"o":"m -616 28 l -616 28 q -564 28 -512 12 q -461 -4 -431 -53 l -431 -53 l -386 -157 l -386 -333 l -500 -333 l -500 -192 q -500 -150 -507 -123 q -514 -97 -532 -81 l -532 -81 q -546 -69 -568 -62 q -590 -56 -623 -56 l -623 -56 q -647 -56 -672 -62 q -698 -69 -718 -83 q -739 -98 -749 -127 l -749 -127 q -753 -140 -754 -152 q -755 -164 -755 -186 l -755 -186 q -755 -228 -738 -243 q -722 -258 -705 -258 l -705 -258 q -685 -258 -672 -247 q -660 -236 -660 -210 l -660 -210 q -660 -186 -672 -174 q -684 -163 -709 -163 l -709 -163 q -736 -163 -758 -178 q -780 -194 -804 -217 l -804 -217 l -827 -153 q -794 -124 -757 -104 q -721 -85 -684 -85 l -684 -85 q -619 -85 -589 -118 q -559 -151 -559 -206 l -559 -206 q -559 -266 -593 -301 q -628 -337 -701 -337 l -701 -337 q -773 -337 -814 -293 q -856 -250 -856 -174 l -856 -174 q -856 -109 -822 -64 q -789 -19 -734 5 q -680 28 -616 28 z m -269 28 l -269 28 q -206 28 -152 5 q -99 -18 -66 -62 q -33 -107 -33 -172 l -33 -172 q -33 -227 -50 -264 q -68 -301 -101 -319 q -134 -337 -181 -337 l -181 -337 q -235 -337 -266 -318 q -298 -299 -311 -269 q -324 -240 -324 -208 l -324 -208 q -324 -142 -277 -102 q -231 -62 -134 -62 l -134 -62 q -121 -62 -108 -62 q -95 -63 -81 -65 l -81 -65 q -37 -69 5 -89 q 46 -110 73 -150 q 99 -190 99 -257 l 99 -257 q 99 -288 93 -312 q 86 -336 76 -354 l 76 -354 l -17 -323 q -11 -311 -8 -293 q -5 -275 -5 -255 l -5 -255 q -5 -218 -18 -188 q -31 -159 -72 -144 l -72 -144 l -94 -142 q -105 -140 -115 -138 q -126 -137 -138 -137 l -138 -137 q -175 -137 -199 -154 q -223 -172 -223 -208 l -223 -208 q -223 -229 -212 -243 q -201 -258 -178 -258 l -178 -258 q -156 -258 -144 -236 q -132 -215 -132 -168 l -132 -168 q -132 -161 -132 -151 q -133 -141 -136 -131 l -136 -131 l -143 -110 q -155 -89 -176 -77 q -197 -66 -220 -61 q -243 -56 -265 -56 l -265 -56 q -295 -56 -316 -61 q -337 -67 -350 -77 l -350 -77 q -370 -93 -378 -119 q -387 -146 -386 -194 l -386 -194 l -481 -141 q -480 -92 -460 -58 q -440 -25 -408 -6 q -377 12 -340 20 q -304 28 -269 28 z"},"൦":{"ha":571,"x_min":37,"x_max":534,"o":"m 287 37 l 287 37 q 211 37 155 66 q 99 95 68 150 q 37 205 37 282 l 37 282 q 37 359 69 414 q 100 469 156 499 q 211 528 286 528 l 286 528 q 366 528 421 498 q 476 468 505 413 q 534 357 534 282 l 534 282 q 534 207 503 152 q 472 96 417 67 q 362 37 287 37 z m 287 139 l 287 139 q 317 139 342 154 q 366 169 380 202 q 394 234 394 283 l 394 283 q 394 355 363 391 q 332 426 286 426 l 286 426 q 241 426 209 391 q 177 356 177 282 l 177 282 q 177 209 208 174 q 239 139 287 139 z"},"൧":{"ha":905,"x_min":12,"x_max":849,"o":"m 386 -96 l 386 -201 l 258 -201 q 187 -201 144 -192 q 101 -183 74 -167 l 74 -167 q 44 -147 28 -118 q 12 -89 12 -52 l 12 -52 q 12 -14 28 17 q 44 48 77 70 l 77 70 q 94 80 116 88 q 138 95 171 99 q 203 103 250 103 l 250 103 l 433 103 l 465 0 l 256 0 q 217 0 201 -1 q 185 -3 175 -8 l 175 -8 q 162 -14 157 -24 q 151 -34 151 -47 l 151 -47 q 151 -70 171 -83 l 171 -83 q 182 -90 202 -93 q 221 -96 262 -96 l 262 -96 l 386 -96 z m 591 574 l 591 574 q 655 574 702 558 q 748 541 780 512 l 780 512 q 818 477 834 427 q 849 376 849 295 l 849 295 l 849 0 l 332 0 l 332 286 q 332 346 339 388 q 346 429 362 458 q 377 487 401 511 l 401 511 q 432 540 480 557 q 527 574 591 574 z m 592 471 l 592 471 q 562 471 542 463 q 521 454 506 439 l 506 439 q 490 420 481 389 q 472 358 472 292 l 472 292 l 472 103 l 710 103 l 710 283 q 710 355 701 388 q 692 420 676 439 l 676 439 q 663 454 641 463 q 619 471 592 471 z"},"൨":{"ha":852,"x_min":36,"x_max":833,"o":"m 342 574 l 342 574 q 424 574 481 551 q 538 527 574 487 q 610 447 627 398 q 643 348 643 295 l 643 295 q 643 233 629 186 q 614 139 588 101 q 562 62 529 22 l 529 22 l 559 103 l 833 103 l 833 0 l 467 0 l 414 67 q 438 94 458 125 q 478 156 490 195 q 502 233 502 284 l 502 284 q 502 339 482 381 q 461 423 426 446 q 390 469 344 469 l 344 469 q 295 469 258 447 q 221 424 201 383 q 180 341 180 285 l 180 285 q 180 237 191 199 q 201 160 222 127 q 243 93 274 59 l 274 59 l 175 -13 q 135 25 104 69 q 72 112 54 166 q 36 219 36 286 l 36 286 q 36 339 53 391 q 70 442 107 484 q 144 525 202 550 q 260 574 342 574 z"},"൩":{"ha":1081,"x_min":36,"x_max":1061,"o":"m 290 574 l 290 574 q 332 574 361 566 q 389 558 413 542 q 436 526 460 501 l 460 501 l 447 501 q 483 539 525 557 q 567 574 626 574 l 626 574 q 704 574 759 539 q 814 504 843 443 q 872 382 872 303 l 872 303 q 872 244 861 199 q 850 154 825 112 q 799 69 757 20 l 757 20 l 754 0 l 697 0 l 647 62 q 680 104 699 142 q 717 180 724 217 q 731 253 731 293 l 731 293 q 731 354 715 393 q 698 432 671 451 q 644 470 610 470 l 610 470 q 587 470 573 463 q 558 455 549 445 l 549 445 q 535 429 530 403 q 524 376 524 333 l 524 333 l 524 0 l 385 0 l 385 335 q 385 383 380 407 q 374 430 361 446 l 361 446 q 353 456 338 463 q 323 470 299 470 l 299 470 q 269 470 241 453 q 213 435 195 397 q 177 358 177 296 l 177 296 q 177 254 186 214 q 195 174 214 136 q 233 97 264 58 l 264 58 l 162 -12 q 122 32 94 80 q 66 127 51 182 q 36 236 36 299 l 36 299 q 36 378 66 440 q 95 502 152 538 q 208 574 290 574 z m 730 0 l 783 103 l 1061 103 l 1061 0 l 730 0 z"},"൪":{"ha":795,"x_min":36,"x_max":790,"o":"m 365 574 l 365 574 q 448 574 509 551 q 569 528 618 483 l 618 483 q 674 434 700 368 q 726 301 726 230 l 726 230 q 726 152 701 98 q 676 44 626 16 q 575 -12 500 -12 l 500 -12 q 431 -12 383 15 q 335 42 310 88 q 284 133 284 188 l 284 188 q 284 255 314 304 q 343 352 398 395 q 452 437 530 486 l 530 486 q 580 517 606 537 q 631 557 641 577 q 651 596 651 623 l 651 623 q 651 637 646 655 q 641 673 631 686 l 631 686 l 756 744 q 771 719 781 690 q 790 660 790 627 l 790 627 q 790 577 770 541 q 749 504 706 472 q 662 440 595 400 l 595 400 q 546 369 508 338 q 469 306 447 270 q 424 233 424 184 l 424 184 q 424 141 443 116 q 462 90 498 90 l 498 90 q 527 90 546 104 q 565 117 575 145 q 584 173 584 218 l 584 218 q 584 281 559 343 q 534 404 480 440 l 480 440 q 459 456 432 464 q 405 472 370 472 l 370 472 q 308 472 265 450 q 222 427 200 386 q 178 344 178 285 l 178 285 q 178 237 189 199 q 199 160 220 127 q 241 93 271 59 l 271 59 l 175 -13 q 135 25 104 69 q 72 112 54 166 q 36 219 36 286 l 36 286 q 36 343 55 395 q 74 447 114 487 q 153 527 216 551 q 278 574 365 574 z"},"൫":{"ha":1015,"x_min":41,"x_max":974,"o":"m 513 730 l 513 730 q 630 730 717 698 q 803 665 861 605 q 918 544 946 462 q 974 380 974 283 l 974 283 q 974 213 958 138 q 942 62 906 -12 l 906 -12 l 790 36 q 807 74 817 113 q 827 151 833 191 q 838 231 838 273 l 838 273 q 838 350 819 414 q 799 478 760 525 q 720 572 659 598 q 598 624 515 624 l 515 624 q 413 624 337 583 q 261 541 220 460 q 178 379 178 259 l 178 259 q 178 191 192 132 q 206 72 237 26 q 267 -20 316 -45 q 364 -71 434 -71 l 434 -71 q 532 -71 574 -33 q 616 4 616 68 l 616 68 q 616 105 606 134 q 595 163 569 180 q 543 197 500 197 l 500 197 l 489 197 l 489 297 l 503 297 q 535 297 553 301 q 570 304 583 312 l 583 312 q 595 321 602 335 q 608 348 608 370 l 608 370 q 608 402 589 420 q 570 438 529 438 l 529 438 q 488 438 461 415 q 434 392 421 353 q 407 314 407 263 l 407 263 q 407 204 423 152 q 438 99 468 48 l 468 48 l 349 -8 q 311 57 289 125 q 267 193 267 272 l 267 272 q 267 353 300 414 q 332 475 392 509 q 452 543 535 543 l 535 543 q 606 543 653 521 q 699 499 724 461 q 748 423 748 374 l 748 374 q 748 348 739 324 q 729 299 710 279 q 691 259 661 244 l 661 244 l 644 256 q 693 233 725 183 q 756 133 756 63 l 756 63 q 756 -16 719 -69 q 682 -123 611 -150 q 539 -177 439 -177 l 439 -177 q 315 -177 226 -126 q 137 -76 89 20 q 41 115 41 251 l 41 251 q 41 374 79 464 q 116 554 182 613 q 247 672 333 701 q 418 730 513 730 z"},"൬":{"ha":1221,"x_min":36,"x_max":1182,"o":"m 602 574 l 602 574 q 658 574 696 555 q 734 536 765 499 l 765 499 l 832 308 l 832 0 l 692 0 l 692 323 q 692 370 687 398 q 681 425 667 443 l 667 443 q 656 456 641 463 q 625 470 602 470 l 602 470 q 583 470 566 463 q 549 455 537 441 l 537 441 q 523 423 517 397 q 510 370 510 315 l 510 315 l 510 0 l 371 0 l 371 338 q 371 383 367 406 q 362 428 350 445 l 350 445 q 341 455 327 463 q 313 470 291 470 l 291 470 q 263 470 237 453 q 211 435 194 397 q 177 358 177 296 l 177 296 q 177 254 186 214 q 195 174 214 136 q 233 97 264 59 l 264 59 l 161 -12 q 122 32 94 80 q 66 127 51 182 q 36 236 36 299 l 36 299 q 36 377 65 440 q 93 502 149 538 q 204 574 282 574 l 282 574 q 341 574 378 556 q 414 537 448 500 l 448 500 l 433 495 q 469 537 510 556 q 551 574 602 574 z m 933 574 l 933 574 q 1051 574 1117 488 q 1182 401 1182 228 l 1182 228 q 1182 89 1147 -6 q 1111 -102 1032 -151 q 952 -201 820 -201 l 820 -201 q 793 -201 764 -199 q 735 -197 707 -192 l 707 -192 l 715 -87 q 734 -92 757 -93 q 780 -95 804 -95 l 804 -95 q 877 -95 924 -71 q 970 -47 996 -3 q 1021 41 1031 100 q 1040 158 1040 227 l 1040 227 q 1040 310 1025 364 q 1010 417 983 444 q 956 470 921 470 l 921 470 q 899 470 884 464 q 868 458 857 445 l 857 445 q 841 427 837 398 q 832 369 832 313 l 832 313 l 832 10 l 702 10 l 702 315 l 754 497 q 790 537 832 556 q 874 574 933 574 z"},"൭":{"ha":748,"x_min":36,"x_max":710,"o":"m 384 574 l 384 574 q 467 574 529 548 q 590 521 631 473 q 671 425 691 358 q 710 290 710 207 l 710 207 q 710 112 688 37 q 665 -39 619 -92 q 573 -145 504 -173 q 435 -201 341 -201 l 341 -201 q 311 -201 281 -199 q 251 -197 222 -192 l 222 -192 l 231 -87 q 250 -92 274 -93 q 298 -95 323 -95 l 323 -95 q 393 -95 440 -72 q 486 -50 515 -9 q 543 32 555 88 q 567 143 567 208 l 567 208 q 567 340 515 405 q 462 469 370 469 l 370 469 q 305 469 259 439 q 212 408 188 357 q 164 305 164 241 l 164 241 l 164 235 q 164 177 175 145 q 185 112 203 100 q 220 87 242 87 l 242 87 q 260 87 273 96 q 285 104 292 122 q 298 139 298 166 l 298 166 q 298 207 283 228 q 268 248 235 248 l 235 248 q 202 248 172 229 q 141 209 110 170 l 110 170 l 98 269 q 123 296 167 321 q 211 346 268 346 l 268 346 q 322 346 359 325 q 395 304 414 266 q 432 227 432 174 l 432 174 q 432 115 410 74 q 388 33 348 11 q 307 -12 248 -12 l 248 -12 q 192 -12 144 14 q 96 40 66 96 q 36 151 36 243 l 36 243 q 36 343 79 417 q 122 491 200 533 q 278 574 384 574 z"},"൮":{"ha":962,"x_min":36,"x_max":902,"o":"m 342 574 l 342 574 q 424 574 481 551 q 538 527 574 487 q 610 447 627 398 q 643 348 643 295 l 643 295 q 643 233 629 186 q 614 139 588 101 q 562 62 529 22 l 529 22 l 559 103 l 762 103 l 762 562 l 902 562 l 902 178 l 825 0 l 467 0 l 414 67 q 438 94 458 125 q 478 156 490 195 q 502 233 502 284 l 502 284 q 502 339 482 381 q 461 423 426 446 q 390 469 344 469 l 344 469 q 295 469 258 447 q 221 424 201 383 q 180 341 180 285 l 180 285 q 180 237 191 199 q 201 160 222 127 q 243 93 274 59 l 274 59 l 175 -13 q 135 25 104 69 q 72 112 54 166 q 36 219 36 286 l 36 286 q 36 339 53 391 q 70 442 107 484 q 144 525 202 550 q 260 574 342 574 z m 578 -201 l 578 -201 q 549 -201 519 -198 q 488 -196 461 -190 l 461 -190 l 476 -86 q 493 -91 516 -93 q 539 -95 559 -95 l 559 -95 q 620 -95 659 -82 q 698 -70 720 -48 q 741 -27 751 1 q 760 28 761 58 l 761 58 l 902 263 l 902 134 q 902 62 894 12 q 886 -38 868 -71 q 850 -104 820 -130 l 820 -130 q 782 -164 723 -182 q 663 -201 578 -201 z"},"൯":{"ha":1124,"x_min":36,"x_max":1118,"o":"m 291 574 l 291 574 q 333 574 364 566 q 394 557 420 540 q 446 523 475 496 l 475 496 l 524 239 l 524 0 l 385 0 l 385 337 q 385 382 380 406 q 374 430 361 446 l 361 446 q 353 456 338 463 q 323 470 299 470 l 299 470 q 269 470 241 453 q 213 435 195 397 q 177 358 177 296 l 177 296 q 177 254 186 214 q 195 174 214 136 q 233 97 264 58 l 264 58 l 162 -12 q 122 32 94 80 q 66 127 51 182 q 36 236 36 299 l 36 299 q 36 378 66 440 q 95 502 152 538 q 208 574 291 574 z m 688 574 l 688 574 q 773 574 835 551 q 896 528 946 482 l 946 482 q 1001 433 1028 367 q 1054 300 1054 230 l 1054 230 q 1054 152 1029 98 q 1003 44 954 16 q 904 -12 828 -12 l 828 -12 q 758 -12 710 15 q 662 42 637 88 q 612 133 612 188 l 612 188 q 612 255 641 304 q 670 352 725 395 q 779 437 857 486 l 857 486 q 907 517 933 537 q 959 557 969 577 q 978 596 978 623 l 978 623 q 978 637 973 655 q 968 673 958 686 l 958 686 l 1083 744 q 1098 719 1108 690 q 1118 660 1118 627 l 1118 627 q 1118 577 1097 541 q 1076 504 1033 472 q 990 440 923 400 l 923 400 q 874 369 835 338 q 796 306 774 270 q 751 233 751 184 l 751 184 q 751 141 771 116 q 790 90 826 90 l 826 90 q 856 90 875 104 q 893 117 902 145 q 911 173 911 218 l 911 218 q 911 283 886 343 q 860 403 806 440 l 806 440 q 785 455 757 464 q 728 472 688 472 l 688 472 q 657 472 630 466 q 603 459 580 441 l 580 441 q 562 427 550 407 q 537 386 531 352 q 524 317 524 263 l 524 263 l 524 15 l 393 15 l 393 305 l 436 467 q 464 498 497 522 q 529 546 576 560 q 622 574 688 574 z"},"൰":{"ha":1035,"x_min":-33,"x_max":999,"o":"m 187 562 l 327 562 l 327 156 l 325 121 q 325 35 311 -21 q 297 -78 266 -118 l 266 -118 q 235 -158 184 -179 q 132 -201 61 -201 l 61 -201 q 37 -201 13 -198 q -11 -196 -33 -191 l -33 -191 l -21 -87 q -8 -91 8 -93 q 23 -95 40 -95 l 40 -95 q 82 -95 109 -84 q 135 -73 152 -56 l 152 -56 q 172 -33 180 1 q 187 35 187 95 l 187 95 l 187 562 z m 754 -12 l 754 -12 q 698 -12 656 6 q 613 23 576 63 l 576 63 l 593 68 q 555 26 516 7 q 477 -12 425 -12 l 425 -12 q 385 -12 356 -2 q 327 8 304 28 q 281 47 260 76 l 260 76 l 214 258 l 215 564 l 327 555 l 327 240 q 327 191 333 164 q 338 136 353 118 l 353 118 q 363 106 380 99 q 397 92 421 92 l 421 92 q 444 92 461 100 q 478 107 489 121 l 489 121 q 504 138 510 165 q 516 192 516 248 l 516 248 l 516 562 l 655 562 l 655 249 q 655 190 659 163 q 663 136 678 118 l 678 118 q 690 105 707 99 q 724 92 739 92 l 739 92 q 773 92 800 112 q 827 132 843 172 q 858 211 858 269 l 858 269 q 858 311 849 350 q 840 388 821 427 q 802 465 770 503 l 770 503 l 873 574 q 914 531 942 483 q 969 435 984 380 q 999 325 999 259 l 999 259 q 999 182 971 121 q 942 59 888 24 q 834 -12 754 -12 z"},"൱":{"ha":916,"x_min":36,"x_max":877,"o":"m 291 574 l 291 574 q 333 574 362 566 q 390 558 414 542 q 438 525 465 498 l 465 498 l 524 239 l 524 0 l 385 0 l 385 337 q 385 382 380 406 q 374 430 361 446 l 361 446 q 353 456 338 463 q 323 470 299 470 l 299 470 q 269 470 241 453 q 213 435 195 397 q 177 358 177 296 l 177 296 q 177 254 186 214 q 195 174 214 136 q 233 97 264 58 l 264 58 l 162 -12 q 122 32 94 80 q 66 127 51 182 q 36 236 36 299 l 36 299 q 36 378 66 440 q 95 502 152 538 q 208 574 291 574 z m 626 574 l 626 574 q 705 574 762 536 q 818 497 848 421 q 877 344 877 228 l 877 228 q 877 89 841 -6 q 805 -102 726 -151 q 647 -201 515 -201 l 515 -201 q 487 -201 458 -199 q 429 -197 399 -192 l 399 -192 l 408 -87 q 427 -92 451 -93 q 474 -95 499 -95 l 499 -95 q 572 -95 619 -71 q 665 -47 690 -3 q 715 41 725 100 q 734 158 734 227 l 734 227 q 734 310 719 364 q 704 417 677 444 q 650 470 615 470 l 615 470 q 592 470 577 464 q 561 458 549 445 l 549 445 q 534 427 529 399 q 524 370 524 313 l 524 313 l 524 10 l 394 10 l 394 312 l 446 497 q 483 537 525 556 q 566 574 626 574 z"},"൲":{"ha":1421,"x_min":37,"x_max":1402,"o":"m 1221 562 l 1221 562 q 1286 562 1325 540 q 1364 518 1383 483 q 1402 448 1402 408 l 1402 408 q 1402 365 1386 335 q 1370 304 1343 283 l 1343 283 q 1324 269 1300 260 q 1276 250 1242 247 q 1208 243 1160 243 l 1160 243 l 945 243 l 946 346 l 1166 346 q 1200 346 1218 349 q 1236 352 1245 357 l 1245 357 q 1260 365 1267 376 q 1274 386 1274 409 l 1274 409 q 1274 432 1261 447 q 1247 461 1222 461 l 1222 461 q 1194 461 1180 444 q 1165 426 1165 395 l 1165 395 q 1165 364 1176 342 q 1187 319 1204 299 l 1204 299 l 1080 294 q 1064 314 1053 346 q 1042 378 1042 408 l 1042 408 q 1042 459 1066 493 q 1089 527 1130 545 q 1171 562 1221 562 z m 291 574 l 291 574 q 334 574 364 566 q 393 558 418 541 q 443 524 472 498 l 472 498 l 525 233 l 525 0 l 385 0 l 385 337 q 385 382 380 406 q 375 430 362 446 l 362 446 q 354 456 339 463 q 323 470 299 470 l 299 470 q 270 470 242 453 q 214 435 196 397 q 178 358 178 296 l 178 296 q 178 254 187 214 q 196 174 215 136 q 234 97 265 58 l 265 58 l 162 -12 q 123 32 95 80 q 67 127 52 182 q 37 236 37 299 l 37 299 q 37 378 66 440 q 95 502 152 538 q 209 574 291 574 z m 672 574 l 672 574 q 740 574 799 552 q 858 529 902 486 q 946 443 972 379 q 997 315 997 233 l 997 233 q 997 147 970 93 q 943 38 894 13 q 845 -12 775 -12 l 775 -12 q 704 -12 662 13 q 619 37 601 76 q 582 115 582 158 l 582 158 q 582 208 602 245 q 621 282 656 305 l 656 305 q 677 320 704 329 q 731 338 769 342 q 806 346 859 346 l 859 346 l 1109 346 l 1109 243 l 867 243 q 817 243 791 239 q 765 234 747 221 l 747 221 q 733 211 726 197 q 718 182 718 159 l 718 159 q 718 132 733 112 q 748 92 782 92 l 782 92 q 806 92 823 107 q 840 122 850 153 q 859 183 859 233 l 859 233 q 859 248 858 264 q 857 280 856 293 l 856 293 l 848 329 q 842 363 821 395 q 800 427 764 449 q 728 470 673 470 l 673 470 q 647 470 622 463 q 597 455 575 438 l 575 438 q 558 423 547 403 q 536 383 531 349 q 525 315 525 260 l 525 260 l 525 211 l 444 228 l 436 469 q 460 497 491 521 q 522 545 566 560 q 610 574 672 574 z"},"൳":{"ha":738,"x_min":36,"x_max":716,"o":"m 245 -12 l 245 -12 q 184 -12 137 16 q 90 43 63 96 q 36 148 36 221 l 36 221 q 36 306 66 367 q 96 427 152 465 l 152 465 q 189 489 232 503 q 275 516 331 522 q 386 528 460 528 l 460 528 l 716 528 l 716 421 l 476 421 q 406 421 360 417 q 313 413 282 404 q 250 394 225 376 l 225 376 q 204 361 190 340 q 175 318 167 292 l 167 292 l 168 263 q 166 253 165 242 q 164 230 164 215 l 164 215 q 164 167 175 140 q 185 112 202 100 q 218 87 239 87 l 239 87 q 259 87 272 96 q 285 104 292 122 q 298 139 298 166 l 298 166 q 298 207 283 228 q 268 248 234 248 l 234 248 q 202 248 171 229 q 140 209 109 170 l 109 170 l 93 264 q 118 294 163 320 q 208 346 268 346 l 268 346 q 322 346 358 325 q 394 304 413 266 q 432 227 432 174 l 432 174 q 432 116 411 74 q 389 32 348 10 q 307 -12 245 -12 z"},"൴":{"ha":943,"x_min":36,"x_max":907,"o":"m 477 789 l 617 789 l 617 221 q 617 188 620 165 q 622 142 628 128 q 633 113 643 104 l 643 104 q 651 97 663 94 q 674 90 690 90 l 690 90 q 714 90 731 103 q 747 115 756 143 q 765 170 765 215 l 765 215 q 765 266 752 309 q 738 351 711 384 q 684 417 644 439 q 604 461 551 469 l 551 469 l 528 467 q 512 468 495 470 q 478 471 460 471 l 460 471 q 396 471 343 457 q 289 443 249 415 q 208 386 186 345 q 164 303 164 247 l 164 247 l 164 232 q 164 176 175 144 q 185 112 203 100 q 220 87 242 87 l 242 87 q 260 87 273 96 q 285 104 292 122 q 298 139 298 167 l 298 167 q 298 208 283 228 q 268 248 235 248 l 235 248 q 202 248 172 229 q 141 209 110 170 l 110 170 l 93 264 q 118 294 163 320 q 208 346 268 346 l 268 346 q 322 346 358 325 q 394 304 413 266 q 432 227 432 174 l 432 174 q 432 115 410 74 q 388 33 347 11 q 306 -12 248 -12 l 248 -12 q 192 -12 144 14 q 96 39 66 94 q 36 148 36 235 l 36 235 q 36 317 67 380 q 97 442 153 486 q 209 529 286 552 q 363 574 457 574 l 457 574 q 480 574 502 574 q 523 574 543 572 l 543 572 l 578 569 q 648 561 708 534 q 768 507 813 463 q 858 418 883 358 q 907 297 907 222 l 907 222 q 907 151 883 98 q 858 45 809 17 q 759 -12 687 -12 l 687 -12 q 639 -12 603 0 q 567 12 541 35 l 541 35 q 519 56 505 83 q 491 110 484 150 q 477 190 477 248 l 477 248 l 477 789 z"},"൵":{"ha":1246,"x_min":36,"x_max":1241,"o":"m 368 574 l 368 574 q 449 574 504 549 q 559 524 602 474 l 602 474 l 619 392 l 647 228 l 647 0 l 507 0 l 507 278 q 507 353 497 387 q 486 420 467 437 l 467 437 q 450 453 428 462 q 405 470 366 470 l 366 470 q 309 470 264 445 q 218 420 191 369 q 164 318 164 241 l 164 241 l 164 235 q 164 177 175 145 q 185 113 203 100 q 220 87 241 87 l 241 87 q 260 87 273 96 q 285 105 292 123 q 298 140 298 167 l 298 167 q 298 208 283 228 q 268 248 235 248 l 235 248 q 203 248 173 229 q 142 210 112 172 l 112 172 l 98 269 q 123 296 168 321 q 213 346 270 346 l 270 346 q 323 346 359 325 q 395 304 414 266 q 432 227 432 174 l 432 174 q 432 115 410 74 q 388 32 347 10 q 305 -12 247 -12 l 247 -12 q 192 -12 144 14 q 96 39 66 95 q 36 151 36 242 l 36 242 q 36 352 80 426 q 123 499 199 537 q 275 574 368 574 z m 811 574 l 811 574 q 896 574 958 551 q 1019 528 1069 482 l 1069 482 q 1124 433 1151 367 q 1177 300 1177 230 l 1177 230 q 1177 152 1152 98 q 1126 44 1077 16 q 1027 -12 951 -12 l 951 -12 q 881 -12 833 15 q 785 42 760 88 q 735 133 735 188 l 735 188 q 735 255 764 304 q 793 352 848 395 q 903 437 980 486 l 980 486 q 1030 517 1056 537 q 1082 557 1092 577 q 1101 596 1101 623 l 1101 623 q 1101 637 1096 655 q 1091 673 1081 686 l 1081 686 l 1207 744 q 1222 719 1232 690 q 1241 660 1241 627 l 1241 627 q 1241 577 1220 541 q 1199 504 1156 472 q 1113 440 1046 400 l 1046 400 q 997 369 958 338 q 919 306 897 270 q 874 233 874 184 l 874 184 q 874 141 894 116 q 913 90 949 90 l 949 90 q 979 90 998 104 q 1016 117 1025 145 q 1034 173 1034 218 l 1034 218 q 1034 283 1009 343 q 983 403 929 440 l 929 440 q 908 455 880 464 q 851 472 811 472 l 811 472 q 780 472 753 466 q 726 459 703 441 l 703 441 q 685 427 673 407 q 660 386 654 352 q 647 317 647 263 l 647 263 l 647 15 l 516 15 l 516 305 l 559 467 q 587 498 620 522 q 652 546 699 560 q 745 574 811 574 z"},"൶":{"ha":1358,"x_min":29,"x_max":1305,"o":"m 245 362 l 245 362 q 321 362 368 335 q 415 307 437 264 q 459 221 459 175 l 459 175 q 459 142 449 115 q 438 88 430 69 l 430 69 l 419 103 l 722 103 l 729 0 l 341 0 l 292 59 q 303 76 313 103 q 323 129 323 165 l 323 165 q 323 206 305 233 q 286 260 247 260 l 247 260 q 219 260 202 248 q 185 236 177 215 q 168 193 168 167 l 168 167 q 168 122 182 94 q 196 66 211 41 l 211 41 l 99 -12 q 66 30 48 74 q 29 117 29 173 l 29 173 q 29 230 56 273 q 83 315 132 339 q 181 362 245 362 z m 973 574 l 973 574 q 1062 574 1123 554 q 1183 534 1223 499 l 1223 499 q 1252 474 1270 441 q 1288 408 1297 364 q 1305 319 1305 259 l 1305 259 l 1305 0 l 659 0 l 659 261 q 659 320 668 364 q 676 408 694 442 q 712 475 740 499 l 740 499 q 779 534 834 554 q 889 574 973 574 z m 900 469 l 900 469 q 875 469 855 454 q 835 439 821 413 l 821 413 q 810 391 804 360 q 798 329 798 284 l 798 284 l 798 67 l 768 69 q 820 119 863 173 q 905 227 930 283 q 955 338 955 393 l 955 393 q 955 415 951 432 q 946 449 934 459 q 922 469 900 469 z m 1092 368 l 1092 368 q 1092 320 1075 275 q 1058 229 1028 184 q 998 139 957 92 l 957 92 l 932 99 q 955 101 981 102 q 1007 103 1017 103 l 1017 103 l 1166 103 l 1166 267 q 1166 329 1155 369 q 1143 408 1118 435 q 1093 461 1052 478 l 1052 478 l 1055 481 q 1068 464 1080 436 q 1092 408 1092 368 z"},"൷":{"ha":1755,"x_min":29,"x_max":1736,"o":"m 245 362 l 245 362 q 320 362 368 335 q 415 307 437 264 q 459 221 459 175 l 459 175 q 459 142 449 115 q 438 88 430 69 l 430 69 l 419 103 l 665 103 l 729 0 l 341 0 l 292 59 q 303 76 313 103 q 323 129 323 165 l 323 165 q 323 206 305 233 q 286 260 247 260 l 247 260 q 219 260 202 248 q 185 236 177 215 q 168 193 168 167 l 168 167 q 168 122 182 94 q 196 66 211 41 l 211 41 l 99 -12 q 66 30 48 74 q 29 117 29 174 l 29 174 q 29 230 56 273 q 83 315 132 339 q 181 362 245 362 z m 813 574 l 813 574 q 856 574 886 566 q 915 558 940 541 q 965 524 994 498 l 994 498 l 1047 257 l 1047 230 l 907 230 l 907 337 q 907 383 902 407 q 897 430 884 446 l 884 446 q 876 456 861 463 q 845 470 821 470 l 821 470 q 792 470 764 453 q 736 435 718 397 q 700 359 700 297 l 700 297 q 700 235 719 179 q 738 122 781 62 l 781 62 l 732 0 l 648 0 l 620 85 q 601 115 587 149 q 573 182 566 220 q 559 257 559 300 l 559 300 q 559 379 588 441 q 617 502 674 538 q 731 574 813 574 z m 1213 574 l 1213 574 q 1282 574 1343 552 q 1403 529 1449 486 q 1494 442 1520 379 q 1546 315 1546 233 l 1546 233 q 1546 146 1519 92 q 1492 38 1443 13 q 1394 -12 1324 -12 l 1324 -12 q 1253 -12 1211 13 q 1168 38 1150 77 q 1131 115 1131 158 l 1131 158 q 1131 208 1151 245 q 1170 282 1205 305 l 1205 305 q 1226 320 1254 329 q 1281 338 1318 342 q 1355 346 1408 346 l 1408 346 l 1501 346 l 1501 243 l 1416 243 q 1366 243 1340 239 q 1314 234 1296 221 l 1296 221 q 1282 211 1275 197 q 1267 182 1267 159 l 1267 159 q 1267 132 1282 112 q 1296 92 1330 92 l 1330 92 q 1354 92 1372 107 q 1389 122 1398 153 q 1407 184 1407 233 l 1407 233 q 1407 248 1407 264 q 1406 280 1404 293 l 1404 293 l 1396 329 q 1390 363 1369 396 q 1347 428 1308 449 q 1268 470 1208 470 l 1208 470 q 1170 470 1146 464 q 1121 457 1097 438 l 1097 438 q 1082 424 1071 404 q 1059 383 1053 349 q 1047 315 1047 260 l 1047 260 l 1047 236 l 966 233 l 962 473 q 986 501 1019 524 q 1051 547 1099 561 q 1147 574 1213 574 z m 1589 448 l 1725 473 q 1730 460 1733 439 q 1736 418 1736 398 l 1736 398 q 1736 359 1722 331 q 1707 302 1680 283 l 1680 283 q 1650 262 1611 253 q 1572 243 1501 243 l 1501 243 l 1487 243 l 1487 346 l 1494 346 q 1521 346 1540 349 q 1558 351 1570 359 l 1570 359 q 1583 366 1589 380 q 1595 394 1595 413 l 1595 413 q 1595 421 1593 431 q 1591 441 1589 448 l 1589 448 z"},"൸":{"ha":2183,"x_min":8,"x_max":2130,"o":"m 1396 574 l 1396 574 q 1424 574 1449 569 q 1474 564 1497 554 q 1520 543 1541 526 q 1562 508 1580 482 l 1580 482 l 1549 479 q 1576 509 1613 530 q 1649 551 1696 563 q 1742 574 1798 574 l 1798 574 q 1887 574 1948 554 q 2008 534 2048 499 l 2048 499 q 2077 474 2095 441 q 2113 408 2122 364 q 2130 319 2130 259 l 2130 259 l 2130 0 l 1623 0 l 1623 97 q 1667 142 1702 192 q 1737 241 1759 292 q 1780 343 1780 393 l 1780 393 q 1780 415 1775 432 q 1770 449 1758 459 q 1746 469 1724 469 l 1724 469 q 1701 469 1680 456 q 1659 442 1646 414 l 1646 414 q 1635 392 1631 361 q 1626 329 1626 281 l 1626 281 l 1626 230 l 1487 230 l 1487 309 q 1487 358 1483 386 q 1479 414 1469 433 l 1469 433 q 1460 451 1443 460 q 1426 469 1399 469 l 1399 469 q 1375 469 1358 461 q 1341 452 1332 434 l 1332 434 q 1322 416 1318 390 q 1313 363 1313 314 l 1313 314 l 1313 240 q 1313 199 1307 164 q 1301 129 1288 100 q 1275 71 1255 49 l 1255 49 q 1229 21 1188 5 q 1146 -12 1084 -12 l 1084 -12 q 1024 -12 982 5 q 940 21 914 49 l 914 49 q 893 72 881 101 q 868 129 862 165 q 856 200 856 240 l 856 240 l 856 313 q 856 362 852 388 q 847 414 838 433 l 838 433 q 828 451 811 460 q 794 469 769 469 l 769 469 q 744 469 727 461 q 710 452 701 434 l 701 434 q 690 416 686 390 q 682 363 682 314 l 682 314 l 682 242 q 682 170 667 125 q 652 80 623 49 l 623 49 q 594 19 555 4 q 516 -12 461 -12 l 461 -12 q 396 -12 358 9 q 319 29 288 62 l 288 62 l 300 64 q 275 37 248 20 q 220 3 191 -4 q 161 -12 128 -12 l 128 -12 q 91 -12 64 -5 q 36 2 8 17 l 8 17 l 47 115 q 65 106 86 99 q 106 92 132 92 l 132 92 q 147 92 166 98 q 184 104 196 118 l 196 118 q 212 137 216 164 q 220 191 220 249 l 220 249 l 220 556 l 360 562 l 360 239 q 360 191 367 164 q 373 137 387 119 l 387 119 q 396 108 414 101 q 431 93 451 93 l 451 93 q 475 93 493 101 q 510 109 521 126 l 521 126 q 532 144 536 170 q 540 195 540 249 l 540 249 l 540 322 q 540 363 546 398 q 552 433 565 463 q 577 492 598 513 l 598 513 q 623 541 665 558 q 706 574 767 574 l 767 574 q 827 574 870 558 q 913 541 939 513 l 939 513 q 959 492 972 463 q 985 433 991 398 q 997 363 997 322 l 997 322 l 997 253 q 997 204 1001 176 q 1005 148 1015 129 l 1015 129 q 1024 112 1041 103 q 1058 93 1084 93 l 1084 93 q 1110 93 1127 102 q 1143 111 1152 128 l 1152 128 q 1162 146 1167 173 q 1171 200 1171 250 l 1171 250 l 1171 322 q 1171 363 1178 398 q 1184 433 1197 463 q 1209 492 1229 513 l 1229 513 q 1255 541 1297 558 q 1338 574 1396 574 z m 1917 368 l 1917 368 q 1917 320 1900 275 q 1883 229 1853 184 q 1823 139 1782 92 l 1782 92 l 1757 99 q 1780 101 1806 102 q 1832 103 1842 103 l 1842 103 l 1991 103 l 1991 267 q 1991 329 1980 369 q 1968 408 1944 435 q 1919 461 1877 478 l 1877 478 l 1880 481 q 1893 464 1905 436 q 1917 408 1917 368 z"},"൹":{"ha":1130,"x_min":36,"x_max":1108,"o":"m 291 574 l 291 574 q 333 574 363 566 q 392 558 418 541 q 443 524 471 498 l 471 498 l 524 233 l 524 0 l 385 0 l 385 337 q 385 382 380 406 q 374 430 361 446 l 361 446 q 353 456 338 463 q 323 470 299 470 l 299 470 q 269 470 241 453 q 213 435 195 397 q 177 358 177 296 l 177 296 q 177 254 186 214 q 195 174 214 136 q 233 97 264 58 l 264 58 l 162 -12 q 122 32 94 80 q 66 127 51 182 q 36 236 36 299 l 36 299 q 36 378 66 440 q 95 502 152 538 q 208 574 291 574 z m 671 574 l 671 574 q 739 574 798 552 q 857 529 902 486 q 946 443 971 379 q 996 315 996 233 l 996 233 q 996 147 969 93 q 942 38 893 13 q 844 -12 775 -12 l 775 -12 q 704 -12 661 13 q 618 37 600 76 q 581 115 581 158 l 581 158 q 581 208 601 245 q 621 282 655 305 l 655 305 q 677 320 704 329 q 730 338 768 342 q 805 346 859 346 l 859 346 l 1108 346 l 1108 243 l 866 243 q 816 243 791 239 q 765 234 746 221 l 746 221 q 733 211 725 197 q 717 182 717 159 l 717 159 q 717 132 732 112 q 747 92 782 92 l 782 92 q 805 92 823 107 q 840 122 849 153 q 858 183 858 233 l 858 233 q 858 248 858 264 q 857 280 855 293 l 855 293 l 847 329 q 841 363 821 395 q 800 427 764 449 q 727 470 672 470 l 672 470 q 646 470 621 463 q 596 455 574 438 l 574 438 q 557 423 546 403 q 535 383 530 349 q 524 315 524 260 l 524 260 l 524 211 l 443 228 l 435 469 q 459 497 491 521 q 522 545 566 560 q 610 574 671 574 z"},"ൺ":{"ha":1533,"x_min":36,"x_max":1497,"o":"m 368 574 l 368 574 q 449 574 504 549 q 559 524 603 474 l 603 474 l 566 493 q 598 535 644 555 q 689 574 742 574 l 742 574 q 809 574 850 551 q 891 527 924 485 l 924 485 l 927 446 l 975 314 l 975 0 l 835 0 l 835 321 q 835 371 830 399 q 825 426 810 444 l 810 444 q 799 456 783 463 q 766 470 741 470 l 741 470 q 719 470 703 463 q 686 455 673 441 l 673 441 q 658 423 653 397 q 647 371 647 314 l 647 314 l 647 0 l 507 0 l 507 278 q 507 352 497 386 q 486 420 467 437 l 467 437 q 450 453 428 462 q 405 470 366 470 l 366 470 q 309 470 264 445 q 218 420 191 369 q 164 318 164 241 l 164 241 l 164 235 q 164 177 175 145 q 185 113 203 100 q 220 87 241 87 l 241 87 q 260 87 273 96 q 285 105 292 123 q 298 140 298 167 l 298 167 q 298 208 283 228 q 268 248 235 248 l 235 248 q 203 248 173 229 q 142 210 112 172 l 112 172 l 98 269 q 123 296 168 321 q 213 346 270 346 l 270 346 q 323 346 359 325 q 395 304 414 266 q 432 227 432 174 l 432 174 q 432 115 410 74 q 388 32 347 10 q 305 -12 247 -12 l 247 -12 q 192 -12 144 14 q 96 39 66 95 q 36 151 36 242 l 36 242 q 36 352 80 426 q 123 499 199 537 q 275 574 368 574 z m 1279 -12 l 1279 -12 q 1210 -12 1163 16 q 1115 43 1091 96 q 1067 148 1067 223 l 1067 223 q 1067 264 1079 309 q 1090 353 1121 400 q 1152 446 1208 495 l 1208 495 l 1220 521 q 1259 558 1280 585 q 1301 612 1301 641 l 1301 641 q 1301 667 1287 682 q 1272 696 1237 696 l 1237 696 q 1222 696 1207 694 q 1192 691 1181 688 l 1181 688 l 1157 783 q 1179 791 1214 796 q 1249 800 1285 800 l 1285 800 q 1347 800 1381 780 q 1414 759 1427 728 q 1439 697 1439 666 l 1439 666 q 1439 614 1412 566 q 1384 518 1331 470 l 1331 470 l 1315 455 q 1276 420 1252 381 q 1228 341 1217 299 q 1206 257 1206 218 l 1206 218 q 1206 177 1214 149 q 1222 120 1239 105 q 1255 90 1280 90 l 1280 90 q 1317 90 1336 120 q 1355 149 1355 220 l 1355 220 q 1355 262 1345 304 q 1335 346 1314 382 q 1293 417 1260 441 l 1260 441 q 1238 455 1214 464 q 1189 473 1145 473 l 1145 473 q 1114 473 1086 467 q 1057 460 1032 442 l 1032 442 q 1016 429 1003 408 q 990 387 983 354 q 975 320 975 266 l 975 266 l 975 90 l 843 90 l 843 277 l 889 467 q 916 498 948 522 q 980 545 1028 560 q 1076 574 1144 574 l 1144 574 q 1191 574 1232 566 q 1273 558 1307 542 l 1307 542 q 1310 541 1314 539 q 1317 537 1320 534 l 1320 534 q 1379 505 1419 458 q 1458 410 1478 351 q 1497 292 1497 229 l 1497 229 q 1497 113 1442 51 q 1386 -12 1279 -12 z"},"ൻ":{"ha":1082,"x_min":36,"x_max":1046,"o":"m 290 574 l 290 574 q 333 574 363 566 q 392 558 418 541 q 444 524 472 498 l 472 498 l 524 251 l 524 0 l 385 0 l 385 337 q 385 382 380 406 q 374 430 361 446 l 361 446 q 353 456 338 463 q 323 470 299 470 l 299 470 q 269 470 241 453 q 213 435 195 397 q 177 358 177 296 l 177 296 q 177 254 186 214 q 195 174 214 136 q 233 97 264 58 l 264 58 l 162 -12 q 122 32 94 80 q 66 127 51 182 q 36 236 36 299 l 36 299 q 36 378 66 440 q 95 502 152 538 q 208 574 290 574 z m 828 -12 l 828 -12 q 759 -12 712 16 q 664 43 640 96 q 616 148 616 223 l 616 223 q 616 264 628 309 q 639 353 670 400 q 701 446 758 495 l 758 495 l 769 521 q 808 558 829 585 q 850 612 850 641 l 850 641 q 850 667 836 682 q 821 696 787 696 l 787 696 q 771 696 756 694 q 741 691 730 688 l 730 688 l 706 783 q 729 791 764 796 q 798 800 834 800 l 834 800 q 896 800 930 780 q 963 759 976 728 q 989 697 989 666 l 989 666 q 989 614 961 566 q 933 518 880 470 l 880 470 l 864 455 q 825 420 801 381 q 777 341 766 299 q 755 257 755 218 l 755 218 q 755 177 763 149 q 771 120 788 105 q 804 90 829 90 l 829 90 q 867 90 886 120 q 904 149 904 220 l 904 220 q 904 262 894 304 q 884 346 863 382 q 842 417 809 441 l 809 441 q 787 455 763 464 q 738 473 694 473 l 694 473 q 663 473 635 467 q 606 460 581 442 l 581 442 q 565 429 552 408 q 539 387 532 354 q 524 320 524 266 l 524 266 l 524 90 l 392 90 l 392 277 l 438 467 q 465 498 498 522 q 530 545 578 560 q 625 574 693 574 l 693 574 q 740 574 781 566 q 822 558 856 542 l 856 542 q 859 541 863 539 q 866 537 869 534 l 869 534 q 928 505 968 458 q 1007 410 1027 351 q 1046 292 1046 229 l 1046 229 q 1046 113 991 51 q 935 -12 828 -12 z"},"ർ":{"ha":756,"x_min":36,"x_max":719,"o":"m 502 -12 l 502 -12 q 432 -12 385 16 q 338 43 314 96 q 289 148 289 223 l 289 223 q 289 264 301 309 q 312 353 343 400 q 374 446 431 495 l 431 495 l 443 521 q 482 558 503 585 q 523 612 523 641 l 523 641 q 523 667 509 682 q 494 696 460 696 l 460 696 q 446 696 430 694 q 414 691 403 688 l 403 688 l 379 783 q 402 791 437 796 q 472 800 507 800 l 507 800 q 570 800 603 780 q 636 759 649 728 q 662 697 662 666 l 662 666 q 662 614 634 566 q 606 518 553 470 l 553 470 l 537 455 q 498 420 474 381 q 450 341 440 299 q 429 257 429 218 l 429 218 q 429 177 437 149 q 444 120 461 105 q 478 90 504 90 l 504 90 q 540 90 559 120 q 577 149 577 220 l 577 220 q 577 252 572 283 q 566 314 555 344 q 543 374 526 399 q 508 424 482 441 l 482 441 q 461 455 438 464 q 414 473 368 473 l 368 473 q 306 473 264 450 q 222 427 200 386 q 178 344 178 285 l 178 285 q 178 237 189 199 q 199 160 220 127 q 240 93 271 59 l 271 59 l 175 -13 q 134 25 103 68 q 72 110 54 164 q 36 217 36 286 l 36 286 q 36 342 55 394 q 73 445 113 486 q 152 527 215 551 q 277 574 365 574 l 365 574 q 413 574 454 566 q 495 558 529 542 l 529 542 q 533 541 536 539 q 539 537 542 535 l 542 535 q 602 505 641 457 q 680 409 700 350 q 719 291 719 228 l 719 228 q 719 112 664 50 q 609 -12 502 -12 z"},"ൽ":{"ha":1235,"x_min":36,"x_max":1199,"o":"m 748 574 l 748 574 q 817 574 863 567 q 908 560 941 550 q 974 539 1004 527 l 1004 527 l 1037 512 q 1119 461 1159 387 q 1199 313 1199 221 l 1199 221 q 1199 112 1144 50 q 1089 -12 981 -12 l 981 -12 q 912 -12 865 16 q 818 43 794 96 q 769 148 769 223 l 769 223 q 769 264 781 309 q 792 353 823 400 q 854 446 911 495 l 911 495 l 922 520 q 962 557 983 585 q 1003 612 1003 641 l 1003 641 q 1003 667 988 682 q 973 696 940 696 l 940 696 q 926 696 910 694 q 894 691 883 688 l 883 688 l 859 783 q 882 791 917 796 q 951 800 987 800 l 987 800 q 1049 800 1083 780 q 1116 759 1129 728 q 1142 697 1142 666 l 1142 666 q 1142 614 1114 566 q 1086 518 1033 470 l 1033 470 l 1017 455 q 978 420 954 381 q 930 341 920 299 q 909 257 909 218 l 909 218 q 909 177 917 149 q 924 120 941 105 q 958 90 984 90 l 984 90 q 1020 90 1039 119 q 1057 148 1057 216 l 1057 216 q 1057 259 1043 302 q 1029 344 1005 379 q 981 413 950 431 l 950 431 l 908 445 q 871 460 833 466 q 795 471 751 471 l 751 471 q 709 471 669 465 q 628 458 592 445 l 592 445 l 560 438 q 509 408 474 350 q 439 291 439 205 l 439 205 q 439 163 451 138 q 462 113 480 102 q 498 91 518 91 l 518 91 q 539 91 558 103 q 576 114 587 143 q 597 172 597 224 l 597 224 q 597 277 582 323 q 567 368 538 403 q 509 437 469 457 l 469 457 l 448 463 q 431 469 413 472 q 394 474 375 474 l 375 474 q 307 474 264 450 q 221 425 200 383 q 179 340 179 284 l 179 284 q 179 237 190 199 q 200 160 221 127 q 241 93 271 60 l 271 60 l 174 -12 q 134 26 103 68 q 72 110 54 164 q 36 217 36 286 l 36 286 q 36 338 53 389 q 69 440 107 482 q 144 524 206 549 q 268 574 361 574 l 361 574 q 415 574 458 564 q 501 553 538 533 l 538 533 l 561 523 q 643 476 690 401 q 737 326 737 226 l 737 226 q 737 147 712 94 q 687 40 637 14 q 587 -12 515 -12 l 515 -12 q 447 -12 399 15 q 350 42 325 93 q 299 144 299 214 l 299 214 q 299 274 318 326 q 336 377 375 420 q 413 463 474 496 l 474 496 l 495 516 q 539 544 602 559 q 664 574 748 574 z"},"ൾ":{"ha":1064,"x_min":36,"x_max":1028,"o":"m 817 800 l 817 800 q 879 800 912 780 q 945 759 958 728 q 970 697 970 666 l 970 666 q 970 614 942 566 q 913 518 862 470 l 862 470 l 846 455 q 807 420 783 381 q 759 341 748 299 q 737 257 737 218 l 737 218 q 737 177 745 149 q 753 120 770 105 q 787 90 812 90 l 812 90 q 848 90 867 120 q 885 149 885 220 l 885 220 q 885 252 881 283 q 876 313 866 343 q 855 372 837 398 q 819 423 794 442 l 794 442 q 771 456 746 464 q 721 472 682 472 l 682 472 q 648 472 619 463 q 589 454 568 438 l 568 438 q 536 412 526 368 q 515 324 515 263 l 515 263 l 515 234 q 515 197 510 164 q 504 130 493 101 q 481 72 461 51 l 461 51 q 433 21 391 5 q 349 -12 288 -12 l 288 -12 q 211 -12 155 22 q 98 55 67 116 q 36 177 36 260 l 36 260 q 36 328 51 384 q 66 439 94 486 q 122 533 162 575 l 162 575 l 264 504 q 233 466 214 428 q 195 390 186 351 q 177 311 177 267 l 177 267 q 177 204 192 167 q 206 129 230 111 q 254 93 282 93 l 282 93 q 309 93 327 102 q 344 111 354 128 l 354 128 q 365 145 369 171 q 373 197 373 240 l 373 240 l 373 281 q 373 369 397 425 q 420 481 458 512 l 458 512 q 501 546 553 560 q 604 574 685 574 l 685 574 q 730 574 768 566 q 805 558 837 545 l 837 545 l 853 536 q 911 507 950 460 q 989 412 1009 353 q 1028 294 1028 229 l 1028 229 q 1028 113 973 51 q 917 -12 811 -12 l 811 -12 q 741 -12 694 16 q 646 43 622 96 q 598 148 598 223 l 598 223 q 598 264 610 309 q 621 353 652 400 q 683 446 740 495 l 740 495 l 751 521 q 790 558 811 585 q 832 612 832 641 l 832 641 q 832 667 818 682 q 803 696 768 696 l 768 696 q 753 696 738 694 q 723 691 712 688 l 712 688 l 688 783 q 710 791 746 796 q 781 800 817 800 z"},"ൿ":{"ha":1238,"x_min":28,"x_max":1208,"o":"m 531 574 l 531 574 q 620 574 675 538 q 729 501 755 435 q 781 369 781 283 l 781 283 q 781 186 752 120 q 722 54 667 21 q 611 -12 532 -12 l 532 -12 q 471 -12 424 9 q 376 29 346 64 l 346 64 q 312 105 296 162 q 280 218 280 285 l 280 285 q 280 422 347 498 q 413 574 531 574 z m 531 471 l 531 471 q 473 471 446 425 q 418 378 418 282 l 418 282 q 418 218 431 176 q 443 133 468 112 q 493 91 531 91 l 531 91 q 568 91 593 112 q 617 132 631 175 q 644 217 644 282 l 644 282 q 644 347 631 389 q 618 431 593 451 q 568 471 531 471 z m 216 -12 l 216 -12 q 125 -12 77 34 q 28 80 28 160 l 28 160 q 28 212 52 249 q 76 285 115 307 l 115 307 q 139 320 168 329 q 196 338 237 342 q 278 346 341 346 l 341 346 l 943 346 q 1007 346 1055 337 q 1103 327 1141 299 l 1141 299 q 1171 277 1190 244 q 1208 211 1208 163 l 1208 163 q 1208 83 1162 36 q 1115 -12 1018 -12 l 1018 -12 q 920 -12 872 37 q 823 86 823 160 l 823 160 q 823 195 831 225 q 838 255 852 286 l 852 286 q 854 289 855 294 q 855 298 856 302 l 856 302 q 869 329 886 362 q 902 395 926 439 l 926 439 q 953 488 971 524 q 989 560 998 589 q 1007 617 1007 642 l 1007 642 q 1007 666 993 681 q 978 696 944 696 l 944 696 q 930 696 914 694 q 898 691 888 688 l 888 688 l 863 783 q 887 791 922 796 q 957 800 993 800 l 993 800 q 1055 800 1088 780 q 1121 759 1134 729 q 1146 698 1146 668 l 1146 668 q 1146 642 1141 617 q 1136 592 1125 563 q 1113 533 1095 497 q 1076 460 1047 410 l 1047 410 q 1031 379 1018 353 q 1005 326 994 305 l 994 305 q 991 297 987 291 q 983 284 981 277 l 981 277 q 968 251 961 225 q 954 199 954 167 l 954 167 q 954 139 963 123 q 972 106 986 99 q 999 91 1015 91 l 1015 91 q 1044 91 1059 108 q 1074 125 1074 156 l 1074 156 q 1074 181 1066 197 q 1057 213 1043 223 l 1043 223 q 1024 236 998 240 q 972 243 946 243 l 946 243 l 305 243 q 263 243 238 240 q 213 236 194 224 l 194 224 q 181 214 172 199 q 162 184 162 163 l 162 163 q 162 140 170 124 q 178 107 196 99 q 214 90 241 90 l 241 90 q 265 90 290 100 q 315 109 345 133 l 345 133 l 404 42 q 373 20 344 9 q 315 -3 284 -7 q 253 -12 216 -12 z"},"!":{"ha":292,"x_min":64,"x_max":228,"o":"m 204 238 l 89 238 l 65 714 l 228 714 l 204 238 z m 146 -13 l 146 -13 q 110 -13 87 7 q 64 27 64 69 l 64 69 q 64 114 87 133 q 110 152 146 152 l 146 152 q 181 152 205 133 q 228 114 228 69 l 228 69 q 228 27 205 7 q 181 -13 146 -13 z"},"\"":{"ha":465,"x_min":65,"x_max":401,"o":"m 179 542 l 83 542 l 65 800 l 198 800 l 179 542 z m 382 542 l 286 542 l 267 800 l 401 800 l 382 542 z"},"#":{"ha":617,"x_min":31,"x_max":585,"o":"m 196 0 l 95 0 l 131 198 l 31 198 l 31 297 l 150 297 l 174 415 l 62 415 l 62 515 l 191 515 l 230 713 l 332 713 l 294 515 l 384 515 l 422 713 l 523 713 l 485 515 l 585 515 l 585 415 l 466 415 l 442 297 l 556 297 l 556 198 l 423 198 l 385 0 l 283 0 l 321 198 l 233 198 l 196 0 z m 276 415 l 252 297 l 340 297 l 365 415 l 276 415 z"},"%":{"ha":848,"x_min":30,"x_max":818,"o":"m 302 0 l 192 0 l 544 714 l 654 714 l 302 0 z m 188 276 l 188 276 q 109 276 70 337 q 30 397 30 500 l 30 500 q 30 605 68 665 q 105 724 189 724 l 189 724 q 268 724 308 665 q 348 605 348 501 l 348 501 q 348 396 310 336 q 272 276 188 276 z m 189 375 l 189 375 q 210 375 221 405 q 231 435 231 500 l 231 500 q 231 565 221 595 q 210 624 189 624 l 189 624 q 168 624 158 595 q 147 565 147 500 l 147 500 q 147 436 158 406 q 168 375 189 375 z m 658 -8 l 658 -8 q 579 -8 540 52 q 500 112 500 216 l 500 216 q 500 321 538 381 q 575 440 659 440 l 659 440 q 738 440 778 381 q 818 321 818 217 l 818 217 q 818 112 780 52 q 742 -8 658 -8 z m 660 91 l 660 91 q 682 91 692 121 q 702 151 702 216 l 702 216 q 702 280 692 310 q 682 340 660 340 l 660 340 q 639 340 629 310 q 619 280 619 216 l 619 216 q 619 152 629 122 q 639 91 660 91 z"},"'":{"ha":263,"x_min":65,"x_max":198,"o":"m 179 542 l 83 542 l 65 800 l 198 800 l 179 542 z"},"(":{"ha":339,"x_min":41,"x_max":311,"o":"m 41 281 l 41 281 q 41 370 58 466 q 75 562 109 650 q 143 737 190 800 l 190 800 l 310 800 q 267 732 236 646 q 204 559 186 466 q 168 372 168 280 l 168 280 q 168 189 185 97 q 202 5 234 -82 q 265 -169 311 -244 l 311 -244 l 190 -244 q 140 -174 107 -86 q 74 2 58 97 q 41 191 41 281 z"},")":{"ha":339,"x_min":29,"x_max":298,"o":"m 298 275 l 298 275 q 298 187 281 91 q 264 -6 231 -93 q 197 -181 149 -244 l 149 -244 l 29 -244 q 73 -175 105 -89 q 136 -3 154 91 q 171 185 171 276 l 171 276 q 171 368 155 460 q 138 552 107 639 q 75 725 29 800 l 29 800 l 149 800 q 199 731 232 643 q 265 555 282 461 q 298 366 298 275 z"},"*":{"ha":535,"x_min":31,"x_max":504,"o":"m 204 800 l 329 800 l 310 625 l 488 674 l 504 553 l 341 542 l 448 400 l 340 342 l 265 491 l 199 342 l 87 400 l 192 542 l 31 554 l 49 674 l 223 625 l 204 800 z"},"+":{"ha":535,"x_min":39,"x_max":495,"o":"m 320 113 l 213 113 l 213 299 l 39 299 l 39 406 l 213 406 l 213 595 l 320 595 l 320 406 l 495 406 l 495 299 l 320 299 l 320 113 z"},",":{"ha":284,"x_min":33,"x_max":219,"o":"m 79 116 l 213 116 l 219 105 q 211 64 198 24 q 185 -16 171 -54 q 156 -93 140 -129 l 140 -129 l 33 -129 q 43 -91 52 -47 q 60 -3 68 40 q 75 82 79 116 l 79 116 z"},"-":{"ha":318,"x_min":30,"x_max":288,"o":"m 288 209 l 30 209 l 30 328 l 288 328 l 288 209 z"},".":{"ha":278,"x_min":57,"x_max":221,"o":"m 139 -13 l 139 -13 q 103 -13 80 7 q 57 27 57 69 l 57 69 q 57 113 80 133 q 103 152 139 152 l 139 152 q 175 152 198 133 q 221 114 221 69 l 221 69 q 221 27 198 7 q 175 -13 139 -13 z"},"/":{"ha":423,"x_min":17,"x_max":406,"o":"m 141 -244 l 17 -244 l 282 800 l 406 800 l 141 -244 z"},":":{"ha":278,"x_min":57,"x_max":221,"o":"m 139 -13 l 139 -13 q 103 -13 80 7 q 57 27 57 69 l 57 69 q 57 113 80 133 q 103 152 139 152 l 139 152 q 175 152 198 133 q 221 114 221 69 l 221 69 q 221 27 198 7 q 175 -13 139 -13 z m 139 389 l 139 389 q 103 389 80 409 q 57 429 57 471 l 57 471 q 57 515 80 535 q 103 554 139 554 l 139 554 q 176 554 199 535 q 221 515 221 471 l 221 471 q 221 429 198 409 q 175 389 139 389 z"},";":{"ha":282,"x_min":33,"x_max":220,"o":"m 80 116 l 213 116 l 220 105 q 211 64 198 24 q 185 -16 171 -54 q 156 -93 140 -129 l 140 -129 l 33 -129 q 43 -91 52 -47 q 60 -3 68 40 q 75 82 80 116 l 80 116 z m 138 389 l 138 389 q 102 389 79 409 q 56 429 56 471 l 56 471 q 56 515 79 535 q 101 554 138 554 l 138 554 q 174 554 197 535 q 220 515 220 471 l 220 471 q 220 429 197 409 q 174 389 138 389 z"},"<":{"ha":535,"x_min":39,"x_max":495,"o":"m 495 225 l 495 108 l 39 316 l 39 387 l 495 614 l 495 497 l 189 355 l 495 225 z"},"=":{"ha":535,"x_min":38,"x_max":495,"o":"m 495 195 l 38 195 l 38 301 l 495 301 l 495 195 z m 495 404 l 38 404 l 38 509 l 495 509 l 495 404 z"},">":{"ha":535,"x_min":39,"x_max":495,"o":"m 495 317 l 39 108 l 39 225 l 345 355 l 39 497 l 39 614 l 495 388 l 495 317 z"},"?":{"ha":432,"x_min":36,"x_max":409,"o":"m 218 724 l 218 724 q 314 724 362 676 q 409 627 409 552 l 409 552 q 409 511 401 483 q 392 454 373 427 q 353 400 320 365 l 320 365 q 297 340 283 323 q 269 306 263 293 q 257 279 257 265 l 257 265 l 257 238 l 131 238 l 131 272 q 131 301 140 327 q 149 353 169 377 q 188 401 216 427 l 216 427 q 242 450 254 468 q 265 485 269 502 q 273 519 273 541 l 273 541 q 273 573 249 589 q 224 605 191 605 l 191 605 q 164 605 137 599 q 110 593 82 577 l 82 577 l 36 681 q 82 704 122 714 q 162 724 218 724 z m 198 -13 l 198 -13 q 162 -13 139 7 q 116 27 116 69 l 116 69 q 116 113 139 133 q 162 152 198 152 l 198 152 q 234 152 257 133 q 280 113 280 69 l 280 69 q 280 27 257 7 q 234 -13 198 -13 z"},"[":{"ha":337,"x_min":65,"x_max":302,"o":"m 302 -244 l 65 -244 l 65 800 l 302 800 l 302 697 l 190 697 l 190 -141 l 302 -141 l 302 -244 z"},"\\":{"ha":423,"x_min":17,"x_max":406,"o":"m 406 -244 l 282 -244 l 17 800 l 141 800 l 406 -244 z"},"]":{"ha":337,"x_min":36,"x_max":271,"o":"m 271 -244 l 36 -244 l 36 -141 l 147 -141 l 147 697 l 36 697 l 36 800 l 271 800 l 271 -244 z"},"^":{"ha":589,"x_min":27,"x_max":562,"o":"m 143 279 l 27 279 l 248 717 l 318 717 l 562 279 l 445 279 l 286 562 l 143 279 z"},"_":{"ha":394,"x_min":-2,"x_max":396,"o":"m 396 -158 l -2 -158 l -2 -90 l 396 -90 l 396 -158 z"},"{":{"ha":383,"x_min":24,"x_max":347,"o":"m 347 -136 l 347 -244 q 262 -244 219 -222 q 175 -201 160 -164 q 144 -128 144 -81 l 144 -81 l 144 138 q 144 183 113 203 q 82 222 24 222 l 24 222 l 24 337 q 82 337 113 357 q 144 376 144 421 l 144 421 l 144 637 q 144 684 160 721 q 175 757 219 779 q 262 800 347 800 l 347 800 l 347 692 q 306 691 289 670 q 272 648 272 608 l 272 608 l 272 387 q 272 343 244 317 q 215 291 160 283 l 160 283 l 160 277 q 215 270 244 244 q 272 218 272 173 l 272 173 l 272 -52 q 272 -79 280 -97 q 287 -116 304 -125 q 320 -135 347 -136 l 347 -136 z"},"|":{"ha":551,"x_min":222,"x_max":329,"o":"m 329 -244 l 222 -244 l 222 800 l 329 800 l 329 -244 z"},"}":{"ha":383,"x_min":36,"x_max":358,"o":"m 36 692 l 36 800 q 121 800 165 779 q 208 757 223 721 q 238 684 238 637 l 238 637 l 238 421 q 238 376 270 357 q 301 337 358 337 l 358 337 l 358 222 q 301 222 270 203 q 238 183 238 138 l 238 138 l 238 -81 q 238 -128 223 -164 q 207 -201 164 -222 q 121 -244 36 -244 l 36 -244 l 36 -136 q 76 -135 93 -114 q 110 -93 110 -52 l 110 -52 l 110 173 q 110 217 139 243 q 167 269 223 277 l 223 277 l 223 283 q 167 291 139 317 q 110 343 110 387 l 110 387 l 110 608 q 110 635 103 654 q 95 672 79 682 q 62 691 36 692 l 36 692 z"},"~":{"ha":535,"x_min":39,"x_max":495,"o":"m 251 302 l 251 302 q 215 317 193 323 q 171 328 152 328 l 152 328 q 121 328 92 312 q 63 295 39 269 l 39 269 l 39 382 q 63 408 92 421 q 121 434 157 434 l 157 434 q 186 434 215 428 q 243 421 284 403 l 284 403 q 316 388 341 383 q 365 377 385 377 l 385 377 q 413 377 442 394 q 471 410 495 436 l 495 436 l 495 323 q 471 297 442 284 q 413 271 377 271 l 377 271 q 348 271 320 278 q 291 284 251 302 z"}," ":{"ha":277,"x_min":0,"x_max":0,"o":""},"­":{"ha":318,"x_min":30,"x_max":288,"o":"m 288 209 l 30 209 l 30 328 l 288 328 l 288 209 z"},"–":{"ha":500,"x_min":40,"x_max":460,"o":"m 460 208 l 40 208 l 40 327 l 460 327 l 460 208 z"},"—":{"ha":1000,"x_min":40,"x_max":960,"o":"m 960 208 l 40 208 l 40 327 l 960 327 l 960 208 z"},"‘":{"ha":263,"x_min":39,"x_max":225,"o":"m 179 555 l 46 555 l 39 566 q 48 607 61 647 q 73 686 89 725 q 104 764 119 800 l 119 800 l 225 800 q 216 762 207 718 q 198 673 191 631 q 184 589 179 555 l 179 555 z"},"’":{"ha":263,"x_min":39,"x_max":225,"o":"m 85 800 l 218 800 l 225 789 q 217 749 204 709 q 191 669 177 631 q 162 592 145 555 l 145 555 l 39 555 q 46 583 53 616 q 59 648 66 681 q 72 714 77 745 q 82 775 85 800 l 85 800 z"},"“":{"ha":483,"x_min":39,"x_max":445,"o":"m 400 556 l 266 556 l 260 566 q 269 607 282 647 q 294 687 309 726 q 324 765 340 800 l 340 800 l 445 800 q 437 761 428 718 q 418 675 411 634 q 404 592 400 556 l 400 556 z m 179 556 l 46 556 l 39 566 q 48 607 61 647 q 73 687 89 726 q 104 765 119 800 l 119 800 l 225 800 q 216 762 207 718 q 198 674 191 632 q 184 590 179 556 l 179 556 z"},"”":{"ha":483,"x_min":39,"x_max":445,"o":"m 306 800 l 439 800 l 445 790 q 437 749 424 709 q 411 669 397 631 q 382 592 365 556 l 365 556 l 259 556 q 270 596 279 639 q 287 682 294 723 q 301 764 306 800 l 306 800 z m 85 800 l 218 800 l 225 790 q 217 749 204 709 q 191 669 177 631 q 162 592 145 556 l 145 556 l 39 556 q 46 583 53 616 q 59 648 66 681 q 72 714 77 745 q 82 775 85 800 l 85 800 z"},"…":{"ha":830,"x_min":57,"x_max":773,"o":"m 139 -13 l 139 -13 q 104 -13 81 7 q 57 27 57 69 l 57 69 q 57 113 80 133 q 103 152 139 152 l 139 152 q 175 152 198 133 q 221 114 221 69 l 221 69 q 221 27 198 7 q 175 -13 139 -13 z m 415 -13 l 415 -13 q 379 -13 356 7 q 333 27 333 69 l 333 69 q 333 113 356 133 q 379 152 415 152 l 415 152 q 451 152 474 133 q 497 114 497 69 l 497 69 q 497 27 474 7 q 451 -13 415 -13 z m 691 -13 l 691 -13 q 656 -13 633 7 q 609 27 609 69 l 609 69 q 609 113 632 133 q 655 152 691 152 l 691 152 q 728 152 751 133 q 773 114 773 69 l 773 69 q 773 27 750 7 q 727 -13 691 -13 z"},"×":{"ha":535,"x_min":53,"x_max":481,"o":"m 265 428 l 406 566 l 481 494 l 340 353 l 478 213 l 406 140 l 265 279 l 126 141 l 54 214 l 191 353 l 53 492 l 126 566 l 265 428 z"},"÷":{"ha":535,"x_min":39,"x_max":495,"o":"m 495 300 l 39 300 l 39 406 l 495 406 l 495 300 z m 267 104 l 267 104 q 238 104 219 122 q 199 140 199 179 l 199 179 q 199 219 218 237 q 237 254 267 254 l 267 254 q 295 254 315 237 q 334 219 334 179 l 334 179 q 334 141 315 123 q 295 104 267 104 z m 267 451 l 267 451 q 238 451 219 469 q 199 487 199 526 l 199 526 q 199 566 218 584 q 237 601 267 601 l 267 601 q 295 601 315 584 q 334 566 334 526 l 334 526 q 334 487 315 469 q 295 451 267 451 z"},"−":{"ha":535,"x_min":39,"x_max":495,"o":"m 495 300 l 39 300 l 39 406 l 495 406 l 495 300 z"},"₹":{"ha":535,"x_min":52,"x_max":487,"o":"m 379 0 l 216 0 l 52 254 l 70 355 l 100 355 q 145 355 165 363 q 184 371 196 387 l 196 387 q 209 405 215 429 q 220 452 220 483 l 220 483 q 220 523 213 547 q 205 570 191 585 l 191 585 q 179 599 161 604 q 142 609 110 609 l 110 609 l 52 609 l 52 714 l 487 714 l 487 609 l 307 609 q 327 592 340 559 q 352 526 352 479 l 352 479 q 352 418 334 375 q 316 331 279 303 q 242 274 186 259 l 186 259 l 186 279 l 379 0 z m 487 433 l 52 433 l 52 539 l 487 539 l 487 433 z"},"꠰":{"ha":271,"x_min":66,"x_max":205,"o":"m 66 0 l 66 562 l 205 562 l 205 0 l 66 0 z"},"꠱":{"ha":480,"x_min":66,"x_max":414,"o":"m 66 0 l 66 562 l 205 562 l 205 0 l 66 0 z m 275 0 l 275 562 l 414 562 l 414 0 l 275 0 z"},"꠲":{"ha":689,"x_min":66,"x_max":623,"o":"m 66 0 l 66 562 l 205 562 l 205 0 l 66 0 z m 275 0 l 275 562 l 414 562 l 414 0 l 275 0 z m 484 0 l 484 562 l 623 562 l 623 0 l 484 0 z"},"॑":{"ha":0,"x_min":-327,"x_max":-230,"o":"m -327 653 l -327 864 l -230 864 l -230 653 l -327 653 z"},"॒":{"ha":0,"x_min":-507,"x_max":-50,"o":"m -50 -101 l -50 -190 l -507 -190 l -507 -101 l -50 -101 z"},"।":{"ha":361,"x_min":145,"x_max":287,"o":"m 287 -49 l 145 -49 l 145 603 l 287 603 l 287 -49 z"},"॥":{"ha":634,"x_min":145,"x_max":560,"o":"m 560 -49 l 419 -49 l 419 603 l 560 603 l 560 -49 z m 288 -49 l 145 -49 l 145 603 l 288 603 l 288 -49 z"},"᳚":{"ha":0,"x_min":-390,"x_max":-166,"o":"m -390 653 l -390 864 l -304 864 l -304 653 l -390 653 z m -253 653 l -253 864 l -166 864 l -166 653 l -253 653 z"},"̇":{"ha":0,"x_min":-335,"x_max":-193,"o":"m -335 701 l -335 701 q -335 740 -314 756 q -293 771 -263 771 l -263 771 q -233 771 -213 756 q -193 740 -193 701 l -193 701 q -193 661 -213 646 q -234 631 -263 631 l -263 631 q -293 631 -314 646 q -335 661 -335 701 z"},"̣":{"ha":0,"x_min":-334,"x_max":-192,"o":"m -334 -136 l -334 -136 q -334 -96 -313 -81 q -293 -66 -263 -66 l -263 -66 q -233 -66 -212 -81 q -192 -96 -192 -136 l -192 -136 q -192 -175 -213 -190 q -234 -206 -263 -206 l -263 -206 q -293 -206 -313 -190 q -334 -175 -334 -136 z"},"‐":{"ha":318,"x_min":30,"x_max":288,"o":"m 288 209 l 30 209 l 30 328 l 288 328 l 288 209 z"},"​":{"ha":0,"x_min":0,"x_max":0,"o":""},"‌":{"ha":0,"x_min":0,"x_max":0,"o":""},"‍":{"ha":0,"x_min":-161,"x_max":161,"o":"m 29 -244 l -29 -244 l -29 565 l -121 474 l -161 514 l -40 631 l -161 748 l -121 788 l 0 669 l 121 788 l 161 748 l 40 631 l 161 514 l 121 474 l 29 565 l 29 -244 z"},"◌":{"ha":562,"x_min":57,"x_max":504,"o":"m 89 231 l 89 231 q 57 231 57 264 l 57 264 q 57 295 89 295 l 89 295 q 121 295 121 264 l 121 264 q 121 231 89 231 z m 138 95 l 138 95 q 106 95 106 127 l 106 127 q 106 158 138 158 l 138 158 q 169 158 169 127 l 169 127 q 169 95 138 95 z m 281 40 l 281 40 q 249 40 249 72 l 249 72 q 249 104 281 104 l 281 104 q 312 104 312 72 l 312 72 q 312 40 281 40 z m 138 369 l 138 369 q 106 369 106 401 l 106 401 q 106 432 138 432 l 138 432 q 169 432 169 401 l 169 401 q 169 369 138 369 z m 423 95 l 423 95 q 391 95 391 127 l 391 127 q 391 158 423 158 l 423 158 q 455 158 455 127 l 455 127 q 455 95 423 95 z m 281 424 l 281 424 q 249 424 249 456 l 249 456 q 249 487 281 487 l 281 487 q 312 487 312 456 l 312 456 q 312 424 281 424 z m 472 231 l 472 231 q 441 231 441 264 l 441 264 q 441 295 472 295 l 472 295 q 504 295 504 264 l 504 264 q 504 231 472 231 z m 423 369 l 423 369 q 391 369 391 401 l 391 401 q 391 432 423 432 l 423 432 q 455 432 455 401 l 455 401 q 455 369 423 369 z"},"«":{"ha":581,"x_min":36,"x_max":544,"o":"m 36 267 l 36 280 l 206 500 l 308 446 l 184 274 l 308 103 l 206 48 l 36 267 z m 272 267 l 272 280 l 442 500 l 544 446 l 420 274 l 544 103 l 442 48 l 272 267 z"},"»":{"ha":581,"x_min":37,"x_max":545,"o":"m 545 280 l 545 267 l 375 48 l 274 103 l 397 274 l 274 446 l 375 500 l 545 280 z m 309 280 l 309 267 l 139 48 l 37 103 l 161 274 l 37 446 l 139 500 l 309 280 z"},"̈":{"ha":0,"x_min":-157,"x_max":159,"o":"m -157 684 l -157 684 q -157 719 -138 735 q -120 750 -93 750 l -93 750 q -65 750 -46 734 q -27 718 -27 685 l -27 685 q -27 652 -46 636 q -65 619 -93 619 l -93 619 q -120 619 -138 636 q -157 652 -157 684 z m 27 684 l 27 684 q 27 719 46 735 q 65 750 92 750 l 92 750 q 121 750 140 734 q 159 718 159 685 l 159 685 q 159 652 140 636 q 121 619 93 619 l 93 619 q 65 619 46 636 q 27 652 27 684 z"},"̀":{"ha":0,"x_min":-483,"x_max":-220,"o":"m -483 766 l -323 766 q -310 745 -291 717 q -273 688 -254 663 q -235 637 -221 619 l -221 619 l -221 606 l -317 606 q -334 618 -357 638 q -380 657 -404 680 q -429 702 -450 722 q -471 742 -483 756 l -483 756 l -483 766 z"},"́":{"ha":0,"x_min":-318,"x_max":-56,"o":"m -56 766 l -56 756 q -68 742 -88 723 q -109 703 -132 681 q -156 659 -179 640 q -203 620 -222 606 l -222 606 l -318 606 l -318 619 q -302 641 -282 666 q -263 691 -245 718 q -228 744 -215 766 l -215 766 l -56 766 z"},"̋":{"ha":0,"x_min":-137,"x_max":265,"o":"m 266 766 l 266 756 q 258 742 241 722 q 223 702 201 681 q 178 659 156 640 q 133 620 116 606 l 116 606 l 41 606 l 41 619 q 57 642 74 669 q 90 696 105 722 q 120 747 128 766 l 128 766 l 266 766 z m 87 766 l 87 756 q 79 742 62 723 q 45 703 23 682 q 0 660 -23 641 q -46 621 -65 606 l -65 606 l -137 606 l -137 619 q -122 643 -105 670 q -89 696 -74 722 q -60 747 -50 766 l -50 766 l 87 766 z"},"̄":{"ha":0,"x_min":-155,"x_max":156,"o":"m -155 712 l 155 712 l 155 610 l -155 610 l -155 712 z"},"˙":{"ha":234,"x_min":40,"x_max":194,"o":"m 117 760 l 117 760 q 151 760 173 744 q 194 727 194 687 l 194 687 q 194 648 173 631 q 151 614 117 614 l 117 614 q 83 614 62 631 q 40 648 40 687 l 40 687 q 40 727 61 744 q 82 760 117 760 z"},"°":{"ha":405,"x_min":35,"x_max":369,"o":"m 202 404 l 202 404 q 154 404 116 424 q 78 444 57 481 q 35 517 35 564 l 35 564 q 35 611 57 647 q 79 683 117 704 q 154 724 202 724 l 202 724 q 252 724 289 704 q 326 684 348 648 q 369 611 369 564 l 369 564 q 369 517 348 481 q 326 444 289 424 q 252 404 202 404 z m 202 491 l 202 491 q 233 491 254 511 q 275 530 275 564 l 275 564 q 275 598 254 618 q 233 637 202 637 l 202 637 q 173 637 152 618 q 130 598 130 564 l 130 564 q 130 530 152 511 q 173 491 202 491 z"},"A":{"ha":629,"x_min":0,"x_max":629,"o":"m 629 0 l 473 0 l 428 171 l 202 171 l 157 0 l 0 0 l 224 716 l 404 716 l 629 0 z m 397 295 l 349 474 q 344 494 338 517 q 331 540 325 563 q 319 586 315 606 l 315 606 q 311 588 304 562 q 297 535 291 511 q 284 487 281 474 l 281 474 l 234 295 l 397 295 z"},"Á":{"ha":629,"x_min":0,"x_max":629,"o":"m 629 0 l 473 0 l 428 171 l 202 171 l 157 0 l 0 0 l 224 716 l 404 716 l 629 0 z m 397 295 l 349 474 q 344 494 338 517 q 331 540 325 563 q 319 586 315 606 l 315 606 q 311 588 304 562 q 297 535 291 511 q 284 487 281 474 l 281 474 l 234 295 l 397 295 z m 505 934 l 505 924 q 493 910 473 891 q 452 871 429 849 q 405 827 382 808 q 358 788 339 774 l 339 774 l 243 774 l 243 787 q 259 809 279 834 q 298 859 316 886 q 333 912 346 934 l 346 934 l 505 934 z"},"Ă":{"ha":629,"x_min":0,"x_max":629,"o":"m 629 0 l 473 0 l 428 171 l 202 171 l 157 0 l 0 0 l 224 716 l 404 716 l 629 0 z m 397 295 l 349 474 q 344 494 338 517 q 331 540 325 563 q 319 586 315 606 l 315 606 q 311 588 304 562 q 297 535 291 511 q 284 487 281 474 l 281 474 l 234 295 l 397 295 z m 411 939 l 493 939 q 491 891 467 854 q 443 816 404 795 q 364 774 313 774 l 313 774 q 235 774 187 818 q 139 862 136 939 l 136 939 l 217 939 q 219 912 232 899 q 245 885 267 881 q 289 876 314 876 l 314 876 q 336 876 358 881 q 380 886 395 900 q 410 914 411 939 l 411 939 z"},"Â":{"ha":629,"x_min":0,"x_max":629,"o":"m 629 0 l 473 0 l 428 171 l 202 171 l 157 0 l 0 0 l 224 716 l 404 716 l 629 0 z m 397 295 l 349 474 q 344 494 338 517 q 331 540 325 563 q 319 586 315 606 l 315 606 q 311 588 304 562 q 297 535 291 511 q 284 487 281 474 l 281 474 l 234 295 l 397 295 z m 234 934 l 396 934 q 409 912 429 886 q 448 859 470 834 q 491 808 510 787 l 510 787 l 510 774 l 419 774 q 396 790 367 812 q 338 833 314 861 l 314 861 q 290 833 262 812 q 233 790 211 774 l 211 774 l 120 774 l 120 787 q 138 806 160 833 q 181 859 202 886 q 222 913 234 934 l 234 934 z"},"Ä":{"ha":629,"x_min":0,"x_max":629,"o":"m 629 0 l 473 0 l 428 171 l 202 171 l 157 0 l 0 0 l 224 716 l 404 716 l 629 0 z m 397 295 l 349 474 q 344 494 338 517 q 331 540 325 563 q 319 586 315 606 l 315 606 q 311 588 304 562 q 297 535 291 511 q 284 487 281 474 l 281 474 l 234 295 l 397 295 z m 157 852 l 157 852 q 157 887 176 903 q 194 918 221 918 l 221 918 q 249 918 268 902 q 287 886 287 853 l 287 853 q 287 820 268 804 q 249 787 221 787 l 221 787 q 194 787 176 804 q 157 820 157 852 z m 341 852 l 341 852 q 341 887 360 903 q 379 918 406 918 l 406 918 q 435 918 454 902 q 473 886 473 853 l 473 853 q 473 820 454 804 q 435 787 407 787 l 407 787 q 379 787 360 804 q 341 820 341 852 z"},"À":{"ha":629,"x_min":0,"x_max":629,"o":"m 629 0 l 473 0 l 428 171 l 202 171 l 157 0 l 0 0 l 224 716 l 404 716 l 629 0 z m 397 295 l 349 474 q 344 494 338 517 q 331 540 325 563 q 319 586 315 606 l 315 606 q 311 588 304 562 q 297 535 291 511 q 284 487 281 474 l 281 474 l 234 295 l 397 295 z m 140 934 l 300 934 q 313 913 332 885 q 350 856 369 831 q 388 805 402 787 l 402 787 l 402 774 l 306 774 q 289 786 266 806 q 243 825 219 848 q 194 870 173 890 q 152 910 140 924 l 140 924 l 140 934 z"},"Ā":{"ha":629,"x_min":0,"x_max":629,"o":"m 629 0 l 473 0 l 428 171 l 202 171 l 157 0 l 0 0 l 224 716 l 404 716 l 629 0 z m 397 295 l 349 474 q 344 494 338 517 q 331 540 325 563 q 319 586 315 606 l 315 606 q 311 588 304 562 q 297 535 291 511 q 284 487 281 474 l 281 474 l 234 295 l 397 295 z m 159 880 l 469 880 l 469 778 l 159 778 l 159 880 z"},"Ą":{"ha":629,"x_min":0,"x_max":629,"o":"m 629 0 l 473 0 l 428 171 l 202 171 l 157 0 l 0 0 l 224 716 l 404 716 l 629 0 z m 397 295 l 349 474 q 344 494 338 517 q 331 540 325 563 q 319 586 315 606 l 315 606 q 311 588 304 562 q 297 535 291 511 q 284 487 281 474 l 281 474 l 234 295 l 397 295 z m 512 -110 l 512 -110 q 512 -130 523 -141 q 534 -152 552 -152 l 552 -152 q 567 -152 580 -149 q 592 -147 601 -143 l 601 -143 l 601 -229 q 587 -233 570 -237 q 552 -241 529 -241 l 529 -241 q 472 -241 441 -209 q 410 -178 410 -129 l 410 -129 q 410 -101 424 -74 q 438 -47 461 -24 q 483 -2 513 15 l 513 15 l 579 0 q 546 -33 529 -59 q 512 -85 512 -110 z"},"Å":{"ha":629,"x_min":0,"x_max":629,"o":"m 629 0 l 473 0 l 428 171 l 202 171 l 157 0 l 0 0 l 224 716 l 404 716 l 629 0 z m 397 295 l 349 474 q 344 494 338 517 q 331 540 325 563 q 319 586 315 606 l 315 606 q 311 588 304 562 q 297 535 291 511 q 284 487 281 474 l 281 474 l 234 295 l 397 295 z m 314 647 l 314 647 q 261 647 228 679 q 195 710 195 763 l 195 763 q 195 815 228 847 q 260 878 314 878 l 314 878 q 366 878 401 847 q 435 815 435 764 l 435 764 q 435 711 401 679 q 367 647 314 647 z m 314 717 l 314 717 q 334 717 348 729 q 361 741 361 763 l 361 763 q 361 784 348 797 q 335 809 315 809 l 315 809 q 294 809 281 797 q 268 784 268 763 l 268 763 q 268 741 280 729 q 292 717 314 717 z"},"Ã":{"ha":629,"x_min":0,"x_max":629,"o":"m 629 0 l 473 0 l 428 171 l 202 171 l 157 0 l 0 0 l 224 716 l 404 716 l 629 0 z m 397 295 l 349 474 q 344 494 338 517 q 331 540 325 563 q 319 586 315 606 l 315 606 q 311 588 304 562 q 297 535 291 511 q 284 487 281 474 l 281 474 l 234 295 l 397 295 z m 197 773 l 125 773 q 127 806 137 834 q 146 861 162 881 q 178 901 199 912 q 220 923 247 923 l 247 923 q 266 923 285 916 q 304 908 321 898 q 338 887 355 880 q 371 872 389 872 l 389 872 q 403 872 416 886 q 428 900 434 924 l 434 924 l 506 924 q 501 849 466 812 q 430 774 383 774 l 383 774 q 364 774 346 782 q 327 789 309 800 q 291 810 275 818 q 258 825 242 825 l 242 825 q 229 825 216 812 q 202 798 197 773 l 197 773 z"},"Æ":{"ha":868,"x_min":0,"x_max":813,"o":"m 813 122 l 813 0 l 418 0 l 418 171 l 211 171 l 147 0 l 0 0 l 283 714 l 813 714 l 813 593 l 562 593 l 562 431 l 797 431 l 797 310 l 562 310 l 562 122 l 813 122 z m 369 590 l 260 295 l 418 295 l 418 590 l 369 590 z"},"B":{"ha":621,"x_min":83,"x_max":572,"o":"m 83 714 l 289 714 q 418 714 487 674 q 555 634 555 534 l 555 534 q 555 495 544 462 q 533 429 511 407 q 488 385 454 379 l 454 379 l 454 374 q 492 366 518 347 q 544 327 558 293 q 572 259 572 207 l 572 207 q 572 143 543 97 q 513 50 459 25 q 404 0 328 0 l 328 0 l 83 0 l 83 714 z m 228 430 l 303 430 q 360 430 384 451 q 407 472 407 514 l 407 514 q 407 555 381 574 q 354 593 297 593 l 297 593 l 228 593 l 228 430 z m 308 312 l 228 312 l 228 123 l 313 123 q 372 123 397 149 q 421 174 421 221 l 421 221 q 421 251 411 271 q 400 291 375 302 q 349 312 308 312 l 308 312 z"},"C":{"ha":579,"x_min":54,"x_max":546,"o":"m 360 601 l 360 601 q 322 601 293 584 q 263 566 243 534 q 223 501 214 456 q 204 410 204 355 l 204 355 q 204 278 221 224 q 237 169 272 141 q 307 113 361 113 l 361 113 q 399 113 438 123 q 476 133 522 151 l 522 151 l 522 27 q 480 8 439 -1 q 397 -10 346 -10 l 346 -10 q 248 -10 183 35 q 117 79 86 161 q 54 243 54 356 l 54 356 q 54 437 74 505 q 94 572 133 621 q 171 670 227 697 q 283 724 356 724 l 356 724 q 405 724 453 711 q 501 698 546 675 l 546 675 l 501 555 q 465 574 430 588 q 394 601 360 601 z"},"Ć":{"ha":579,"x_min":54,"x_max":546,"o":"m 360 601 l 360 601 q 322 601 293 584 q 263 566 243 534 q 223 501 214 456 q 204 410 204 355 l 204 355 q 204 278 221 224 q 237 169 272 141 q 307 113 361 113 l 361 113 q 399 113 438 123 q 476 133 522 151 l 522 151 l 522 27 q 480 8 439 -1 q 397 -10 346 -10 l 346 -10 q 248 -10 183 35 q 117 79 86 161 q 54 243 54 356 l 54 356 q 54 437 74 505 q 94 572 133 621 q 171 670 227 697 q 283 724 356 724 l 356 724 q 405 724 453 711 q 501 698 546 675 l 546 675 l 501 555 q 465 574 430 588 q 394 601 360 601 z m 537 934 l 537 924 q 525 910 505 891 q 484 871 461 849 q 437 827 414 808 q 390 788 371 774 l 371 774 l 275 774 l 275 787 q 291 809 311 834 q 330 859 348 886 q 365 912 378 934 l 378 934 l 537 934 z"},"Č":{"ha":579,"x_min":54,"x_max":546,"o":"m 360 601 l 360 601 q 322 601 293 584 q 263 566 243 534 q 223 501 214 456 q 204 410 204 355 l 204 355 q 204 278 221 224 q 237 169 272 141 q 307 113 361 113 l 361 113 q 399 113 438 123 q 476 133 522 151 l 522 151 l 522 27 q 480 8 439 -1 q 397 -10 346 -10 l 346 -10 q 248 -10 183 35 q 117 79 86 161 q 54 243 54 356 l 54 356 q 54 437 74 505 q 94 572 133 621 q 171 670 227 697 q 283 724 356 724 l 356 724 q 405 724 453 711 q 501 698 546 675 l 546 675 l 501 555 q 465 574 430 588 q 394 601 360 601 z m 427 774 l 265 774 q 253 796 233 823 q 212 850 191 877 q 169 903 151 921 l 151 921 l 151 934 l 242 934 q 265 919 293 897 q 321 875 345 848 l 345 848 q 370 876 398 897 q 426 917 450 934 l 450 934 l 541 934 l 541 921 q 524 903 502 877 q 480 850 460 823 q 440 796 427 774 l 427 774 z"},"Ç":{"ha":579,"x_min":54,"x_max":546,"o":"m 360 601 l 360 601 q 322 601 293 584 q 263 566 243 534 q 223 501 214 456 q 204 410 204 355 l 204 355 q 204 278 221 224 q 237 169 272 141 q 307 113 361 113 l 361 113 q 399 113 438 123 q 476 133 522 151 l 522 151 l 522 27 q 480 8 439 -1 q 397 -10 346 -10 l 346 -10 q 248 -10 183 35 q 117 79 86 161 q 54 243 54 356 l 54 356 q 54 437 74 505 q 94 572 133 621 q 171 670 227 697 q 283 724 356 724 l 356 724 q 405 724 453 711 q 501 698 546 675 l 546 675 l 501 555 q 465 574 430 588 q 394 601 360 601 z m 446 -122 l 446 -122 q 446 -178 415 -209 q 384 -240 301 -240 l 301 -240 q 280 -240 264 -237 q 248 -235 233 -232 l 233 -232 l 233 -151 q 248 -155 267 -157 q 286 -160 300 -160 l 300 -160 q 313 -160 323 -153 q 333 -146 333 -129 l 333 -129 q 333 -111 316 -97 q 298 -83 255 -77 l 255 -77 l 292 0 l 381 0 l 367 -30 q 390 -36 408 -49 q 425 -63 436 -81 q 446 -99 446 -122 z"},"Ċ":{"ha":579,"x_min":54,"x_max":546,"o":"m 360 601 l 360 601 q 322 601 293 584 q 263 566 243 534 q 223 501 214 456 q 204 410 204 355 l 204 355 q 204 278 221 224 q 237 169 272 141 q 307 113 361 113 l 361 113 q 399 113 438 123 q 476 133 522 151 l 522 151 l 522 27 q 480 8 439 -1 q 397 -10 346 -10 l 346 -10 q 248 -10 183 35 q 117 79 86 161 q 54 243 54 356 l 54 356 q 54 437 74 505 q 94 572 133 621 q 171 670 227 697 q 283 724 356 724 l 356 724 q 405 724 453 711 q 501 698 546 675 l 546 675 l 501 555 q 465 574 430 588 q 394 601 360 601 z m 346 928 l 346 928 q 380 928 402 912 q 423 895 423 855 l 423 855 q 423 816 402 799 q 380 782 346 782 l 346 782 q 312 782 291 799 q 269 816 269 855 l 269 855 q 269 895 290 912 q 311 928 346 928 z"},"D":{"ha":677,"x_min":83,"x_max":623,"o":"m 623 364 l 623 364 q 623 246 582 165 q 540 83 460 42 q 380 0 266 0 l 266 0 l 83 0 l 83 714 l 285 714 q 388 714 464 674 q 540 634 582 557 q 623 479 623 364 z m 472 360 l 472 360 q 472 441 452 492 q 432 543 392 568 q 352 592 293 592 l 293 592 l 228 592 l 228 122 l 280 122 q 378 122 425 182 q 472 241 472 360 z"},"Ð":{"ha":677,"x_min":18,"x_max":623,"o":"m 81 714 l 285 714 q 388 714 464 674 q 540 634 582 557 q 623 479 623 364 l 623 364 q 623 246 582 165 q 540 83 461 42 q 381 0 266 0 l 266 0 l 81 0 l 81 301 l 18 301 l 18 417 l 81 417 l 81 714 z m 292 592 l 292 592 l 227 592 l 227 417 l 323 417 l 323 301 l 227 301 l 227 122 l 279 122 q 376 122 424 182 q 472 242 472 360 l 472 360 q 472 441 451 492 q 430 543 390 568 q 350 592 292 592 z"},"Ď":{"ha":677,"x_min":83,"x_max":623,"o":"m 623 364 l 623 364 q 623 246 582 165 q 540 83 460 42 q 380 0 266 0 l 266 0 l 83 0 l 83 714 l 285 714 q 388 714 464 674 q 540 634 582 557 q 623 479 623 364 z m 472 360 l 472 360 q 472 441 452 492 q 432 543 392 568 q 352 592 293 592 l 293 592 l 228 592 l 228 122 l 280 122 q 378 122 425 182 q 472 241 472 360 z m 418 774 l 256 774 q 244 796 224 823 q 203 850 182 877 q 160 903 142 921 l 142 921 l 142 934 l 233 934 q 256 919 284 897 q 312 875 336 848 l 336 848 q 361 876 389 897 q 417 917 441 934 l 441 934 l 532 934 l 532 921 q 515 903 493 877 q 471 850 451 823 q 431 796 418 774 l 418 774 z"},"Đ":{"ha":677,"x_min":18,"x_max":623,"o":"m 81 714 l 285 714 q 388 714 464 674 q 540 634 582 557 q 623 479 623 364 l 623 364 q 623 246 582 165 q 540 83 461 42 q 381 0 266 0 l 266 0 l 81 0 l 81 301 l 18 301 l 18 417 l 81 417 l 81 714 z m 292 592 l 292 592 l 227 592 l 227 417 l 323 417 l 323 301 l 227 301 l 227 122 l 279 122 q 376 122 424 182 q 472 242 472 360 l 472 360 q 472 441 451 492 q 430 543 390 568 q 350 592 292 592 z"},"E":{"ha":514,"x_min":83,"x_max":459,"o":"m 459 122 l 459 0 l 83 0 l 83 714 l 459 714 l 459 593 l 228 593 l 228 431 l 443 431 l 443 310 l 228 310 l 228 122 l 459 122 z"},"É":{"ha":514,"x_min":83,"x_max":466,"o":"m 459 122 l 459 0 l 83 0 l 83 714 l 459 714 l 459 593 l 228 593 l 228 431 l 443 431 l 443 310 l 228 310 l 228 122 l 459 122 z m 465 934 l 465 924 q 453 910 433 891 q 412 871 389 849 q 365 827 342 808 q 318 788 299 774 l 299 774 l 203 774 l 203 787 q 219 809 239 834 q 258 859 276 886 q 293 912 306 934 l 306 934 l 465 934 z"},"Ě":{"ha":514,"x_min":80,"x_max":470,"o":"m 459 122 l 459 0 l 83 0 l 83 714 l 459 714 l 459 593 l 228 593 l 228 431 l 443 431 l 443 310 l 228 310 l 228 122 l 459 122 z m 356 774 l 194 774 q 182 796 162 823 q 141 850 120 877 q 98 903 80 921 l 80 921 l 80 934 l 171 934 q 194 919 222 897 q 250 875 274 848 l 274 848 q 299 876 327 897 q 355 917 379 934 l 379 934 l 470 934 l 470 921 q 453 903 431 877 q 409 850 389 823 q 369 796 356 774 l 356 774 z"},"Ê":{"ha":514,"x_min":80,"x_max":470,"o":"m 459 122 l 459 0 l 83 0 l 83 714 l 459 714 l 459 593 l 228 593 l 228 431 l 443 431 l 443 310 l 228 310 l 228 122 l 459 122 z m 194 934 l 356 934 q 369 912 389 886 q 408 859 430 834 q 451 808 470 787 l 470 787 l 470 774 l 379 774 q 356 790 327 812 q 298 833 274 861 l 274 861 q 250 833 222 812 q 193 790 171 774 l 171 774 l 80 774 l 80 787 q 98 806 120 833 q 141 859 162 886 q 182 913 194 934 l 194 934 z"},"Ë":{"ha":514,"x_min":83,"x_max":459,"o":"m 459 122 l 459 0 l 83 0 l 83 714 l 459 714 l 459 593 l 228 593 l 228 431 l 443 431 l 443 310 l 228 310 l 228 122 l 459 122 z m 117 852 l 117 852 q 117 887 136 903 q 154 918 181 918 l 181 918 q 209 918 228 902 q 247 886 247 853 l 247 853 q 247 820 228 804 q 209 787 181 787 l 181 787 q 154 787 136 804 q 117 820 117 852 z m 301 852 l 301 852 q 301 887 320 903 q 339 918 366 918 l 366 918 q 395 918 414 902 q 433 886 433 853 l 433 853 q 433 820 414 804 q 395 787 367 787 l 367 787 q 339 787 320 804 q 301 820 301 852 z"},"Ė":{"ha":514,"x_min":83,"x_max":459,"o":"m 459 122 l 459 0 l 83 0 l 83 714 l 459 714 l 459 593 l 228 593 l 228 431 l 443 431 l 443 310 l 228 310 l 228 122 l 459 122 z m 275 928 l 275 928 q 309 928 331 912 q 352 895 352 855 l 352 855 q 352 816 331 799 q 309 782 275 782 l 275 782 q 241 782 220 799 q 198 816 198 855 l 198 855 q 198 895 219 912 q 240 928 275 928 z"},"È":{"ha":514,"x_min":83,"x_max":459,"o":"m 459 122 l 459 0 l 83 0 l 83 714 l 459 714 l 459 593 l 228 593 l 228 431 l 443 431 l 443 310 l 228 310 l 228 122 l 459 122 z m 101 934 l 261 934 q 274 913 293 885 q 311 856 330 831 q 349 805 363 787 l 363 787 l 363 774 l 267 774 q 250 786 227 806 q 204 825 180 848 q 155 870 134 890 q 113 910 101 924 l 101 924 l 101 934 z"},"Ē":{"ha":514,"x_min":83,"x_max":459,"o":"m 459 122 l 459 0 l 83 0 l 83 714 l 459 714 l 459 593 l 228 593 l 228 431 l 443 431 l 443 310 l 228 310 l 228 122 l 459 122 z m 119 880 l 429 880 l 429 778 l 119 778 l 119 880 z"},"Ę":{"ha":514,"x_min":83,"x_max":460,"o":"m 459 122 l 459 0 l 83 0 l 83 714 l 459 714 l 459 593 l 228 593 l 228 431 l 443 431 l 443 310 l 228 310 l 228 122 l 459 122 z m 371 -110 l 371 -110 q 371 -130 382 -141 q 393 -152 411 -152 l 411 -152 q 426 -152 439 -149 q 451 -147 460 -143 l 460 -143 l 460 -229 q 446 -233 429 -237 q 411 -241 388 -241 l 388 -241 q 331 -241 300 -209 q 269 -178 269 -129 l 269 -129 q 269 -101 283 -74 q 297 -47 320 -24 q 342 -2 372 15 l 372 15 l 438 0 q 405 -33 388 -59 q 371 -85 371 -110 z"},"F":{"ha":506,"x_min":83,"x_max":457,"o":"m 226 283 l 226 0 l 83 0 l 83 714 l 457 714 l 457 593 l 226 593 l 226 405 l 441 405 l 441 283 l 226 283 z"},"G":{"ha":665,"x_min":54,"x_max":592,"o":"m 331 277 l 331 401 l 592 401 l 592 31 q 538 11 483 1 q 427 -10 358 -10 l 358 -10 q 258 -10 190 33 q 122 76 88 159 q 54 241 54 358 l 54 358 q 54 470 94 552 q 134 634 211 679 q 287 724 397 724 l 397 724 q 450 724 501 712 q 551 700 592 679 l 592 679 l 546 562 q 516 580 478 591 q 440 601 399 601 l 399 601 q 340 601 297 572 q 253 543 229 488 q 204 433 204 355 l 204 355 q 204 285 220 230 q 236 175 272 144 q 307 113 364 113 l 364 113 q 393 113 412 116 q 430 119 448 123 l 448 123 l 448 277 l 331 277 z"}}}
